<?xml version="1.0" encoding="utf-8" standalone="no"?>
<!DOCTYPE svg PUBLIC "-//W3C//DTD SVG 1.1//EN"
  "http://www.w3.org/Graphics/SVG/1.1/DTD/svg11.dtd">
<svg xmlns:xlink="http://www.w3.org/1999/xlink" width="184.416pt" height="122.76pt" viewBox="0 0 184.416 122.76" xmlns="http://www.w3.org/2000/svg" version="1.1">
 <metadata>
  <rdf:RDF xmlns:dc="http://purl.org/dc/elements/1.1/" xmlns:cc="http://creativecommons.org/ns#" xmlns:rdf="http://www.w3.org/1999/02/22-rdf-syntax-ns#">
   <cc:Work>
    <dc:type rdf:resource="http://purl.org/dc/dcmitype/StillImage"/>
    <dc:date>2025-04-13T09:42:55.260703</dc:date>
    <dc:format>image/svg+xml</dc:format>
    <dc:creator>
     <cc:Agent>
      <dc:title>Matplotlib v3.10.1, https://matplotlib.org/</dc:title>
     </cc:Agent>
    </dc:creator>
   </cc:Work>
  </rdf:RDF>
 </metadata>
 <defs>
  <style type="text/css">*{stroke-linejoin: round; stroke-linecap: butt}</style>
 </defs>
 <g id="figure_1">
  <g id="patch_1">
   <path d="M 0 122.76 
L 184.416 122.76 
L 184.416 0 
L 0 0 
L 0 122.76 
z
" style="fill: none"/>
  </g>
  <g id="axes_1">
   <g id="patch_2">
    <path d="M 67.104 79.38 
C 71.877656 79.38 76.456438 77.483406 79.831922 74.107922 
C 83.207406 70.732438 85.104 66.153656 85.104 61.38 
C 85.104 56.606344 83.207406 52.027562 79.831922 48.652078 
C 76.456438 45.276594 71.877656 43.38 67.104 43.38 
C 62.330344 43.38 57.751562 45.276594 54.376078 48.652078 
C 51.000594 52.027562 49.104 56.606344 49.104 61.38 
C 49.104 66.153656 51.000594 70.732438 54.376078 74.107922 
C 57.751562 77.483406 62.330344 79.38 67.104 79.38 
L 67.104 79.38 
z
" clip-path="url(#p122b6d3db6)" style="fill: none; stroke: #000000; stroke-width: 2; stroke-linejoin: miter"/>
   </g>
   <g id="line2d_1">
    <path d="M 67.104 115.38 
L 67.104 79.38 
L 67.104 79.38 
M 67.104 43.38 
L 67.104 43.38 
L 67.104 7.38 
" clip-path="url(#p122b6d3db6)" style="fill: none; stroke: #000000; stroke-width: 2; stroke-linecap: round"/>
   </g>
   <g id="line2d_2">
    <path d="M 67.104 70.38 
L 67.104 61.38 
" clip-path="url(#p122b6d3db6)" style="fill: none; stroke: #000000; stroke-width: 2; stroke-linecap: round"/>
   </g>
   <g id="patch_3">
    <path d="M 64.404 61.38 
L 67.104 52.38 
L 69.804 61.38 
z
" clip-path="url(#p122b6d3db6)"/>
   </g>
   <g id="line2d_3">
    <path d="M 67.104 7.38 
L 94.104 7.38 
L 121.104 7.38 
" clip-path="url(#p122b6d3db6)" style="fill: none; stroke: #000000; stroke-width: 2; stroke-linecap: round"/>
   </g>
   <g id="line2d_4">
    <path d="M 121.104 7.38 
L 121.104 43.38 
L 130.104 43.38 
L 130.104 79.38 
L 112.104 79.38 
L 112.104 43.38 
L 121.104 43.38 
M 121.104 79.38 
L 121.104 115.38 
" clip-path="url(#p122b6d3db6)" style="fill: none; stroke: #000000; stroke-width: 2; stroke-linecap: round"/>
   </g>
   <g id="line2d_5">
    <path d="M 121.104 7.38 
L 148.104 7.38 
L 175.104 7.38 
" clip-path="url(#p122b6d3db6)" style="fill: none; stroke: #000000; stroke-width: 2; stroke-linecap: round"/>
   </g>
   <g id="line2d_6">
    <path d="M 67.104 115.38 
L 121.104 115.38 
L 175.104 115.38 
" clip-path="url(#p122b6d3db6)" style="fill: none; stroke: #000000; stroke-width: 2; stroke-linecap: round"/>
   </g>
   <g id="text_1">
    <!-- $I_{\rm N}$ -->
    <g transform="translate(33.604 65.243125) scale(0.14 -0.14)">
     <defs>
      <path id="DejaVuSans-Oblique-49" d="M 1081 4666 
L 1716 4666 
L 806 0 
L 172 0 
L 1081 4666 
z
" transform="scale(0.015625)"/>
      <path id="DejaVuSans-4e" d="M 628 4666 
L 1478 4666 
L 3547 763 
L 3547 4666 
L 4159 4666 
L 4159 0 
L 3309 0 
L 1241 3903 
L 1241 0 
L 628 0 
L 628 4666 
z
" transform="scale(0.015625)"/>
     </defs>
     <use xlink:href="#DejaVuSans-Oblique-49" transform="translate(0 0.09375)"/>
     <use xlink:href="#DejaVuSans-4e" transform="translate(29.492188 -16.3125) scale(0.7)"/>
    </g>
   </g>
   <g id="text_2">
    <!-- $R_{\rm N}$ -->
    <g transform="translate(133.704 65.243125) scale(0.14 -0.14)">
     <defs>
      <path id="DejaVuSans-Oblique-52" d="M 1613 4147 
L 1294 2491 
L 2106 2491 
Q 2584 2491 2879 2755 
Q 3175 3019 3175 3444 
Q 3175 3784 2976 3965 
Q 2778 4147 2406 4147 
L 1613 4147 
z
M 2772 2241 
Q 2972 2194 3105 2009 
Q 3238 1825 3413 1275 
L 3809 0 
L 3144 0 
L 2778 1197 
Q 2638 1659 2453 1815 
Q 2269 1972 1888 1972 
L 1191 1972 
L 806 0 
L 172 0 
L 1081 4666 
L 2503 4666 
Q 3150 4666 3495 4373 
Q 3841 4081 3841 3531 
Q 3841 3044 3547 2687 
Q 3253 2331 2772 2241 
z
" transform="scale(0.015625)"/>
     </defs>
     <use xlink:href="#DejaVuSans-Oblique-52" transform="translate(0 0.09375)"/>
     <use xlink:href="#DejaVuSans-4e" transform="translate(69.482422 -16.3125) scale(0.7)"/>
    </g>
   </g>
   <g id="patch_4">
    <path d="M 175.104 10.08 
C 175.820048 10.08 176.506866 9.795511 177.013188 9.289188 
C 177.519511 8.782866 177.804 8.096048 177.804 7.38 
C 177.804 6.663952 177.519511 5.977134 177.013188 5.470812 
C 176.506866 4.964489 175.820048 4.68 175.104 4.68 
C 174.387952 4.68 173.701134 4.964489 173.194812 5.470812 
C 172.688489 5.977134 172.404 6.663952 172.404 7.38 
C 172.404 8.096048 172.688489 8.782866 173.194812 9.289188 
C 173.701134 9.795511 174.387952 10.08 175.104 10.08 
z
" clip-path="url(#p122b6d3db6)" style="fill: #ffffff; stroke: #000000; stroke-width: 2; stroke-linejoin: miter"/>
   </g>
   <g id="patch_5">
    <path d="M 175.104 118.08 
C 175.820048 118.08 176.506866 117.795511 177.013188 117.289188 
C 177.519511 116.782866 177.804 116.096048 177.804 115.38 
C 177.804 114.663952 177.519511 113.977134 177.013188 113.470812 
C 176.506866 112.964489 175.820048 112.68 175.104 112.68 
C 174.387952 112.68 173.701134 112.964489 173.194812 113.470812 
C 172.688489 113.977134 172.404 114.663952 172.404 115.38 
C 172.404 116.096048 172.688489 116.782866 173.194812 117.289188 
C 173.701134 117.795511 174.387952 118.08 175.104 118.08 
z
" clip-path="url(#p122b6d3db6)" style="fill: #ffffff; stroke: #000000; stroke-width: 2; stroke-linejoin: miter"/>
   </g>
  </g>
 </g>
 <defs>
  <clipPath id="p122b6d3db6">
   <rect x="0" y="0" width="184.416" height="122.76"/>
  </clipPath>
 </defs>
</svg>
