<?xml version="1.0" encoding="utf-8" standalone="no"?>
<!DOCTYPE svg PUBLIC "-//W3C//DTD SVG 1.1//EN"
  "http://www.w3.org/Graphics/SVG/1.1/DTD/svg11.dtd">
<svg xmlns:xlink="http://www.w3.org/1999/xlink" width="235.872pt" height="117.36pt" viewBox="0 0 235.872 117.36" xmlns="http://www.w3.org/2000/svg" version="1.1">
 <metadata>
  <rdf:RDF xmlns:dc="http://purl.org/dc/elements/1.1/" xmlns:cc="http://creativecommons.org/ns#" xmlns:rdf="http://www.w3.org/1999/02/22-rdf-syntax-ns#">
   <cc:Work>
    <dc:type rdf:resource="http://purl.org/dc/dcmitype/StillImage"/>
    <dc:date>2025-04-13T09:43:00.074375</dc:date>
    <dc:format>image/svg+xml</dc:format>
    <dc:creator>
     <cc:Agent>
      <dc:title>Matplotlib v3.10.1, https://matplotlib.org/</dc:title>
     </cc:Agent>
    </dc:creator>
   </cc:Work>
  </rdf:RDF>
 </metadata>
 <defs>
  <style type="text/css">*{stroke-linejoin: round; stroke-linecap: butt}</style>
 </defs>
 <g id="figure_1">
  <g id="patch_1">
   <path d="M 0 117.36 
L 235.872 117.36 
L 235.872 0 
L 0 0 
z
" style="fill: #ffffff"/>
  </g>
  <g id="axes_1">
   <g id="patch_2">
    <path d="M 78.192 76.68 
C 82.965656 76.68 87.544438 74.783406 90.919922 71.407922 
C 94.295406 68.032438 96.192 63.453656 96.192 58.68 
C 96.192 53.906344 94.295406 49.327562 90.919922 45.952078 
C 87.544438 42.576594 82.965656 40.68 78.192 40.68 
C 73.418344 40.68 68.839562 42.576594 65.464078 45.952078 
C 62.088594 49.327562 60.192 53.906344 60.192 58.68 
C 60.192 63.453656 62.088594 68.032438 65.464078 71.407922 
C 68.839562 74.783406 73.418344 76.68 78.192 76.68 
L 78.192 76.68 
z
" clip-path="url(#p7c4ffb2bc3)" style="fill: none; stroke: #000000; stroke-width: 2; stroke-linejoin: miter"/>
   </g>
   <g id="patch_3">
    <path d="M 186.192 49.68 
C 187.385016 49.68 188.53039 49.205571 189.373981 48.361981 
C 190.217571 47.51839 190.692 46.373016 190.692 45.18 
C 190.692 43.986984 190.217571 42.84161 189.373981 41.998019 
C 188.53039 41.154429 187.385016 40.68 186.192 40.68 
" clip-path="url(#p7c4ffb2bc3)" style="fill: none; stroke: #000000; stroke-width: 2; stroke-linejoin: miter"/>
   </g>
   <g id="patch_4">
    <path d="M 186.192 58.68 
C 187.385016 58.68 188.53039 58.205571 189.373981 57.361981 
C 190.217571 56.51839 190.692 55.373016 190.692 54.18 
C 190.692 52.986984 190.217571 51.84161 189.373981 50.998019 
C 188.53039 50.154429 187.385016 49.68 186.192 49.68 
" clip-path="url(#p7c4ffb2bc3)" style="fill: none; stroke: #000000; stroke-width: 2; stroke-linejoin: miter"/>
   </g>
   <g id="patch_5">
    <path d="M 186.192 67.68 
C 187.385016 67.68 188.53039 67.205571 189.373981 66.361981 
C 190.217571 65.51839 190.692 64.373016 190.692 63.18 
C 190.692 61.986984 190.217571 60.84161 189.373981 59.998019 
C 188.53039 59.154429 187.385016 58.68 186.192 58.68 
" clip-path="url(#p7c4ffb2bc3)" style="fill: none; stroke: #000000; stroke-width: 2; stroke-linejoin: miter"/>
   </g>
   <g id="patch_6">
    <path d="M 186.192 76.68 
C 187.385016 76.68 188.53039 76.205571 189.373981 75.361981 
C 190.217571 74.51839 190.692 73.373016 190.692 72.18 
C 190.692 70.986984 190.217571 69.84161 189.373981 68.998019 
C 188.53039 68.154429 187.385016 67.68 186.192 67.68 
" clip-path="url(#p7c4ffb2bc3)" style="fill: none; stroke: #000000; stroke-width: 2; stroke-linejoin: miter"/>
   </g>
   <g id="line2d_1">
    <path d="M 78.192 112.68 
L 78.192 76.68 
L 78.192 76.68 
M 78.192 40.68 
L 78.192 40.68 
L 78.192 4.68 
" clip-path="url(#p7c4ffb2bc3)" style="fill: none; stroke: #000000; stroke-width: 2; stroke-linecap: round"/>
   </g>
   <g id="line2d_2">
    <path d="M 87.192 58.68 
L 86.442 56.816503 
L 85.692 55.08 
L 84.942 53.588831 
L 84.192 52.444617 
L 83.442 51.725334 
L 82.692 51.48 
L 81.942 51.725334 
L 81.192 52.444617 
L 80.442 53.588831 
L 79.692 55.08 
L 78.942 56.816503 
L 78.192 58.68 
L 77.442 60.543497 
L 76.692 62.28 
L 75.942 63.771169 
L 75.192 64.915383 
L 74.442 65.634666 
L 73.692 65.88 
L 72.942 65.634666 
L 72.192 64.915383 
L 71.442 63.771169 
L 70.692 62.28 
L 69.942 60.543497 
L 69.192 58.68 
" clip-path="url(#p7c4ffb2bc3)" style="fill: none; stroke: #000000; stroke-width: 2; stroke-linecap: round"/>
   </g>
   <g id="line2d_3">
    <path d="M 78.192 4.68 
L 114.192 4.68 
L 150.192 4.68 
" clip-path="url(#p7c4ffb2bc3)" style="fill: none; stroke: #000000; stroke-width: 2; stroke-linecap: round"/>
   </g>
   <g id="line2d_4">
    <path d="M 150.192 4.68 
L 150.192 40.68 
L 159.192 40.68 
L 159.192 76.68 
L 141.192 76.68 
L 141.192 40.68 
L 150.192 40.68 
M 150.192 76.68 
L 150.192 112.68 
" clip-path="url(#p7c4ffb2bc3)" style="fill: none; stroke: #000000; stroke-width: 2; stroke-linecap: round"/>
   </g>
   <g id="line2d_5">
    <path d="M 150.192 4.68 
L 168.192 4.68 
L 186.192 4.68 
" clip-path="url(#p7c4ffb2bc3)" style="fill: none; stroke: #000000; stroke-width: 2; stroke-linecap: round"/>
   </g>
   <g id="line2d_6">
    <path d="M 186.192 4.68 
L 186.192 40.68 
M 186.192 76.68 
L 186.192 112.68 
" clip-path="url(#p7c4ffb2bc3)" style="fill: none; stroke: #000000; stroke-width: 2; stroke-linecap: round"/>
   </g>
   <g id="line2d_7">
    <path d="M 186.192 4.68 
L 204.192 4.68 
L 222.192 4.68 
" clip-path="url(#p7c4ffb2bc3)" style="fill: none; stroke: #000000; stroke-width: 2; stroke-linecap: round"/>
   </g>
   <g id="line2d_8">
    <path d="M 222.192 4.68 
L 222.192 55.44 
M 231.192 55.44 
L 213.192 55.44 
M 231.192 61.92 
L 213.192 61.92 
M 222.192 61.92 
L 222.192 112.68 
" clip-path="url(#p7c4ffb2bc3)" style="fill: none; stroke: #000000; stroke-width: 2; stroke-linecap: round"/>
   </g>
   <g id="line2d_9">
    <path d="M 222.192 112.68 
L 150.192 112.68 
L 78.192 112.68 
" clip-path="url(#p7c4ffb2bc3)" style="fill: none; stroke: #000000; stroke-width: 2; stroke-linecap: round"/>
   </g>
   <g id="text_1">
    <!-- $V_0\,e^{j\omega t}$ -->
    <g transform="translate(13.612 63.468437) scale(0.14 -0.14)">
     <defs>
      <path id="DejaVuSans-Oblique-56" d="M 1319 0 
L 500 4666 
L 1119 4666 
L 1797 653 
L 4063 4666 
L 4750 4666 
L 2053 0 
L 1319 0 
z
" transform="scale(0.015625)"/>
      <path id="DejaVuSans-30" d="M 2034 4250 
Q 1547 4250 1301 3770 
Q 1056 3291 1056 2328 
Q 1056 1369 1301 889 
Q 1547 409 2034 409 
Q 2525 409 2770 889 
Q 3016 1369 3016 2328 
Q 3016 3291 2770 3770 
Q 2525 4250 2034 4250 
z
M 2034 4750 
Q 2819 4750 3233 4129 
Q 3647 3509 3647 2328 
Q 3647 1150 3233 529 
Q 2819 -91 2034 -91 
Q 1250 -91 836 529 
Q 422 1150 422 2328 
Q 422 3509 836 4129 
Q 1250 4750 2034 4750 
z
" transform="scale(0.015625)"/>
      <path id="DejaVuSans-Oblique-65" d="M 3078 2063 
Q 3088 2113 3092 2166 
Q 3097 2219 3097 2272 
Q 3097 2653 2873 2875 
Q 2650 3097 2266 3097 
Q 1838 3097 1509 2826 
Q 1181 2556 1013 2059 
L 3078 2063 
z
M 3578 1613 
L 903 1613 
Q 884 1494 878 1425 
Q 872 1356 872 1306 
Q 872 872 1139 634 
Q 1406 397 1894 397 
Q 2269 397 2603 481 
Q 2938 566 3225 728 
L 3116 159 
Q 2806 34 2476 -28 
Q 2147 -91 1806 -91 
Q 1078 -91 686 257 
Q 294 606 294 1247 
Q 294 1794 489 2264 
Q 684 2734 1063 3103 
Q 1306 3334 1642 3459 
Q 1978 3584 2356 3584 
Q 2950 3584 3301 3228 
Q 3653 2872 3653 2272 
Q 3653 2128 3634 1964 
Q 3616 1800 3578 1613 
z
" transform="scale(0.015625)"/>
      <path id="DejaVuSans-Oblique-6a" d="M 928 3500 
L 1503 3500 
L 813 -63 
L 809 -78 
Q 694 -675 544 -897 
Q 403 -1106 132 -1218 
Q -138 -1331 -506 -1331 
L -722 -1331 
L -628 -844 
L -481 -844 
Q -144 -844 -1 -703 
Q 141 -563 238 -63 
L 928 3500 
z
M 1197 4863 
L 1772 4863 
L 1631 4134 
L 1056 4134 
L 1197 4863 
z
" transform="scale(0.015625)"/>
      <path id="DejaVuSans-Oblique-3c9" d="M 1369 -91 
Q 72 -91 434 1766 
Q 575 2500 1256 3500 
L 1875 3500 
Q 1231 2500 1088 1750 
Q 819 397 1519 397 
Q 2166 397 2478 2078 
L 3009 2078 
Q 2669 388 3316 397 
Q 4013 403 4275 1750 
Q 4419 2500 4169 3500 
L 4788 3500 
Q 5075 2500 4934 1766 
Q 4578 -94 3278 -91 
Q 2428 -88 2503 844 
Q 2194 -91 1369 -91 
z
" transform="scale(0.015625)"/>
      <path id="DejaVuSans-Oblique-74" d="M 2706 3500 
L 2619 3053 
L 1472 3053 
L 1100 1153 
Q 1081 1047 1072 975 
Q 1063 903 1063 863 
Q 1063 663 1183 572 
Q 1303 481 1569 481 
L 2150 481 
L 2053 0 
L 1503 0 
Q 991 0 739 200 
Q 488 400 488 806 
Q 488 878 497 964 
Q 506 1050 525 1153 
L 897 3053 
L 409 3053 
L 500 3500 
L 978 3500 
L 1172 4494 
L 1747 4494 
L 1556 3500 
L 2706 3500 
z
" transform="scale(0.015625)"/>
     </defs>
     <use xlink:href="#DejaVuSans-Oblique-56" transform="translate(0 0.529687)"/>
     <use xlink:href="#DejaVuSans-30" transform="translate(68.408203 -15.876563) scale(0.7)"/>
     <use xlink:href="#DejaVuSans-Oblique-65" transform="translate(131.914387 0.529687)"/>
     <use xlink:href="#DejaVuSans-Oblique-6a" transform="translate(198.087721 38.810937) scale(0.7)"/>
     <use xlink:href="#DejaVuSans-Oblique-3c9" transform="translate(217.535963 38.810937) scale(0.7)"/>
     <use xlink:href="#DejaVuSans-Oblique-74" transform="translate(276.154127 38.810937) scale(0.7)"/>
    </g>
   </g>
   <g id="text_2">
    <!-- R -->
    <g transform="translate(127.864187 62.543125) scale(0.14 -0.14)">
     <defs>
      <path id="DejaVuSans-52" d="M 2841 2188 
Q 3044 2119 3236 1894 
Q 3428 1669 3622 1275 
L 4263 0 
L 3584 0 
L 2988 1197 
Q 2756 1666 2539 1819 
Q 2322 1972 1947 1972 
L 1259 1972 
L 1259 0 
L 628 0 
L 628 4666 
L 2053 4666 
Q 2853 4666 3247 4331 
Q 3641 3997 3641 3322 
Q 3641 2881 3436 2590 
Q 3231 2300 2841 2188 
z
M 1259 4147 
L 1259 2491 
L 2053 2491 
Q 2509 2491 2742 2702 
Q 2975 2913 2975 3322 
Q 2975 3731 2742 3939 
Q 2509 4147 2053 4147 
L 1259 4147 
z
" transform="scale(0.015625)"/>
     </defs>
     <use xlink:href="#DejaVuSans-52"/>
    </g>
   </g>
   <g id="text_3">
    <!-- L -->
    <g transform="translate(174.791375 62.543125) scale(0.14 -0.14)">
     <defs>
      <path id="DejaVuSans-4c" d="M 628 4666 
L 1259 4666 
L 1259 531 
L 3531 531 
L 3531 0 
L 628 0 
L 628 4666 
z
" transform="scale(0.015625)"/>
     </defs>
     <use xlink:href="#DejaVuSans-4c"/>
    </g>
   </g>
   <g id="text_4">
    <!-- C -->
    <g transform="translate(199.816062 62.543125) scale(0.14 -0.14)">
     <defs>
      <path id="DejaVuSans-43" d="M 4122 4306 
L 4122 3641 
Q 3803 3938 3442 4084 
Q 3081 4231 2675 4231 
Q 1875 4231 1450 3742 
Q 1025 3253 1025 2328 
Q 1025 1406 1450 917 
Q 1875 428 2675 428 
Q 3081 428 3442 575 
Q 3803 722 4122 1019 
L 4122 359 
Q 3791 134 3420 21 
Q 3050 -91 2638 -91 
Q 1578 -91 968 557 
Q 359 1206 359 2328 
Q 359 3453 968 4101 
Q 1578 4750 2638 4750 
Q 3056 4750 3426 4639 
Q 3797 4528 4122 4306 
z
" transform="scale(0.015625)"/>
     </defs>
     <use xlink:href="#DejaVuSans-43"/>
    </g>
   </g>
  </g>
 </g>
 <defs>
  <clipPath id="p7c4ffb2bc3">
   <rect x="0" y="-0" width="235.872" height="117.36"/>
  </clipPath>
 </defs>
</svg>
