<?xml version="1.0" encoding="utf-8" standalone="no"?>
<!DOCTYPE svg PUBLIC "-//W3C//DTD SVG 1.1//EN"
  "http://www.w3.org/Graphics/SVG/1.1/DTD/svg11.dtd">
<svg xmlns:xlink="http://www.w3.org/1999/xlink" width="158.244pt" height="158.76pt" viewBox="0 0 158.244 158.76" xmlns="http://www.w3.org/2000/svg" version="1.1">
 <metadata>
  <rdf:RDF xmlns:dc="http://purl.org/dc/elements/1.1/" xmlns:cc="http://creativecommons.org/ns#" xmlns:rdf="http://www.w3.org/1999/02/22-rdf-syntax-ns#">
   <cc:Work>
    <dc:type rdf:resource="http://purl.org/dc/dcmitype/StillImage"/>
    <dc:date>2025-04-13T09:42:55.067727</dc:date>
    <dc:format>image/svg+xml</dc:format>
    <dc:creator>
     <cc:Agent>
      <dc:title>Matplotlib v3.10.1, https://matplotlib.org/</dc:title>
     </cc:Agent>
    </dc:creator>
   </cc:Work>
  </rdf:RDF>
 </metadata>
 <defs>
  <style type="text/css">*{stroke-linejoin: round; stroke-linecap: butt}</style>
 </defs>
 <g id="figure_1">
  <g id="patch_1">
   <path d="M 0 158.76 
L 158.244 158.76 
L 158.244 0 
L 0 0 
L 0 158.76 
z
" style="fill: none"/>
  </g>
  <g id="axes_1">
   <g id="patch_2">
    <path d="M 78.864 133.38 
C 83.637656 133.38 88.216438 131.483406 91.591922 128.107922 
C 94.967406 124.732438 96.864 120.153656 96.864 115.38 
C 96.864 110.606344 94.967406 106.027562 91.591922 102.652078 
C 88.216438 99.276594 83.637656 97.38 78.864 97.38 
C 74.090344 97.38 69.511562 99.276594 66.136078 102.652078 
C 62.760594 106.027562 60.864 110.606344 60.864 115.38 
C 60.864 120.153656 62.760594 124.732438 66.136078 128.107922 
C 69.511562 131.483406 74.090344 133.38 78.864 133.38 
L 78.864 133.38 
z
" clip-path="url(#p355f9e70e6)" style="fill: none; stroke: #000000; stroke-width: 2; stroke-linejoin: miter"/>
   </g>
   <g id="line2d_1">
    <path d="M 78.864 151.38 
L 78.864 133.38 
L 78.864 133.38 
M 78.864 97.38 
L 78.864 97.38 
L 78.864 79.38 
" clip-path="url(#p355f9e70e6)" style="fill: none; stroke: #000000; stroke-width: 2; stroke-linecap: round"/>
   </g>
   <g id="line2d_2">
    <path d="M 82.464 124.38 
L 75.264 124.38 
" clip-path="url(#p355f9e70e6)" style="fill: none; stroke: #000000; stroke-width: 2; stroke-linecap: round"/>
   </g>
   <g id="line2d_3">
    <path d="M 78.864 109.98 
L 78.864 102.78 
" clip-path="url(#p355f9e70e6)" style="fill: none; stroke: #000000; stroke-width: 2; stroke-linecap: round"/>
   </g>
   <g id="line2d_4">
    <path d="M 82.464 106.38 
L 75.264 106.38 
" clip-path="url(#p355f9e70e6)" style="fill: none; stroke: #000000; stroke-width: 2; stroke-linecap: round"/>
   </g>
   <g id="line2d_5">
    <path d="M 78.864 79.38 
L 78.864 61.38 
L 69.864 61.38 
L 69.864 25.38 
L 87.864 25.38 
L 87.864 61.38 
L 78.864 61.38 
M 78.864 25.38 
L 78.864 7.38 
" clip-path="url(#p355f9e70e6)" style="fill: none; stroke: #000000; stroke-width: 2; stroke-linecap: round"/>
   </g>
   <g id="line2d_6">
    <path d="M 78.864 7.38 
L 114.864 7.38 
L 150.864 7.38 
" clip-path="url(#p355f9e70e6)" style="fill: none; stroke: #000000; stroke-width: 2; stroke-linecap: round"/>
   </g>
   <g id="line2d_7">
    <path d="M 78.864 151.38 
L 114.864 151.38 
L 150.864 151.38 
" clip-path="url(#p355f9e70e6)" style="fill: none; stroke: #000000; stroke-width: 2; stroke-linecap: round"/>
   </g>
   <g id="text_1">
    <!-- $U_{\rm Th}$ -->
    <g transform="translate(34.304 119.243125) scale(0.14 -0.14)">
     <defs>
      <path id="DejaVuSans-Oblique-55" d="M 991 4666 
L 1625 4666 
L 1075 1831 
Q 1041 1641 1027 1517 
Q 1013 1394 1013 1300 
Q 1013 869 1253 645 
Q 1494 422 1959 422 
Q 2563 422 2898 753 
Q 3234 1084 3378 1831 
L 3928 4666 
L 4563 4666 
L 4000 1753 
Q 3816 809 3300 359 
Q 2784 -91 1888 -91 
Q 1188 -91 780 261 
Q 372 613 372 1216 
Q 372 1325 387 1461 
Q 403 1597 434 1753 
L 991 4666 
z
" transform="scale(0.015625)"/>
      <path id="DejaVuSans-54" d="M -19 4666 
L 3928 4666 
L 3928 4134 
L 2272 4134 
L 2272 0 
L 1638 0 
L 1638 4134 
L -19 4134 
L -19 4666 
z
" transform="scale(0.015625)"/>
      <path id="DejaVuSans-68" d="M 3513 2113 
L 3513 0 
L 2938 0 
L 2938 2094 
Q 2938 2591 2744 2837 
Q 2550 3084 2163 3084 
Q 1697 3084 1428 2787 
Q 1159 2491 1159 1978 
L 1159 0 
L 581 0 
L 581 4863 
L 1159 4863 
L 1159 2956 
Q 1366 3272 1645 3428 
Q 1925 3584 2291 3584 
Q 2894 3584 3203 3211 
Q 3513 2838 3513 2113 
z
" transform="scale(0.015625)"/>
     </defs>
     <use xlink:href="#DejaVuSans-Oblique-55" transform="translate(0 0.09375)"/>
     <use xlink:href="#DejaVuSans-54" transform="translate(73.193359 -16.3125) scale(0.7)"/>
     <use xlink:href="#DejaVuSans-68" transform="translate(115.952148 -16.3125) scale(0.7)"/>
    </g>
   </g>
   <g id="text_2">
    <!-- $R_{\rm Th}$ -->
    <g transform="translate(43.864 47.243125) scale(0.14 -0.14)">
     <defs>
      <path id="DejaVuSans-Oblique-52" d="M 1613 4147 
L 1294 2491 
L 2106 2491 
Q 2584 2491 2879 2755 
Q 3175 3019 3175 3444 
Q 3175 3784 2976 3965 
Q 2778 4147 2406 4147 
L 1613 4147 
z
M 2772 2241 
Q 2972 2194 3105 2009 
Q 3238 1825 3413 1275 
L 3809 0 
L 3144 0 
L 2778 1197 
Q 2638 1659 2453 1815 
Q 2269 1972 1888 1972 
L 1191 1972 
L 806 0 
L 172 0 
L 1081 4666 
L 2503 4666 
Q 3150 4666 3495 4373 
Q 3841 4081 3841 3531 
Q 3841 3044 3547 2687 
Q 3253 2331 2772 2241 
z
" transform="scale(0.015625)"/>
     </defs>
     <use xlink:href="#DejaVuSans-Oblique-52" transform="translate(0 0.09375)"/>
     <use xlink:href="#DejaVuSans-54" transform="translate(69.482422 -16.3125) scale(0.7)"/>
     <use xlink:href="#DejaVuSans-68" transform="translate(112.241211 -16.3125) scale(0.7)"/>
    </g>
   </g>
   <g id="patch_3">
    <path d="M 150.864 10.08 
C 151.580048 10.08 152.266866 9.795511 152.773188 9.289188 
C 153.279511 8.782866 153.564 8.096048 153.564 7.38 
C 153.564 6.663952 153.279511 5.977134 152.773188 5.470812 
C 152.266866 4.964489 151.580048 4.68 150.864 4.68 
C 150.147952 4.68 149.461134 4.964489 148.954812 5.470812 
C 148.448489 5.977134 148.164 6.663952 148.164 7.38 
C 148.164 8.096048 148.448489 8.782866 148.954812 9.289188 
C 149.461134 9.795511 150.147952 10.08 150.864 10.08 
z
" clip-path="url(#p355f9e70e6)" style="fill: #ffffff; stroke: #000000; stroke-width: 2; stroke-linejoin: miter"/>
   </g>
   <g id="patch_4">
    <path d="M 150.864 154.08 
C 151.580048 154.08 152.266866 153.795511 152.773188 153.289188 
C 153.279511 152.782866 153.564 152.096048 153.564 151.38 
C 153.564 150.663952 153.279511 149.977134 152.773188 149.470812 
C 152.266866 148.964489 151.580048 148.68 150.864 148.68 
C 150.147952 148.68 149.461134 148.964489 148.954812 149.470812 
C 148.448489 149.977134 148.164 150.663952 148.164 151.38 
C 148.164 152.096048 148.448489 152.782866 148.954812 153.289188 
C 149.461134 153.795511 150.147952 154.08 150.864 154.08 
z
" clip-path="url(#p355f9e70e6)" style="fill: #ffffff; stroke: #000000; stroke-width: 2; stroke-linejoin: miter"/>
   </g>
  </g>
 </g>
 <defs>
  <clipPath id="p355f9e70e6">
   <rect x="0" y="-0" width="158.244" height="158.76"/>
  </clipPath>
 </defs>
</svg>
