<?xml version="1.0" encoding="utf-8" standalone="no"?>
<!DOCTYPE svg PUBLIC "-//W3C//DTD SVG 1.1//EN"
  "http://www.w3.org/Graphics/SVG/1.1/DTD/svg11.dtd">
<svg xmlns:xlink="http://www.w3.org/1999/xlink" width="229.572pt" height="164.2pt" viewBox="0 0 229.572 164.2" xmlns="http://www.w3.org/2000/svg" version="1.1">
 <metadata>
  <rdf:RDF xmlns:dc="http://purl.org/dc/elements/1.1/" xmlns:cc="http://creativecommons.org/ns#" xmlns:rdf="http://www.w3.org/1999/02/22-rdf-syntax-ns#">
   <cc:Work>
    <dc:type rdf:resource="http://purl.org/dc/dcmitype/StillImage"/>
    <dc:date>2025-04-13T09:42:59.366102</dc:date>
    <dc:format>image/svg+xml</dc:format>
    <dc:creator>
     <cc:Agent>
      <dc:title>Matplotlib v3.10.1, https://matplotlib.org/</dc:title>
     </cc:Agent>
    </dc:creator>
   </cc:Work>
  </rdf:RDF>
 </metadata>
 <defs>
  <style type="text/css">*{stroke-linejoin: round; stroke-linecap: butt}</style>
 </defs>
 <g id="figure_1">
  <g id="patch_1">
   <path d="M 0 164.2 
L 229.572 164.2 
L 229.572 0 
L 0 0 
z
" style="fill: #ffffff"/>
  </g>
  <g id="axes_1">
   <g id="patch_2">
    <path d="M 78.192 100.48 
C 82.965656 100.48 87.544438 98.583406 90.919922 95.207922 
C 94.295406 91.832438 96.192 87.253656 96.192 82.48 
C 96.192 77.706344 94.295406 73.127562 90.919922 69.752078 
C 87.544438 66.376594 82.965656 64.48 78.192 64.48 
C 73.418344 64.48 68.839562 66.376594 65.464078 69.752078 
C 62.088594 73.127562 60.192 77.706344 60.192 82.48 
C 60.192 87.253656 62.088594 91.832438 65.464078 95.207922 
C 68.839562 98.583406 73.418344 100.48 78.192 100.48 
L 78.192 100.48 
z
" clip-path="url(#p3fc79d498f)" style="fill: none; stroke: #000000; stroke-width: 2; stroke-linejoin: miter"/>
   </g>
   <g id="line2d_1">
    <path d="M 78.192 136.48 
L 78.192 100.48 
L 78.192 100.48 
M 78.192 64.48 
L 78.192 64.48 
L 78.192 28.48 
" clip-path="url(#p3fc79d498f)" style="fill: none; stroke: #000000; stroke-width: 2; stroke-linecap: round"/>
   </g>
   <g id="line2d_2">
    <path d="M 87.192 82.48 
L 86.442 80.616503 
L 85.692 78.88 
L 84.942 77.388831 
L 84.192 76.244617 
L 83.442 75.525334 
L 82.692 75.28 
L 81.942 75.525334 
L 81.192 76.244617 
L 80.442 77.388831 
L 79.692 78.88 
L 78.942 80.616503 
L 78.192 82.48 
L 77.442 84.343497 
L 76.692 86.08 
L 75.942 87.571169 
L 75.192 88.715383 
L 74.442 89.434666 
L 73.692 89.68 
L 72.942 89.434666 
L 72.192 88.715383 
L 71.442 87.571169 
L 70.692 86.08 
L 69.942 84.343497 
L 69.192 82.48 
" clip-path="url(#p3fc79d498f)" style="fill: none; stroke: #000000; stroke-width: 2; stroke-linecap: round"/>
   </g>
   <g id="line2d_3">
    <path d="M 78.192 28.48 
L 114.192 28.48 
L 114.192 19.48 
L 150.192 19.48 
L 150.192 37.48 
L 114.192 37.48 
L 114.192 28.48 
M 150.192 28.48 
L 186.192 28.48 
" clip-path="url(#p3fc79d498f)" style="fill: none; stroke: #000000; stroke-width: 2; stroke-linecap: round"/>
   </g>
   <g id="line2d_4">
    <path d="M 186.192 28.48 
L 186.192 79.24 
M 195.192 79.24 
L 177.192 79.24 
M 195.192 85.72 
L 177.192 85.72 
M 186.192 85.72 
L 186.192 136.48 
" clip-path="url(#p3fc79d498f)" style="fill: none; stroke: #000000; stroke-width: 2; stroke-linecap: round"/>
   </g>
   <g id="line2d_5">
    <path d="M 186.192 136.48 
L 132.192 136.48 
L 78.192 136.48 
" clip-path="url(#p3fc79d498f)" style="fill: none; stroke: #000000; stroke-width: 2; stroke-linecap: round"/>
   </g>
   <g id="line2d_6">
    <path d="M 78.192 136.48 
L 78.192 150.88 
L 69.192 150.88 
L 87.192 150.88 
M 71.892 155.2 
L 84.492 155.2 
M 76.392 159.52 
L 79.992 159.52 
" clip-path="url(#p3fc79d498f)" style="fill: none; stroke: #000000; stroke-width: 2; stroke-linecap: round"/>
   </g>
   <g id="line2d_7">
    <path d="M 186.192 28.48 
L 204.192 28.48 
L 222.192 28.48 
" clip-path="url(#p3fc79d498f)" style="fill: none; stroke: #000000; stroke-width: 2; stroke-linecap: round"/>
   </g>
   <g id="line2d_8">
    <path d="M 186.192 136.48 
L 204.192 136.48 
L 222.192 136.48 
" clip-path="url(#p3fc79d498f)" style="fill: none; stroke: #000000; stroke-width: 2; stroke-linecap: round"/>
   </g>
   <g id="text_1">
    <!-- $V_0\,e^{j\omega t}$ -->
    <g transform="translate(13.612 87.268438) scale(0.14 -0.14)">
     <defs>
      <path id="DejaVuSans-Oblique-56" d="M 1319 0 
L 500 4666 
L 1119 4666 
L 1797 653 
L 4063 4666 
L 4750 4666 
L 2053 0 
L 1319 0 
z
" transform="scale(0.015625)"/>
      <path id="DejaVuSans-30" d="M 2034 4250 
Q 1547 4250 1301 3770 
Q 1056 3291 1056 2328 
Q 1056 1369 1301 889 
Q 1547 409 2034 409 
Q 2525 409 2770 889 
Q 3016 1369 3016 2328 
Q 3016 3291 2770 3770 
Q 2525 4250 2034 4250 
z
M 2034 4750 
Q 2819 4750 3233 4129 
Q 3647 3509 3647 2328 
Q 3647 1150 3233 529 
Q 2819 -91 2034 -91 
Q 1250 -91 836 529 
Q 422 1150 422 2328 
Q 422 3509 836 4129 
Q 1250 4750 2034 4750 
z
" transform="scale(0.015625)"/>
      <path id="DejaVuSans-Oblique-65" d="M 3078 2063 
Q 3088 2113 3092 2166 
Q 3097 2219 3097 2272 
Q 3097 2653 2873 2875 
Q 2650 3097 2266 3097 
Q 1838 3097 1509 2826 
Q 1181 2556 1013 2059 
L 3078 2063 
z
M 3578 1613 
L 903 1613 
Q 884 1494 878 1425 
Q 872 1356 872 1306 
Q 872 872 1139 634 
Q 1406 397 1894 397 
Q 2269 397 2603 481 
Q 2938 566 3225 728 
L 3116 159 
Q 2806 34 2476 -28 
Q 2147 -91 1806 -91 
Q 1078 -91 686 257 
Q 294 606 294 1247 
Q 294 1794 489 2264 
Q 684 2734 1063 3103 
Q 1306 3334 1642 3459 
Q 1978 3584 2356 3584 
Q 2950 3584 3301 3228 
Q 3653 2872 3653 2272 
Q 3653 2128 3634 1964 
Q 3616 1800 3578 1613 
z
" transform="scale(0.015625)"/>
      <path id="DejaVuSans-Oblique-6a" d="M 928 3500 
L 1503 3500 
L 813 -63 
L 809 -78 
Q 694 -675 544 -897 
Q 403 -1106 132 -1218 
Q -138 -1331 -506 -1331 
L -722 -1331 
L -628 -844 
L -481 -844 
Q -144 -844 -1 -703 
Q 141 -563 238 -63 
L 928 3500 
z
M 1197 4863 
L 1772 4863 
L 1631 4134 
L 1056 4134 
L 1197 4863 
z
" transform="scale(0.015625)"/>
      <path id="DejaVuSans-Oblique-3c9" d="M 1369 -91 
Q 72 -91 434 1766 
Q 575 2500 1256 3500 
L 1875 3500 
Q 1231 2500 1088 1750 
Q 819 397 1519 397 
Q 2166 397 2478 2078 
L 3009 2078 
Q 2669 388 3316 397 
Q 4013 403 4275 1750 
Q 4419 2500 4169 3500 
L 4788 3500 
Q 5075 2500 4934 1766 
Q 4578 -94 3278 -91 
Q 2428 -88 2503 844 
Q 2194 -91 1369 -91 
z
" transform="scale(0.015625)"/>
      <path id="DejaVuSans-Oblique-74" d="M 2706 3500 
L 2619 3053 
L 1472 3053 
L 1100 1153 
Q 1081 1047 1072 975 
Q 1063 903 1063 863 
Q 1063 663 1183 572 
Q 1303 481 1569 481 
L 2150 481 
L 2053 0 
L 1503 0 
Q 991 0 739 200 
Q 488 400 488 806 
Q 488 878 497 964 
Q 506 1050 525 1153 
L 897 3053 
L 409 3053 
L 500 3500 
L 978 3500 
L 1172 4494 
L 1747 4494 
L 1556 3500 
L 2706 3500 
z
" transform="scale(0.015625)"/>
     </defs>
     <use xlink:href="#DejaVuSans-Oblique-56" transform="translate(0 0.529687)"/>
     <use xlink:href="#DejaVuSans-30" transform="translate(68.408203 -15.876563) scale(0.7)"/>
     <use xlink:href="#DejaVuSans-Oblique-65" transform="translate(131.914387 0.529687)"/>
     <use xlink:href="#DejaVuSans-Oblique-6a" transform="translate(198.087721 38.810937) scale(0.7)"/>
     <use xlink:href="#DejaVuSans-Oblique-3c9" transform="translate(217.535963 38.810937) scale(0.7)"/>
     <use xlink:href="#DejaVuSans-Oblique-74" transform="translate(276.154127 38.810937) scale(0.7)"/>
    </g>
   </g>
   <g id="text_2">
    <!-- R -->
    <g transform="translate(127.328094 12.968437) scale(0.14 -0.14)">
     <defs>
      <path id="DejaVuSans-52" d="M 2841 2188 
Q 3044 2119 3236 1894 
Q 3428 1669 3622 1275 
L 4263 0 
L 3584 0 
L 2988 1197 
Q 2756 1666 2539 1819 
Q 2322 1972 1947 1972 
L 1259 1972 
L 1259 0 
L 628 0 
L 628 4666 
L 2053 4666 
Q 2853 4666 3247 4331 
Q 3641 3997 3641 3322 
Q 3641 2881 3436 2590 
Q 3231 2300 2841 2188 
z
M 1259 4147 
L 1259 2491 
L 2053 2491 
Q 2509 2491 2742 2702 
Q 2975 2913 2975 3322 
Q 2975 3731 2742 3939 
Q 2509 4147 2053 4147 
L 1259 4147 
z
" transform="scale(0.015625)"/>
     </defs>
     <use xlink:href="#DejaVuSans-52"/>
    </g>
   </g>
   <g id="text_3">
    <!-- C -->
    <g transform="translate(163.816062 86.343125) scale(0.14 -0.14)">
     <defs>
      <path id="DejaVuSans-43" d="M 4122 4306 
L 4122 3641 
Q 3803 3938 3442 4084 
Q 3081 4231 2675 4231 
Q 1875 4231 1450 3742 
Q 1025 3253 1025 2328 
Q 1025 1406 1450 917 
Q 1875 428 2675 428 
Q 3081 428 3442 575 
Q 3803 722 4122 1019 
L 4122 359 
Q 3791 134 3420 21 
Q 3050 -91 2638 -91 
Q 1578 -91 968 557 
Q 359 1206 359 2328 
Q 359 3453 968 4101 
Q 1578 4750 2638 4750 
Q 3056 4750 3426 4639 
Q 3797 4528 4122 4306 
z
" transform="scale(0.015625)"/>
     </defs>
     <use xlink:href="#DejaVuSans-43"/>
    </g>
   </g>
   <g id="patch_3">
    <path d="M 222.192 31.18 
C 222.908048 31.18 223.594866 30.895511 224.101188 30.389188 
C 224.607511 29.882866 224.892 29.196048 224.892 28.48 
C 224.892 27.763952 224.607511 27.077134 224.101188 26.570812 
C 223.594866 26.064489 222.908048 25.78 222.192 25.78 
C 221.475952 25.78 220.789134 26.064489 220.282812 26.570812 
C 219.776489 27.077134 219.492 27.763952 219.492 28.48 
C 219.492 29.196048 219.776489 29.882866 220.282812 30.389188 
C 220.789134 30.895511 221.475952 31.18 222.192 31.18 
z
" clip-path="url(#p3fc79d498f)" style="fill: #ffffff; stroke: #000000; stroke-width: 2; stroke-linejoin: miter"/>
   </g>
   <g id="text_4">
    <!-- A -->
    <g transform="translate(200.753562 19.268438) scale(0.14 -0.14)">
     <defs>
      <path id="DejaVuSans-41" d="M 2188 4044 
L 1331 1722 
L 3047 1722 
L 2188 4044 
z
M 1831 4666 
L 2547 4666 
L 4325 0 
L 3669 0 
L 3244 1197 
L 1141 1197 
L 716 0 
L 50 0 
L 1831 4666 
z
" transform="scale(0.015625)"/>
     </defs>
     <use xlink:href="#DejaVuSans-41"/>
    </g>
   </g>
   <g id="patch_4">
    <path d="M 222.192 139.18 
C 222.908048 139.18 223.594866 138.895511 224.101188 138.389188 
C 224.607511 137.882866 224.892 137.196048 224.892 136.48 
C 224.892 135.763952 224.607511 135.077134 224.101188 134.570812 
C 223.594866 134.064489 222.908048 133.78 222.192 133.78 
C 221.475952 133.78 220.789134 134.064489 220.282812 134.570812 
C 219.776489 135.077134 219.492 135.763952 219.492 136.48 
C 219.492 137.196048 219.776489 137.882866 220.282812 138.389188 
C 220.789134 138.895511 221.475952 139.18 222.192 139.18 
z
" clip-path="url(#p3fc79d498f)" style="fill: #ffffff; stroke: #000000; stroke-width: 2; stroke-linejoin: miter"/>
   </g>
   <g id="text_5">
    <!-- B -->
    <g transform="translate(200.739344 127.268438) scale(0.14 -0.14)">
     <defs>
      <path id="DejaVuSans-42" d="M 1259 2228 
L 1259 519 
L 2272 519 
Q 2781 519 3026 730 
Q 3272 941 3272 1375 
Q 3272 1813 3026 2020 
Q 2781 2228 2272 2228 
L 1259 2228 
z
M 1259 4147 
L 1259 2741 
L 2194 2741 
Q 2656 2741 2882 2914 
Q 3109 3088 3109 3444 
Q 3109 3797 2882 3972 
Q 2656 4147 2194 4147 
L 1259 4147 
z
M 628 4666 
L 2241 4666 
Q 2963 4666 3353 4366 
Q 3744 4066 3744 3513 
Q 3744 3084 3544 2831 
Q 3344 2578 2956 2516 
Q 3422 2416 3680 2098 
Q 3938 1781 3938 1306 
Q 3938 681 3513 340 
Q 3088 0 2303 0 
L 628 0 
L 628 4666 
z
" transform="scale(0.015625)"/>
     </defs>
     <use xlink:href="#DejaVuSans-42"/>
    </g>
   </g>
  </g>
 </g>
 <defs>
  <clipPath id="p3fc79d498f">
   <rect x="0" y="0" width="229.572" height="164.2"/>
  </clipPath>
 </defs>
</svg>
