<?xml version="1.0" encoding="utf-8" standalone="no"?>
<!DOCTYPE svg PUBLIC "-//W3C//DTD SVG 1.1//EN"
  "http://www.w3.org/Graphics/SVG/1.1/DTD/svg11.dtd">
<svg xmlns:xlink="http://www.w3.org/1999/xlink" width="181.5pt" height="107.86pt" viewBox="0 0 181.5 107.86" xmlns="http://www.w3.org/2000/svg" version="1.1">
 <metadata>
  <rdf:RDF xmlns:dc="http://purl.org/dc/elements/1.1/" xmlns:cc="http://creativecommons.org/ns#" xmlns:rdf="http://www.w3.org/1999/02/22-rdf-syntax-ns#">
   <cc:Work>
    <dc:type rdf:resource="http://purl.org/dc/dcmitype/StillImage"/>
    <dc:date>2025-04-13T09:43:00.734023</dc:date>
    <dc:format>image/svg+xml</dc:format>
    <dc:creator>
     <cc:Agent>
      <dc:title>Matplotlib v3.10.1, https://matplotlib.org/</dc:title>
     </cc:Agent>
    </dc:creator>
   </cc:Work>
  </rdf:RDF>
 </metadata>
 <defs>
  <style type="text/css">*{stroke-linejoin: round; stroke-linecap: butt}</style>
 </defs>
 <g id="figure_1">
  <g id="patch_1">
   <path d="M 0 107.86 
L 181.5 107.86 
L 181.5 0 
L 0 0 
z
" style="fill: #ffffff"/>
  </g>
  <g id="axes_1">
   <g id="line2d_1">
    <path d="M 16.482 28.48 
L 52.482 28.48 
L 52.482 19.48 
L 88.482 19.48 
L 88.482 37.48 
L 52.482 37.48 
L 52.482 28.48 
M 88.482 28.48 
L 124.482 28.48 
" clip-path="url(#p9c04717f93)" style="fill: none; stroke: #000000; stroke-width: 2; stroke-linecap: round"/>
   </g>
   <g id="line2d_2">
    <path d="M 124.482 28.48 
L 124.482 61.24 
M 133.482 61.24 
L 115.482 61.24 
M 133.482 67.72 
L 115.482 67.72 
M 124.482 67.72 
L 124.482 100.48 
" clip-path="url(#p9c04717f93)" style="fill: none; stroke: #000000; stroke-width: 2; stroke-linecap: round"/>
   </g>
   <g id="line2d_3">
    <path d="M 124.482 28.48 
L 142.482 28.48 
L 160.482 28.48 
" clip-path="url(#p9c04717f93)" style="fill: none; stroke: #000000; stroke-width: 2; stroke-linecap: round"/>
   </g>
   <g id="line2d_4">
    <path d="M 160.482 100.48 
L 142.482 100.48 
L 124.482 100.48 
" clip-path="url(#p9c04717f93)" style="fill: none; stroke: #000000; stroke-width: 2; stroke-linecap: round"/>
   </g>
   <g id="line2d_5">
    <path d="M 124.482 100.48 
L 70.482 100.48 
L 16.482 100.48 
" clip-path="url(#p9c04717f93)" style="fill: none; stroke: #000000; stroke-width: 2; stroke-linecap: round"/>
   </g>
   <g id="text_1">
    <!-- $V_{in}$ -->
    <g transform="translate(7.032 68.343125) scale(0.14 -0.14)">
     <defs>
      <path id="DejaVuSans-Oblique-56" d="M 1319 0 
L 500 4666 
L 1119 4666 
L 1797 653 
L 4063 4666 
L 4750 4666 
L 2053 0 
L 1319 0 
z
" transform="scale(0.015625)"/>
      <path id="DejaVuSans-Oblique-69" d="M 1172 4863 
L 1747 4863 
L 1606 4134 
L 1031 4134 
L 1172 4863 
z
M 909 3500 
L 1484 3500 
L 800 0 
L 225 0 
L 909 3500 
z
" transform="scale(0.015625)"/>
      <path id="DejaVuSans-Oblique-6e" d="M 3566 2113 
L 3156 0 
L 2578 0 
L 2988 2091 
Q 3016 2238 3031 2350 
Q 3047 2463 3047 2528 
Q 3047 2791 2881 2937 
Q 2716 3084 2419 3084 
Q 1956 3084 1622 2776 
Q 1288 2469 1184 1941 
L 800 0 
L 225 0 
L 903 3500 
L 1478 3500 
L 1363 2950 
Q 1603 3253 1940 3418 
Q 2278 3584 2650 3584 
Q 3113 3584 3367 3334 
Q 3622 3084 3622 2631 
Q 3622 2519 3608 2391 
Q 3594 2263 3566 2113 
z
" transform="scale(0.015625)"/>
     </defs>
     <use xlink:href="#DejaVuSans-Oblique-56" transform="translate(0 0.09375)"/>
     <use xlink:href="#DejaVuSans-Oblique-69" transform="translate(68.408203 -16.3125) scale(0.7)"/>
     <use xlink:href="#DejaVuSans-Oblique-6e" transform="translate(87.856445 -16.3125) scale(0.7)"/>
    </g>
   </g>
   <g id="patch_2">
    <path d="M 124.482 31.18 
C 125.198048 31.18 125.884866 30.895511 126.391188 30.389188 
C 126.897511 29.882866 127.182 29.196048 127.182 28.48 
C 127.182 27.763952 126.897511 27.077134 126.391188 26.570812 
C 125.884866 26.064489 125.198048 25.78 124.482 25.78 
C 123.765952 25.78 123.079134 26.064489 122.572812 26.570812 
C 122.066489 27.077134 121.782 27.763952 121.782 28.48 
C 121.782 29.196048 122.066489 29.882866 122.572812 30.389188 
C 123.079134 30.895511 123.765952 31.18 124.482 31.18 
z
" clip-path="url(#p9c04717f93)" style="stroke: #000000; stroke-width: 2; stroke-linejoin: miter"/>
   </g>
   <g id="patch_3">
    <path d="M 16.482 31.18 
C 17.198048 31.18 17.884866 30.895511 18.391188 30.389188 
C 18.897511 29.882866 19.182 29.196048 19.182 28.48 
C 19.182 27.763952 18.897511 27.077134 18.391188 26.570812 
C 17.884866 26.064489 17.198048 25.78 16.482 25.78 
C 15.765952 25.78 15.079134 26.064489 14.572812 26.570812 
C 14.066489 27.077134 13.782 27.763952 13.782 28.48 
C 13.782 29.196048 14.066489 29.882866 14.572812 30.389188 
C 15.079134 30.895511 15.765952 31.18 16.482 31.18 
z
" clip-path="url(#p9c04717f93)" style="fill: #ffffff; stroke: #000000; stroke-width: 2; stroke-linejoin: miter"/>
   </g>
   <g id="text_2">
    <!-- $R$ -->
    <g transform="translate(65.582 12.968438) scale(0.14 -0.14)">
     <defs>
      <path id="DejaVuSans-Oblique-52" d="M 1613 4147 
L 1294 2491 
L 2106 2491 
Q 2584 2491 2879 2755 
Q 3175 3019 3175 3444 
Q 3175 3784 2976 3965 
Q 2778 4147 2406 4147 
L 1613 4147 
z
M 2772 2241 
Q 2972 2194 3105 2009 
Q 3238 1825 3413 1275 
L 3809 0 
L 3144 0 
L 2778 1197 
Q 2638 1659 2453 1815 
Q 2269 1972 1888 1972 
L 1191 1972 
L 806 0 
L 172 0 
L 1081 4666 
L 2503 4666 
Q 3150 4666 3495 4373 
Q 3841 4081 3841 3531 
Q 3841 3044 3547 2687 
Q 3253 2331 2772 2241 
z
" transform="scale(0.015625)"/>
     </defs>
     <use xlink:href="#DejaVuSans-Oblique-52" transform="translate(0 0.09375)"/>
    </g>
   </g>
   <g id="text_3">
    <!-- $C$ -->
    <g transform="translate(102.082 68.343125) scale(0.14 -0.14)">
     <defs>
      <path id="DejaVuSans-Oblique-43" d="M 4447 4306 
L 4319 3641 
Q 4019 3944 3683 4091 
Q 3347 4238 2956 4238 
Q 2422 4238 2017 3981 
Q 1613 3725 1319 3200 
Q 1131 2863 1032 2486 
Q 934 2109 934 1728 
Q 934 1091 1264 756 
Q 1594 422 2222 422 
Q 2656 422 3056 561 
Q 3456 700 3834 978 
L 3688 231 
Q 3316 72 2936 -9 
Q 2556 -91 2175 -91 
Q 1278 -91 773 396 
Q 269 884 269 1753 
Q 269 2309 461 2846 
Q 653 3384 1013 3828 
Q 1394 4300 1883 4525 
Q 2372 4750 3022 4750 
Q 3422 4750 3780 4639 
Q 4138 4528 4447 4306 
z
" transform="scale(0.015625)"/>
     </defs>
     <use xlink:href="#DejaVuSans-Oblique-43" transform="translate(0 0.78125)"/>
    </g>
   </g>
   <g id="patch_4">
    <path d="M 160.482 31.18 
C 161.198048 31.18 161.884866 30.895511 162.391188 30.389188 
C 162.897511 29.882866 163.182 29.196048 163.182 28.48 
C 163.182 27.763952 162.897511 27.077134 162.391188 26.570812 
C 161.884866 26.064489 161.198048 25.78 160.482 25.78 
C 159.765952 25.78 159.079134 26.064489 158.572812 26.570812 
C 158.066489 27.077134 157.782 27.763952 157.782 28.48 
C 157.782 29.196048 158.066489 29.882866 158.572812 30.389188 
C 159.079134 30.895511 159.765952 31.18 160.482 31.18 
z
" clip-path="url(#p9c04717f93)" style="fill: #ffffff; stroke: #000000; stroke-width: 2; stroke-linejoin: miter"/>
   </g>
   <g id="text_4">
    <!-- $V_{out}$ -->
    <g transform="translate(147.462 68.343125) scale(0.14 -0.14)">
     <defs>
      <path id="DejaVuSans-Oblique-6f" d="M 1625 -91 
Q 1009 -91 651 289 
Q 294 669 294 1325 
Q 294 1706 417 2101 
Q 541 2497 738 2766 
Q 1047 3184 1428 3384 
Q 1809 3584 2291 3584 
Q 2888 3584 3255 3212 
Q 3622 2841 3622 2241 
Q 3622 1825 3500 1412 
Q 3378 1000 3181 728 
Q 2875 309 2494 109 
Q 2113 -91 1625 -91 
z
M 891 1344 
Q 891 869 1089 633 
Q 1288 397 1691 397 
Q 2269 397 2648 901 
Q 3028 1406 3028 2181 
Q 3028 2634 2825 2865 
Q 2622 3097 2228 3097 
Q 1903 3097 1650 2945 
Q 1397 2794 1197 2484 
Q 1050 2253 970 1956 
Q 891 1659 891 1344 
z
" transform="scale(0.015625)"/>
      <path id="DejaVuSans-Oblique-75" d="M 428 1388 
L 838 3500 
L 1416 3500 
L 1006 1409 
Q 975 1256 961 1147 
Q 947 1038 947 966 
Q 947 700 1109 554 
Q 1272 409 1569 409 
Q 2031 409 2368 721 
Q 2706 1034 2809 1563 
L 3194 3500 
L 3769 3500 
L 3091 0 
L 2516 0 
L 2631 550 
Q 2388 244 2052 76 
Q 1716 -91 1338 -91 
Q 878 -91 622 161 
Q 366 413 366 863 
Q 366 956 381 1097 
Q 397 1238 428 1388 
z
" transform="scale(0.015625)"/>
      <path id="DejaVuSans-Oblique-74" d="M 2706 3500 
L 2619 3053 
L 1472 3053 
L 1100 1153 
Q 1081 1047 1072 975 
Q 1063 903 1063 863 
Q 1063 663 1183 572 
Q 1303 481 1569 481 
L 2150 481 
L 2053 0 
L 1503 0 
Q 991 0 739 200 
Q 488 400 488 806 
Q 488 878 497 964 
Q 506 1050 525 1153 
L 897 3053 
L 409 3053 
L 500 3500 
L 978 3500 
L 1172 4494 
L 1747 4494 
L 1556 3500 
L 2706 3500 
z
" transform="scale(0.015625)"/>
     </defs>
     <use xlink:href="#DejaVuSans-Oblique-56" transform="translate(0 0.09375)"/>
     <use xlink:href="#DejaVuSans-Oblique-6f" transform="translate(68.408203 -16.3125) scale(0.7)"/>
     <use xlink:href="#DejaVuSans-Oblique-75" transform="translate(111.235352 -16.3125) scale(0.7)"/>
     <use xlink:href="#DejaVuSans-Oblique-74" transform="translate(155.600586 -16.3125) scale(0.7)"/>
    </g>
   </g>
   <g id="patch_5">
    <path d="M 124.482 103.18 
C 125.198048 103.18 125.884866 102.895511 126.391188 102.389188 
C 126.897511 101.882866 127.182 101.196048 127.182 100.48 
C 127.182 99.763952 126.897511 99.077134 126.391188 98.570812 
C 125.884866 98.064489 125.198048 97.78 124.482 97.78 
C 123.765952 97.78 123.079134 98.064489 122.572812 98.570812 
C 122.066489 99.077134 121.782 99.763952 121.782 100.48 
C 121.782 101.196048 122.066489 101.882866 122.572812 102.389188 
C 123.079134 102.895511 123.765952 103.18 124.482 103.18 
z
" clip-path="url(#p9c04717f93)" style="stroke: #000000; stroke-width: 2; stroke-linejoin: miter"/>
   </g>
   <g id="patch_6">
    <path d="M 160.482 103.18 
C 161.198048 103.18 161.884866 102.895511 162.391188 102.389188 
C 162.897511 101.882866 163.182 101.196048 163.182 100.48 
C 163.182 99.763952 162.897511 99.077134 162.391188 98.570812 
C 161.884866 98.064489 161.198048 97.78 160.482 97.78 
C 159.765952 97.78 159.079134 98.064489 158.572812 98.570812 
C 158.066489 99.077134 157.782 99.763952 157.782 100.48 
C 157.782 101.196048 158.066489 101.882866 158.572812 102.389188 
C 159.079134 102.895511 159.765952 103.18 160.482 103.18 
z
" clip-path="url(#p9c04717f93)" style="fill: #ffffff; stroke: #000000; stroke-width: 2; stroke-linejoin: miter"/>
   </g>
   <g id="patch_7">
    <path d="M 16.482 103.18 
C 17.198048 103.18 17.884866 102.895511 18.391188 102.389188 
C 18.897511 101.882866 19.182 101.196048 19.182 100.48 
C 19.182 99.763952 18.897511 99.077134 18.391188 98.570812 
C 17.884866 98.064489 17.198048 97.78 16.482 97.78 
C 15.765952 97.78 15.079134 98.064489 14.572812 98.570812 
C 14.066489 99.077134 13.782 99.763952 13.782 100.48 
C 13.782 101.196048 14.066489 101.882866 14.572812 102.389188 
C 15.079134 102.895511 15.765952 103.18 16.482 103.18 
z
" clip-path="url(#p9c04717f93)" style="fill: #ffffff; stroke: #000000; stroke-width: 2; stroke-linejoin: miter"/>
   </g>
  </g>
 </g>
 <defs>
  <clipPath id="p9c04717f93">
   <rect x="0" y="0" width="181.5" height="107.86"/>
  </clipPath>
 </defs>
</svg>
