<?xml version="1.0" encoding="utf-8" standalone="no"?>
<!DOCTYPE svg PUBLIC "-//W3C//DTD SVG 1.1//EN"
  "http://www.w3.org/Graphics/SVG/1.1/DTD/svg11.dtd">
<svg xmlns:xlink="http://www.w3.org/1999/xlink" width="199.5pt" height="143.86pt" viewBox="0 0 199.5 143.86" xmlns="http://www.w3.org/2000/svg" version="1.1">
 <metadata>
  <rdf:RDF xmlns:dc="http://purl.org/dc/elements/1.1/" xmlns:cc="http://creativecommons.org/ns#" xmlns:rdf="http://www.w3.org/1999/02/22-rdf-syntax-ns#">
   <cc:Work>
    <dc:type rdf:resource="http://purl.org/dc/dcmitype/StillImage"/>
    <dc:date>2025-04-13T09:43:01.630491</dc:date>
    <dc:format>image/svg+xml</dc:format>
    <dc:creator>
     <cc:Agent>
      <dc:title>Matplotlib v3.10.1, https://matplotlib.org/</dc:title>
     </cc:Agent>
    </dc:creator>
   </cc:Work>
  </rdf:RDF>
 </metadata>
 <defs>
  <style type="text/css">*{stroke-linejoin: round; stroke-linecap: butt}</style>
 </defs>
 <g id="figure_1">
  <g id="patch_1">
   <path d="M 0 143.86 
L 199.5 143.86 
L 199.5 0 
L 0 0 
z
" style="fill: #ffffff"/>
  </g>
  <g id="axes_1">
   <g id="patch_2">
    <path d="M 124.482 100.48 
C 125.675016 100.48 126.82039 100.005571 127.663981 99.161981 
C 128.507571 98.31839 128.982 97.173016 128.982 95.98 
C 128.982 94.786984 128.507571 93.64161 127.663981 92.798019 
C 126.82039 91.954429 125.675016 91.48 124.482 91.48 
" clip-path="url(#p02da2e37bc)" style="fill: none; stroke: #000000; stroke-width: 2; stroke-linejoin: miter"/>
   </g>
   <g id="patch_3">
    <path d="M 124.482 109.48 
C 125.675016 109.48 126.82039 109.005571 127.663981 108.161981 
C 128.507571 107.31839 128.982 106.173016 128.982 104.98 
C 128.982 103.786984 128.507571 102.64161 127.663981 101.798019 
C 126.82039 100.954429 125.675016 100.48 124.482 100.48 
" clip-path="url(#p02da2e37bc)" style="fill: none; stroke: #000000; stroke-width: 2; stroke-linejoin: miter"/>
   </g>
   <g id="patch_4">
    <path d="M 124.482 118.48 
C 125.675016 118.48 126.82039 118.005571 127.663981 117.161981 
C 128.507571 116.31839 128.982 115.173016 128.982 113.98 
C 128.982 112.786984 128.507571 111.64161 127.663981 110.798019 
C 126.82039 109.954429 125.675016 109.48 124.482 109.48 
" clip-path="url(#p02da2e37bc)" style="fill: none; stroke: #000000; stroke-width: 2; stroke-linejoin: miter"/>
   </g>
   <g id="patch_5">
    <path d="M 124.482 127.48 
C 125.675016 127.48 126.82039 127.005571 127.663981 126.161981 
C 128.507571 125.31839 128.982 124.173016 128.982 122.98 
C 128.982 121.786984 128.507571 120.64161 127.663981 119.798019 
C 126.82039 118.954429 125.675016 118.48 124.482 118.48 
" clip-path="url(#p02da2e37bc)" style="fill: none; stroke: #000000; stroke-width: 2; stroke-linejoin: miter"/>
   </g>
   <g id="line2d_1">
    <path d="M 16.482 28.48 
L 52.482 28.48 
L 52.482 19.48 
L 88.482 19.48 
L 88.482 37.48 
L 52.482 37.48 
L 52.482 28.48 
M 88.482 28.48 
L 124.482 28.48 
" clip-path="url(#p02da2e37bc)" style="fill: none; stroke: #000000; stroke-width: 2; stroke-linecap: round"/>
   </g>
   <g id="line2d_2">
    <path d="M 124.482 28.48 
L 124.482 52.24 
M 133.482 52.24 
L 115.482 52.24 
M 133.482 58.72 
L 115.482 58.72 
M 124.482 58.72 
L 124.482 82.48 
" clip-path="url(#p02da2e37bc)" style="fill: none; stroke: #000000; stroke-width: 2; stroke-linecap: round"/>
   </g>
   <g id="line2d_3">
    <path d="M 124.482 82.48 
L 124.482 91.48 
M 124.482 127.48 
L 124.482 136.48 
" clip-path="url(#p02da2e37bc)" style="fill: none; stroke: #000000; stroke-width: 2; stroke-linecap: round"/>
   </g>
   <g id="line2d_4">
    <path d="M 124.482 28.48 
L 151.482 28.48 
L 178.482 28.48 
" clip-path="url(#p02da2e37bc)" style="fill: none; stroke: #000000; stroke-width: 2; stroke-linecap: round"/>
   </g>
   <g id="line2d_5">
    <path d="M 16.482 136.48 
L 97.482 136.48 
L 178.482 136.48 
" clip-path="url(#p02da2e37bc)" style="fill: none; stroke: #000000; stroke-width: 2; stroke-linecap: round"/>
   </g>
   <g id="text_1">
    <!-- $V_{in}$ -->
    <g transform="translate(7.032 86.343125) scale(0.14 -0.14)">
     <defs>
      <path id="DejaVuSans-Oblique-56" d="M 1319 0 
L 500 4666 
L 1119 4666 
L 1797 653 
L 4063 4666 
L 4750 4666 
L 2053 0 
L 1319 0 
z
" transform="scale(0.015625)"/>
      <path id="DejaVuSans-Oblique-69" d="M 1172 4863 
L 1747 4863 
L 1606 4134 
L 1031 4134 
L 1172 4863 
z
M 909 3500 
L 1484 3500 
L 800 0 
L 225 0 
L 909 3500 
z
" transform="scale(0.015625)"/>
      <path id="DejaVuSans-Oblique-6e" d="M 3566 2113 
L 3156 0 
L 2578 0 
L 2988 2091 
Q 3016 2238 3031 2350 
Q 3047 2463 3047 2528 
Q 3047 2791 2881 2937 
Q 2716 3084 2419 3084 
Q 1956 3084 1622 2776 
Q 1288 2469 1184 1941 
L 800 0 
L 225 0 
L 903 3500 
L 1478 3500 
L 1363 2950 
Q 1603 3253 1940 3418 
Q 2278 3584 2650 3584 
Q 3113 3584 3367 3334 
Q 3622 3084 3622 2631 
Q 3622 2519 3608 2391 
Q 3594 2263 3566 2113 
z
" transform="scale(0.015625)"/>
     </defs>
     <use xlink:href="#DejaVuSans-Oblique-56" transform="translate(0 0.09375)"/>
     <use xlink:href="#DejaVuSans-Oblique-69" transform="translate(68.408203 -16.3125) scale(0.7)"/>
     <use xlink:href="#DejaVuSans-Oblique-6e" transform="translate(87.856445 -16.3125) scale(0.7)"/>
    </g>
   </g>
   <g id="patch_6">
    <path d="M 124.482 31.18 
C 125.198048 31.18 125.884866 30.895511 126.391188 30.389188 
C 126.897511 29.882866 127.182 29.196048 127.182 28.48 
C 127.182 27.763952 126.897511 27.077134 126.391188 26.570812 
C 125.884866 26.064489 125.198048 25.78 124.482 25.78 
C 123.765952 25.78 123.079134 26.064489 122.572812 26.570812 
C 122.066489 27.077134 121.782 27.763952 121.782 28.48 
C 121.782 29.196048 122.066489 29.882866 122.572812 30.389188 
C 123.079134 30.895511 123.765952 31.18 124.482 31.18 
z
" clip-path="url(#p02da2e37bc)" style="stroke: #000000; stroke-width: 2; stroke-linejoin: miter"/>
   </g>
   <g id="patch_7">
    <path d="M 16.482 31.18 
C 17.198048 31.18 17.884866 30.895511 18.391188 30.389188 
C 18.897511 29.882866 19.182 29.196048 19.182 28.48 
C 19.182 27.763952 18.897511 27.077134 18.391188 26.570812 
C 17.884866 26.064489 17.198048 25.78 16.482 25.78 
C 15.765952 25.78 15.079134 26.064489 14.572812 26.570812 
C 14.066489 27.077134 13.782 27.763952 13.782 28.48 
C 13.782 29.196048 14.066489 29.882866 14.572812 30.389188 
C 15.079134 30.895511 15.765952 31.18 16.482 31.18 
z
" clip-path="url(#p02da2e37bc)" style="fill: #ffffff; stroke: #000000; stroke-width: 2; stroke-linejoin: miter"/>
   </g>
   <g id="text_2">
    <!-- $R$ -->
    <g transform="translate(65.582 12.968438) scale(0.14 -0.14)">
     <defs>
      <path id="DejaVuSans-Oblique-52" d="M 1613 4147 
L 1294 2491 
L 2106 2491 
Q 2584 2491 2879 2755 
Q 3175 3019 3175 3444 
Q 3175 3784 2976 3965 
Q 2778 4147 2406 4147 
L 1613 4147 
z
M 2772 2241 
Q 2972 2194 3105 2009 
Q 3238 1825 3413 1275 
L 3809 0 
L 3144 0 
L 2778 1197 
Q 2638 1659 2453 1815 
Q 2269 1972 1888 1972 
L 1191 1972 
L 806 0 
L 172 0 
L 1081 4666 
L 2503 4666 
Q 3150 4666 3495 4373 
Q 3841 4081 3841 3531 
Q 3841 3044 3547 2687 
Q 3253 2331 2772 2241 
z
" transform="scale(0.015625)"/>
     </defs>
     <use xlink:href="#DejaVuSans-Oblique-52" transform="translate(0 0.09375)"/>
    </g>
   </g>
   <g id="text_3">
    <!-- $C$ -->
    <g transform="translate(102.082 59.343125) scale(0.14 -0.14)">
     <defs>
      <path id="DejaVuSans-Oblique-43" d="M 4447 4306 
L 4319 3641 
Q 4019 3944 3683 4091 
Q 3347 4238 2956 4238 
Q 2422 4238 2017 3981 
Q 1613 3725 1319 3200 
Q 1131 2863 1032 2486 
Q 934 2109 934 1728 
Q 934 1091 1264 756 
Q 1594 422 2222 422 
Q 2656 422 3056 561 
Q 3456 700 3834 978 
L 3688 231 
Q 3316 72 2936 -9 
Q 2556 -91 2175 -91 
Q 1278 -91 773 396 
Q 269 884 269 1753 
Q 269 2309 461 2846 
Q 653 3384 1013 3828 
Q 1394 4300 1883 4525 
Q 2372 4750 3022 4750 
Q 3422 4750 3780 4639 
Q 4138 4528 4447 4306 
z
" transform="scale(0.015625)"/>
     </defs>
     <use xlink:href="#DejaVuSans-Oblique-43" transform="translate(0 0.78125)"/>
    </g>
   </g>
   <g id="patch_8">
    <path d="M 124.482 139.18 
C 125.198048 139.18 125.884866 138.895511 126.391188 138.389188 
C 126.897511 137.882866 127.182 137.196048 127.182 136.48 
C 127.182 135.763952 126.897511 135.077134 126.391188 134.570812 
C 125.884866 134.064489 125.198048 133.78 124.482 133.78 
C 123.765952 133.78 123.079134 134.064489 122.572812 134.570812 
C 122.066489 135.077134 121.782 135.763952 121.782 136.48 
C 121.782 137.196048 122.066489 137.882866 122.572812 138.389188 
C 123.079134 138.895511 123.765952 139.18 124.482 139.18 
z
" clip-path="url(#p02da2e37bc)" style="stroke: #000000; stroke-width: 2; stroke-linejoin: miter"/>
   </g>
   <g id="text_4">
    <!-- $L$ -->
    <g transform="translate(110.342 114.693125) scale(0.14 -0.14)">
     <defs>
      <path id="DejaVuSans-Oblique-4c" d="M 1075 4666 
L 1709 4666 
L 909 525 
L 3181 525 
L 3078 0 
L 172 0 
L 1075 4666 
z
" transform="scale(0.015625)"/>
     </defs>
     <use xlink:href="#DejaVuSans-Oblique-4c" transform="translate(0 0.09375)"/>
    </g>
   </g>
   <g id="patch_9">
    <path d="M 178.482 31.18 
C 179.198048 31.18 179.884866 30.895511 180.391188 30.389188 
C 180.897511 29.882866 181.182 29.196048 181.182 28.48 
C 181.182 27.763952 180.897511 27.077134 180.391188 26.570812 
C 179.884866 26.064489 179.198048 25.78 178.482 25.78 
C 177.765952 25.78 177.079134 26.064489 176.572812 26.570812 
C 176.066489 27.077134 175.782 27.763952 175.782 28.48 
C 175.782 29.196048 176.066489 29.882866 176.572812 30.389188 
C 177.079134 30.895511 177.765952 31.18 178.482 31.18 
z
" clip-path="url(#p02da2e37bc)" style="fill: #ffffff; stroke: #000000; stroke-width: 2; stroke-linejoin: miter"/>
   </g>
   <g id="text_5">
    <!-- $V_{out}$ -->
    <g transform="translate(165.462 86.343125) scale(0.14 -0.14)">
     <defs>
      <path id="DejaVuSans-Oblique-6f" d="M 1625 -91 
Q 1009 -91 651 289 
Q 294 669 294 1325 
Q 294 1706 417 2101 
Q 541 2497 738 2766 
Q 1047 3184 1428 3384 
Q 1809 3584 2291 3584 
Q 2888 3584 3255 3212 
Q 3622 2841 3622 2241 
Q 3622 1825 3500 1412 
Q 3378 1000 3181 728 
Q 2875 309 2494 109 
Q 2113 -91 1625 -91 
z
M 891 1344 
Q 891 869 1089 633 
Q 1288 397 1691 397 
Q 2269 397 2648 901 
Q 3028 1406 3028 2181 
Q 3028 2634 2825 2865 
Q 2622 3097 2228 3097 
Q 1903 3097 1650 2945 
Q 1397 2794 1197 2484 
Q 1050 2253 970 1956 
Q 891 1659 891 1344 
z
" transform="scale(0.015625)"/>
      <path id="DejaVuSans-Oblique-75" d="M 428 1388 
L 838 3500 
L 1416 3500 
L 1006 1409 
Q 975 1256 961 1147 
Q 947 1038 947 966 
Q 947 700 1109 554 
Q 1272 409 1569 409 
Q 2031 409 2368 721 
Q 2706 1034 2809 1563 
L 3194 3500 
L 3769 3500 
L 3091 0 
L 2516 0 
L 2631 550 
Q 2388 244 2052 76 
Q 1716 -91 1338 -91 
Q 878 -91 622 161 
Q 366 413 366 863 
Q 366 956 381 1097 
Q 397 1238 428 1388 
z
" transform="scale(0.015625)"/>
      <path id="DejaVuSans-Oblique-74" d="M 2706 3500 
L 2619 3053 
L 1472 3053 
L 1100 1153 
Q 1081 1047 1072 975 
Q 1063 903 1063 863 
Q 1063 663 1183 572 
Q 1303 481 1569 481 
L 2150 481 
L 2053 0 
L 1503 0 
Q 991 0 739 200 
Q 488 400 488 806 
Q 488 878 497 964 
Q 506 1050 525 1153 
L 897 3053 
L 409 3053 
L 500 3500 
L 978 3500 
L 1172 4494 
L 1747 4494 
L 1556 3500 
L 2706 3500 
z
" transform="scale(0.015625)"/>
     </defs>
     <use xlink:href="#DejaVuSans-Oblique-56" transform="translate(0 0.09375)"/>
     <use xlink:href="#DejaVuSans-Oblique-6f" transform="translate(68.408203 -16.3125) scale(0.7)"/>
     <use xlink:href="#DejaVuSans-Oblique-75" transform="translate(111.235352 -16.3125) scale(0.7)"/>
     <use xlink:href="#DejaVuSans-Oblique-74" transform="translate(155.600586 -16.3125) scale(0.7)"/>
    </g>
   </g>
   <g id="patch_10">
    <path d="M 178.482 139.18 
C 179.198048 139.18 179.884866 138.895511 180.391188 138.389188 
C 180.897511 137.882866 181.182 137.196048 181.182 136.48 
C 181.182 135.763952 180.897511 135.077134 180.391188 134.570812 
C 179.884866 134.064489 179.198048 133.78 178.482 133.78 
C 177.765952 133.78 177.079134 134.064489 176.572812 134.570812 
C 176.066489 135.077134 175.782 135.763952 175.782 136.48 
C 175.782 137.196048 176.066489 137.882866 176.572812 138.389188 
C 177.079134 138.895511 177.765952 139.18 178.482 139.18 
z
" clip-path="url(#p02da2e37bc)" style="fill: #ffffff; stroke: #000000; stroke-width: 2; stroke-linejoin: miter"/>
   </g>
   <g id="patch_11">
    <path d="M 16.482 139.18 
C 17.198048 139.18 17.884866 138.895511 18.391188 138.389188 
C 18.897511 137.882866 19.182 137.196048 19.182 136.48 
C 19.182 135.763952 18.897511 135.077134 18.391188 134.570812 
C 17.884866 134.064489 17.198048 133.78 16.482 133.78 
C 15.765952 133.78 15.079134 134.064489 14.572812 134.570812 
C 14.066489 135.077134 13.782 135.763952 13.782 136.48 
C 13.782 137.196048 14.066489 137.882866 14.572812 138.389188 
C 15.079134 138.895511 15.765952 139.18 16.482 139.18 
z
" clip-path="url(#p02da2e37bc)" style="fill: #ffffff; stroke: #000000; stroke-width: 2; stroke-linejoin: miter"/>
   </g>
  </g>
 </g>
 <defs>
  <clipPath id="p02da2e37bc">
   <rect x="0" y="0" width="199.5" height="143.86"/>
  </clipPath>
 </defs>
</svg>
