<?xml version="1.0" encoding="utf-8" standalone="no"?>
<!DOCTYPE svg PUBLIC "-//W3C//DTD SVG 1.1//EN"
  "http://www.w3.org/Graphics/SVG/1.1/DTD/svg11.dtd">
<svg xmlns:xlink="http://www.w3.org/1999/xlink" width="144.576562pt" height="295.6pt" viewBox="0 0 144.576562 295.6" xmlns="http://www.w3.org/2000/svg" version="1.1">
 <metadata>
  <rdf:RDF xmlns:dc="http://purl.org/dc/elements/1.1/" xmlns:cc="http://creativecommons.org/ns#" xmlns:rdf="http://www.w3.org/1999/02/22-rdf-syntax-ns#">
   <cc:Work>
    <dc:type rdf:resource="http://purl.org/dc/dcmitype/StillImage"/>
    <dc:date>2025-04-27T08:16:04.708539</dc:date>
    <dc:format>image/svg+xml</dc:format>
    <dc:creator>
     <cc:Agent>
      <dc:title>Matplotlib v3.10.1, https://matplotlib.org/</dc:title>
     </cc:Agent>
    </dc:creator>
   </cc:Work>
  </rdf:RDF>
 </metadata>
 <defs>
  <style type="text/css">*{stroke-linejoin: round; stroke-linecap: butt}</style>
 </defs>
 <g id="figure_1">
  <g id="patch_1">
   <path d="M 0 295.6 
L 144.576562 295.6 
L 144.576562 0 
L 0 0 
z
" style="fill: #ffffff"/>
  </g>
  <g id="axes_1">
   <g id="patch_2">
    <path d="M 67.70375 54.58 
L 58.70375 67.18 
L 49.70375 54.58 
L 67.70375 54.58 
z
" clip-path="url(#p5070102307)" style="fill: none; stroke: #000000; stroke-width: 2; stroke-linecap: round"/>
   </g>
   <g id="patch_3">
    <path d="M 67.70375 108.58 
L 58.70375 121.18 
L 49.70375 108.58 
L 67.70375 108.58 
z
" clip-path="url(#p5070102307)" style="fill: none; stroke: #000000; stroke-width: 2; stroke-linecap: round"/>
   </g>
   <g id="patch_4">
    <path d="M 67.70375 162.58 
L 58.70375 175.18 
L 49.70375 162.58 
L 67.70375 162.58 
z
" clip-path="url(#p5070102307)" style="fill: none; stroke: #000000; stroke-width: 2; stroke-linecap: round"/>
   </g>
   <g id="line2d_1">
    <path d="M 58.70375 33.88 
L 58.70375 19.48 
" clip-path="url(#p5070102307)" style="fill: none; stroke: #000000; stroke-width: 2; stroke-linecap: round"/>
   </g>
   <g id="line2d_2">
    <path d="M 58.70375 19.48 
L 51.95375 19.48 
" clip-path="url(#p5070102307)" style="fill: none; stroke: #000000; stroke-width: 2; stroke-linecap: round"/>
   </g>
   <g id="line2d_3">
    <path d="M 58.70375 19.48 
L 65.45375 19.48 
" clip-path="url(#p5070102307)" style="fill: none; stroke: #000000; stroke-width: 2; stroke-linecap: round"/>
   </g>
   <g id="line2d_4">
    <path d="M 58.70375 33.88 
L 58.70375 54.58 
M 67.70375 67.18 
L 49.70375 67.18 
M 58.70375 67.18 
L 58.70375 87.88 
" clip-path="url(#p5070102307)" style="fill: none; stroke: #000000; stroke-width: 2; stroke-linecap: round"/>
   </g>
   <g id="line2d_5">
    <path d="M 58.70375 87.88 
L 58.70375 108.58 
M 67.70375 121.18 
L 49.70375 121.18 
M 58.70375 121.18 
L 58.70375 141.88 
" clip-path="url(#p5070102307)" style="fill: none; stroke: #000000; stroke-width: 2; stroke-linecap: round"/>
   </g>
   <g id="line2d_6">
    <path d="M 58.70375 141.88 
L 58.70375 162.58 
M 67.70375 175.18 
L 49.70375 175.18 
M 58.70375 175.18 
L 58.70375 195.88 
" clip-path="url(#p5070102307)" style="fill: none; stroke: #000000; stroke-width: 2; stroke-linecap: round"/>
   </g>
   <g id="line2d_7">
    <path d="M 58.70375 195.88 
L 58.70375 213.88 
L 67.70375 213.88 
L 67.70375 249.88 
L 49.70375 249.88 
L 49.70375 213.88 
L 58.70375 213.88 
M 58.70375 249.88 
L 58.70375 267.88 
" clip-path="url(#p5070102307)" style="fill: none; stroke: #000000; stroke-width: 2; stroke-linecap: round"/>
   </g>
   <g id="line2d_8">
    <path d="M 58.70375 267.88 
L 58.70375 282.28 
L 49.70375 282.28 
L 67.70375 282.28 
M 52.40375 286.6 
L 65.00375 286.6 
M 56.90375 290.92 
L 60.50375 290.92 
" clip-path="url(#p5070102307)" style="fill: none; stroke: #000000; stroke-width: 2; stroke-linecap: round"/>
   </g>
   <g id="line2d_9">
    <path d="M 58.70375 33.88 
L 76.70375 33.88 
L 94.70375 33.88 
" clip-path="url(#p5070102307)" style="fill: none; stroke: #000000; stroke-width: 2; stroke-linecap: round"/>
   </g>
   <g id="line2d_10">
    <path d="M 58.70375 87.88 
L 76.70375 87.88 
L 94.70375 87.88 
" clip-path="url(#p5070102307)" style="fill: none; stroke: #000000; stroke-width: 2; stroke-linecap: round"/>
   </g>
   <g id="line2d_11">
    <path d="M 58.70375 141.88 
L 76.70375 141.88 
L 94.70375 141.88 
" clip-path="url(#p5070102307)" style="fill: none; stroke: #000000; stroke-width: 2; stroke-linecap: round"/>
   </g>
   <g id="line2d_12">
    <path d="M 58.70375 195.88 
L 76.70375 195.88 
L 94.70375 195.88 
" clip-path="url(#p5070102307)" style="fill: none; stroke: #000000; stroke-width: 2; stroke-linecap: round"/>
   </g>
   <g id="text_1">
    <!-- +5V -->
    <g transform="translate(43.595781 12.968437) scale(0.14 -0.14)">
     <defs>
      <path id="DejaVuSans-2b" d="M 2944 4013 
L 2944 2272 
L 4684 2272 
L 4684 1741 
L 2944 1741 
L 2944 0 
L 2419 0 
L 2419 1741 
L 678 1741 
L 678 2272 
L 2419 2272 
L 2419 4013 
L 2944 4013 
z
" transform="scale(0.015625)"/>
      <path id="DejaVuSans-35" d="M 691 4666 
L 3169 4666 
L 3169 4134 
L 1269 4134 
L 1269 2991 
Q 1406 3038 1543 3061 
Q 1681 3084 1819 3084 
Q 2600 3084 3056 2656 
Q 3513 2228 3513 1497 
Q 3513 744 3044 326 
Q 2575 -91 1722 -91 
Q 1428 -91 1123 -41 
Q 819 9 494 109 
L 494 744 
Q 775 591 1075 516 
Q 1375 441 1709 441 
Q 2250 441 2565 725 
Q 2881 1009 2881 1497 
Q 2881 1984 2565 2268 
Q 2250 2553 1709 2553 
Q 1456 2553 1204 2497 
Q 953 2441 691 2322 
L 691 4666 
z
" transform="scale(0.015625)"/>
      <path id="DejaVuSans-56" d="M 1831 0 
L 50 4666 
L 709 4666 
L 2188 738 
L 3669 4666 
L 4325 4666 
L 2547 0 
L 1831 0 
z
" transform="scale(0.015625)"/>
     </defs>
     <use xlink:href="#DejaVuSans-2b"/>
     <use xlink:href="#DejaVuSans-35" transform="translate(83.789062 0)"/>
     <use xlink:href="#DejaVuSans-56" transform="translate(147.412109 0)"/>
    </g>
   </g>
   <g id="patch_5">
    <path d="M 58.70375 36.58 
C 59.419798 36.58 60.106616 36.295511 60.612938 35.789188 
C 61.119261 35.282866 61.40375 34.596048 61.40375 33.88 
C 61.40375 33.163952 61.119261 32.477134 60.612938 31.970812 
C 60.106616 31.464489 59.419798 31.18 58.70375 31.18 
C 57.987702 31.18 57.300884 31.464489 56.794562 31.970812 
C 56.288239 32.477134 56.00375 33.163952 56.00375 33.88 
C 56.00375 34.596048 56.288239 35.282866 56.794562 35.789188 
C 57.300884 36.295511 57.987702 36.58 58.70375 36.58 
z
" clip-path="url(#p5070102307)" style="stroke: #000000; stroke-width: 2; stroke-linejoin: miter"/>
   </g>
   <g id="text_2">
    <!-- 1N914 -->
    <g transform="translate(0 63.393125) scale(0.14 -0.14)">
     <defs>
      <path id="DejaVuSans-31" d="M 794 531 
L 1825 531 
L 1825 4091 
L 703 3866 
L 703 4441 
L 1819 4666 
L 2450 4666 
L 2450 531 
L 3481 531 
L 3481 0 
L 794 0 
L 794 531 
z
" transform="scale(0.015625)"/>
      <path id="DejaVuSans-4e" d="M 628 4666 
L 1478 4666 
L 3547 763 
L 3547 4666 
L 4159 4666 
L 4159 0 
L 3309 0 
L 1241 3903 
L 1241 0 
L 628 0 
L 628 4666 
z
" transform="scale(0.015625)"/>
      <path id="DejaVuSans-39" d="M 703 97 
L 703 672 
Q 941 559 1184 500 
Q 1428 441 1663 441 
Q 2288 441 2617 861 
Q 2947 1281 2994 2138 
Q 2813 1869 2534 1725 
Q 2256 1581 1919 1581 
Q 1219 1581 811 2004 
Q 403 2428 403 3163 
Q 403 3881 828 4315 
Q 1253 4750 1959 4750 
Q 2769 4750 3195 4129 
Q 3622 3509 3622 2328 
Q 3622 1225 3098 567 
Q 2575 -91 1691 -91 
Q 1453 -91 1209 -44 
Q 966 3 703 97 
z
M 1959 2075 
Q 2384 2075 2632 2365 
Q 2881 2656 2881 3163 
Q 2881 3666 2632 3958 
Q 2384 4250 1959 4250 
Q 1534 4250 1286 3958 
Q 1038 3666 1038 3163 
Q 1038 2656 1286 2365 
Q 1534 2075 1959 2075 
z
" transform="scale(0.015625)"/>
      <path id="DejaVuSans-34" d="M 2419 4116 
L 825 1625 
L 2419 1625 
L 2419 4116 
z
M 2253 4666 
L 3047 4666 
L 3047 1625 
L 3713 1625 
L 3713 1100 
L 3047 1100 
L 3047 0 
L 2419 0 
L 2419 1100 
L 313 1100 
L 313 1709 
L 2253 4666 
z
" transform="scale(0.015625)"/>
     </defs>
     <use xlink:href="#DejaVuSans-31"/>
     <use xlink:href="#DejaVuSans-4e" transform="translate(63.623047 0)"/>
     <use xlink:href="#DejaVuSans-39" transform="translate(138.427734 0)"/>
     <use xlink:href="#DejaVuSans-31" transform="translate(202.050781 0)"/>
     <use xlink:href="#DejaVuSans-34" transform="translate(265.673828 0)"/>
    </g>
   </g>
   <g id="patch_6">
    <path d="M 58.70375 90.58 
C 59.419798 90.58 60.106616 90.295511 60.612938 89.789188 
C 61.119261 89.282866 61.40375 88.596048 61.40375 87.88 
C 61.40375 87.163952 61.119261 86.477134 60.612938 85.970812 
C 60.106616 85.464489 59.419798 85.18 58.70375 85.18 
C 57.987702 85.18 57.300884 85.464489 56.794562 85.970812 
C 56.288239 86.477134 56.00375 87.163952 56.00375 87.88 
C 56.00375 88.596048 56.288239 89.282866 56.794562 89.789188 
C 57.300884 90.295511 57.987702 90.58 58.70375 90.58 
z
" clip-path="url(#p5070102307)" style="stroke: #000000; stroke-width: 2; stroke-linejoin: miter"/>
   </g>
   <g id="text_3">
    <!-- 1N914 -->
    <g transform="translate(0 117.393125) scale(0.14 -0.14)">
     <use xlink:href="#DejaVuSans-31"/>
     <use xlink:href="#DejaVuSans-4e" transform="translate(63.623047 0)"/>
     <use xlink:href="#DejaVuSans-39" transform="translate(138.427734 0)"/>
     <use xlink:href="#DejaVuSans-31" transform="translate(202.050781 0)"/>
     <use xlink:href="#DejaVuSans-34" transform="translate(265.673828 0)"/>
    </g>
   </g>
   <g id="patch_7">
    <path d="M 58.70375 144.58 
C 59.419798 144.58 60.106616 144.295511 60.612938 143.789188 
C 61.119261 143.282866 61.40375 142.596048 61.40375 141.88 
C 61.40375 141.163952 61.119261 140.477134 60.612938 139.970812 
C 60.106616 139.464489 59.419798 139.18 58.70375 139.18 
C 57.987702 139.18 57.300884 139.464489 56.794562 139.970812 
C 56.288239 140.477134 56.00375 141.163952 56.00375 141.88 
C 56.00375 142.596048 56.288239 143.282866 56.794562 143.789188 
C 57.300884 144.295511 57.987702 144.58 58.70375 144.58 
z
" clip-path="url(#p5070102307)" style="stroke: #000000; stroke-width: 2; stroke-linejoin: miter"/>
   </g>
   <g id="text_4">
    <!-- 1N914 -->
    <g transform="translate(0 171.393125) scale(0.14 -0.14)">
     <use xlink:href="#DejaVuSans-31"/>
     <use xlink:href="#DejaVuSans-4e" transform="translate(63.623047 0)"/>
     <use xlink:href="#DejaVuSans-39" transform="translate(138.427734 0)"/>
     <use xlink:href="#DejaVuSans-31" transform="translate(202.050781 0)"/>
     <use xlink:href="#DejaVuSans-34" transform="translate(265.673828 0)"/>
    </g>
   </g>
   <g id="patch_8">
    <path d="M 58.70375 198.58 
C 59.419798 198.58 60.106616 198.295511 60.612938 197.789188 
C 61.119261 197.282866 61.40375 196.596048 61.40375 195.88 
C 61.40375 195.163952 61.119261 194.477134 60.612938 193.970812 
C 60.106616 193.464489 59.419798 193.18 58.70375 193.18 
C 57.987702 193.18 57.300884 193.464489 56.794562 193.970812 
C 56.288239 194.477134 56.00375 195.163952 56.00375 195.88 
C 56.00375 196.596048 56.288239 197.282866 56.794562 197.789188 
C 57.300884 198.295511 57.987702 198.58 58.70375 198.58 
z
" clip-path="url(#p5070102307)" style="stroke: #000000; stroke-width: 2; stroke-linejoin: miter"/>
   </g>
   <g id="text_5">
    <!-- R -->
    <g transform="translate(36.375938 234.393125) scale(0.14 -0.14)">
     <defs>
      <path id="DejaVuSans-52" d="M 2841 2188 
Q 3044 2119 3236 1894 
Q 3428 1669 3622 1275 
L 4263 0 
L 3584 0 
L 2988 1197 
Q 2756 1666 2539 1819 
Q 2322 1972 1947 1972 
L 1259 1972 
L 1259 0 
L 628 0 
L 628 4666 
L 2053 4666 
Q 2853 4666 3247 4331 
Q 3641 3997 3641 3322 
Q 3641 2881 3436 2590 
Q 3231 2300 2841 2188 
z
M 1259 4147 
L 1259 2491 
L 2053 2491 
Q 2509 2491 2742 2702 
Q 2975 2913 2975 3322 
Q 2975 3731 2742 3939 
Q 2509 4147 2053 4147 
L 1259 4147 
z
" transform="scale(0.015625)"/>
     </defs>
     <use xlink:href="#DejaVuSans-52"/>
    </g>
   </g>
   <g id="patch_9">
    <path d="M 94.70375 36.58 
C 95.419798 36.58 96.106616 36.295511 96.612938 35.789188 
C 97.119261 35.282866 97.40375 34.596048 97.40375 33.88 
C 97.40375 33.163952 97.119261 32.477134 96.612938 31.970812 
C 96.106616 31.464489 95.419798 31.18 94.70375 31.18 
C 93.987702 31.18 93.300884 31.464489 92.794562 31.970812 
C 92.288239 32.477134 92.00375 33.163952 92.00375 33.88 
C 92.00375 34.596048 92.288239 35.282866 92.794562 35.789188 
C 93.300884 36.295511 93.987702 36.58 94.70375 36.58 
z
" clip-path="url(#p5070102307)" style="fill: #ffffff; stroke: #000000; stroke-width: 2; stroke-linejoin: miter"/>
   </g>
   <g id="text_6">
    <!-- +5.0V -->
    <g transform="translate(101.00375 37.743125) scale(0.14 -0.14)">
     <defs>
      <path id="DejaVuSans-2e" d="M 684 794 
L 1344 794 
L 1344 0 
L 684 0 
L 684 794 
z
" transform="scale(0.015625)"/>
      <path id="DejaVuSans-30" d="M 2034 4250 
Q 1547 4250 1301 3770 
Q 1056 3291 1056 2328 
Q 1056 1369 1301 889 
Q 1547 409 2034 409 
Q 2525 409 2770 889 
Q 3016 1369 3016 2328 
Q 3016 3291 2770 3770 
Q 2525 4250 2034 4250 
z
M 2034 4750 
Q 2819 4750 3233 4129 
Q 3647 3509 3647 2328 
Q 3647 1150 3233 529 
Q 2819 -91 2034 -91 
Q 1250 -91 836 529 
Q 422 1150 422 2328 
Q 422 3509 836 4129 
Q 1250 4750 2034 4750 
z
" transform="scale(0.015625)"/>
     </defs>
     <use xlink:href="#DejaVuSans-2b"/>
     <use xlink:href="#DejaVuSans-35" transform="translate(83.789062 0)"/>
     <use xlink:href="#DejaVuSans-2e" transform="translate(147.412109 0)"/>
     <use xlink:href="#DejaVuSans-30" transform="translate(179.199219 0)"/>
     <use xlink:href="#DejaVuSans-56" transform="translate(242.822266 0)"/>
    </g>
   </g>
   <g id="patch_10">
    <path d="M 94.70375 90.58 
C 95.419798 90.58 96.106616 90.295511 96.612938 89.789188 
C 97.119261 89.282866 97.40375 88.596048 97.40375 87.88 
C 97.40375 87.163952 97.119261 86.477134 96.612938 85.970812 
C 96.106616 85.464489 95.419798 85.18 94.70375 85.18 
C 93.987702 85.18 93.300884 85.464489 92.794562 85.970812 
C 92.288239 86.477134 92.00375 87.163952 92.00375 87.88 
C 92.00375 88.596048 92.288239 89.282866 92.794562 89.789188 
C 93.300884 90.295511 93.987702 90.58 94.70375 90.58 
z
" clip-path="url(#p5070102307)" style="fill: #ffffff; stroke: #000000; stroke-width: 2; stroke-linejoin: miter"/>
   </g>
   <g id="text_7">
    <!-- +4.4V -->
    <g transform="translate(101.00375 91.743125) scale(0.14 -0.14)">
     <use xlink:href="#DejaVuSans-2b"/>
     <use xlink:href="#DejaVuSans-34" transform="translate(83.789062 0)"/>
     <use xlink:href="#DejaVuSans-2e" transform="translate(147.412109 0)"/>
     <use xlink:href="#DejaVuSans-34" transform="translate(179.199219 0)"/>
     <use xlink:href="#DejaVuSans-56" transform="translate(242.822266 0)"/>
    </g>
   </g>
   <g id="patch_11">
    <path d="M 94.70375 144.58 
C 95.419798 144.58 96.106616 144.295511 96.612938 143.789188 
C 97.119261 143.282866 97.40375 142.596048 97.40375 141.88 
C 97.40375 141.163952 97.119261 140.477134 96.612938 139.970812 
C 96.106616 139.464489 95.419798 139.18 94.70375 139.18 
C 93.987702 139.18 93.300884 139.464489 92.794562 139.970812 
C 92.288239 140.477134 92.00375 141.163952 92.00375 141.88 
C 92.00375 142.596048 92.288239 143.282866 92.794562 143.789188 
C 93.300884 144.295511 93.987702 144.58 94.70375 144.58 
z
" clip-path="url(#p5070102307)" style="fill: #ffffff; stroke: #000000; stroke-width: 2; stroke-linejoin: miter"/>
   </g>
   <g id="text_8">
    <!-- +3.8V -->
    <g transform="translate(101.00375 145.743125) scale(0.14 -0.14)">
     <defs>
      <path id="DejaVuSans-33" d="M 2597 2516 
Q 3050 2419 3304 2112 
Q 3559 1806 3559 1356 
Q 3559 666 3084 287 
Q 2609 -91 1734 -91 
Q 1441 -91 1130 -33 
Q 819 25 488 141 
L 488 750 
Q 750 597 1062 519 
Q 1375 441 1716 441 
Q 2309 441 2620 675 
Q 2931 909 2931 1356 
Q 2931 1769 2642 2001 
Q 2353 2234 1838 2234 
L 1294 2234 
L 1294 2753 
L 1863 2753 
Q 2328 2753 2575 2939 
Q 2822 3125 2822 3475 
Q 2822 3834 2567 4026 
Q 2313 4219 1838 4219 
Q 1578 4219 1281 4162 
Q 984 4106 628 3988 
L 628 4550 
Q 988 4650 1302 4700 
Q 1616 4750 1894 4750 
Q 2613 4750 3031 4423 
Q 3450 4097 3450 3541 
Q 3450 3153 3228 2886 
Q 3006 2619 2597 2516 
z
" transform="scale(0.015625)"/>
      <path id="DejaVuSans-38" d="M 2034 2216 
Q 1584 2216 1326 1975 
Q 1069 1734 1069 1313 
Q 1069 891 1326 650 
Q 1584 409 2034 409 
Q 2484 409 2743 651 
Q 3003 894 3003 1313 
Q 3003 1734 2745 1975 
Q 2488 2216 2034 2216 
z
M 1403 2484 
Q 997 2584 770 2862 
Q 544 3141 544 3541 
Q 544 4100 942 4425 
Q 1341 4750 2034 4750 
Q 2731 4750 3128 4425 
Q 3525 4100 3525 3541 
Q 3525 3141 3298 2862 
Q 3072 2584 2669 2484 
Q 3125 2378 3379 2068 
Q 3634 1759 3634 1313 
Q 3634 634 3220 271 
Q 2806 -91 2034 -91 
Q 1263 -91 848 271 
Q 434 634 434 1313 
Q 434 1759 690 2068 
Q 947 2378 1403 2484 
z
M 1172 3481 
Q 1172 3119 1398 2916 
Q 1625 2713 2034 2713 
Q 2441 2713 2670 2916 
Q 2900 3119 2900 3481 
Q 2900 3844 2670 4047 
Q 2441 4250 2034 4250 
Q 1625 4250 1398 4047 
Q 1172 3844 1172 3481 
z
" transform="scale(0.015625)"/>
     </defs>
     <use xlink:href="#DejaVuSans-2b"/>
     <use xlink:href="#DejaVuSans-33" transform="translate(83.789062 0)"/>
     <use xlink:href="#DejaVuSans-2e" transform="translate(147.412109 0)"/>
     <use xlink:href="#DejaVuSans-38" transform="translate(179.199219 0)"/>
     <use xlink:href="#DejaVuSans-56" transform="translate(242.822266 0)"/>
    </g>
   </g>
   <g id="patch_12">
    <path d="M 94.70375 198.58 
C 95.419798 198.58 96.106616 198.295511 96.612938 197.789188 
C 97.119261 197.282866 97.40375 196.596048 97.40375 195.88 
C 97.40375 195.163952 97.119261 194.477134 96.612938 193.970812 
C 96.106616 193.464489 95.419798 193.18 94.70375 193.18 
C 93.987702 193.18 93.300884 193.464489 92.794562 193.970812 
C 92.288239 194.477134 92.00375 195.163952 92.00375 195.88 
C 92.00375 196.596048 92.288239 197.282866 92.794562 197.789188 
C 93.300884 198.295511 93.987702 198.58 94.70375 198.58 
z
" clip-path="url(#p5070102307)" style="fill: #ffffff; stroke: #000000; stroke-width: 2; stroke-linejoin: miter"/>
   </g>
   <g id="text_9">
    <!-- +3.2V -->
    <g transform="translate(101.00375 199.743125) scale(0.14 -0.14)">
     <defs>
      <path id="DejaVuSans-32" d="M 1228 531 
L 3431 531 
L 3431 0 
L 469 0 
L 469 531 
Q 828 903 1448 1529 
Q 2069 2156 2228 2338 
Q 2531 2678 2651 2914 
Q 2772 3150 2772 3378 
Q 2772 3750 2511 3984 
Q 2250 4219 1831 4219 
Q 1534 4219 1204 4116 
Q 875 4013 500 3803 
L 500 4441 
Q 881 4594 1212 4672 
Q 1544 4750 1819 4750 
Q 2544 4750 2975 4387 
Q 3406 4025 3406 3419 
Q 3406 3131 3298 2873 
Q 3191 2616 2906 2266 
Q 2828 2175 2409 1742 
Q 1991 1309 1228 531 
z
" transform="scale(0.015625)"/>
     </defs>
     <use xlink:href="#DejaVuSans-2b"/>
     <use xlink:href="#DejaVuSans-33" transform="translate(83.789062 0)"/>
     <use xlink:href="#DejaVuSans-2e" transform="translate(147.412109 0)"/>
     <use xlink:href="#DejaVuSans-32" transform="translate(179.199219 0)"/>
     <use xlink:href="#DejaVuSans-56" transform="translate(242.822266 0)"/>
    </g>
   </g>
  </g>
 </g>
 <defs>
  <clipPath id="p5070102307">
   <rect x="0.09575" y="0" width="143.136" height="295.6"/>
  </clipPath>
 </defs>
</svg>
