<?xml version="1.0" encoding="utf-8" standalone="no"?>
<!DOCTYPE svg PUBLIC "-//W3C//DTD SVG 1.1//EN"
  "http://www.w3.org/Graphics/SVG/1.1/DTD/svg11.dtd">
<svg xmlns:xlink="http://www.w3.org/1999/xlink" width="168.456pt" height="140.4pt" viewBox="0 0 168.456 140.4" xmlns="http://www.w3.org/2000/svg" version="1.1">
 <metadata>
  <rdf:RDF xmlns:dc="http://purl.org/dc/elements/1.1/" xmlns:cc="http://creativecommons.org/ns#" xmlns:rdf="http://www.w3.org/1999/02/22-rdf-syntax-ns#">
   <cc:Work>
    <dc:type rdf:resource="http://purl.org/dc/dcmitype/StillImage"/>
    <dc:date>2025-04-15T00:34:57.014225</dc:date>
    <dc:format>image/svg+xml</dc:format>
    <dc:creator>
     <cc:Agent>
      <dc:title>Matplotlib v3.10.1, https://matplotlib.org/</dc:title>
     </cc:Agent>
    </dc:creator>
   </cc:Work>
  </rdf:RDF>
 </metadata>
 <defs>
  <style type="text/css">*{stroke-linejoin: round; stroke-linecap: butt}</style>
 </defs>
 <g id="figure_1">
  <g id="patch_1">
   <path d="M 0 140.4 
L 168.456 140.4 
L 168.456 0 
L 0 0 
z
" style="fill: #ffffff"/>
  </g>
  <g id="axes_1">
   <g id="patch_2">
    <path d="M 46.776 76.68 
C 51.549656 76.68 56.128438 74.783406 59.503922 71.407922 
C 62.879406 68.032438 64.776 63.453656 64.776 58.68 
C 64.776 53.906344 62.879406 49.327562 59.503922 45.952078 
C 56.128438 42.576594 51.549656 40.68 46.776 40.68 
C 42.002344 40.68 37.423562 42.576594 34.048078 45.952078 
C 30.672594 49.327562 28.776 53.906344 28.776 58.68 
C 28.776 63.453656 30.672594 68.032438 34.048078 71.407922 
C 37.423562 74.783406 42.002344 76.68 46.776 76.68 
L 46.776 76.68 
z
" clip-path="url(#pe94b63e648)" style="fill: none; stroke: #000000; stroke-width: 2; stroke-linejoin: miter"/>
   </g>
   <g id="patch_3">
    <path d="M 145.776 64.98 
L 154.776 52.38 
L 163.776 64.98 
L 145.776 64.98 
z
" clip-path="url(#pe94b63e648)" style="fill: none; stroke: #000000; stroke-width: 2; stroke-linecap: round"/>
   </g>
   <g id="line2d_1">
    <path d="M 46.776 112.68 
L 46.776 76.68 
L 46.776 76.68 
M 46.776 40.68 
L 46.776 40.68 
L 46.776 4.68 
" clip-path="url(#pe94b63e648)" style="fill: none; stroke: #000000; stroke-width: 2; stroke-linecap: round"/>
   </g>
   <g id="line2d_2">
    <path d="M 50.376 67.68 
L 43.176 67.68 
" clip-path="url(#pe94b63e648)" style="fill: none; stroke: #000000; stroke-width: 2; stroke-linecap: round"/>
   </g>
   <g id="line2d_3">
    <path d="M 46.776 53.28 
L 46.776 46.08 
" clip-path="url(#pe94b63e648)" style="fill: none; stroke: #000000; stroke-width: 2; stroke-linecap: round"/>
   </g>
   <g id="line2d_4">
    <path d="M 50.376 49.68 
L 43.176 49.68 
" clip-path="url(#pe94b63e648)" style="fill: none; stroke: #000000; stroke-width: 2; stroke-linecap: round"/>
   </g>
   <g id="line2d_5">
    <path d="M 46.776 4.68 
L 100.776 4.68 
L 154.776 4.68 
" clip-path="url(#pe94b63e648)" style="fill: none; stroke: #000000; stroke-width: 2; stroke-linecap: round"/>
   </g>
   <g id="line2d_6">
    <path d="M 154.776 4.68 
L 154.776 52.38 
M 145.776 52.38 
L 163.776 52.38 
M 154.776 64.98 
L 154.776 112.68 
" clip-path="url(#pe94b63e648)" style="fill: none; stroke: #000000; stroke-width: 2; stroke-linecap: round"/>
   </g>
   <g id="line2d_7">
    <path d="M 163.776 55.98 
L 163.776 52.38 
" clip-path="url(#pe94b63e648)" style="fill: none; stroke: #000000; stroke-width: 2; stroke-linecap: round"/>
   </g>
   <g id="line2d_8">
    <path d="M 145.776 55.98 
L 145.776 52.38 
" clip-path="url(#pe94b63e648)" style="fill: none; stroke: #000000; stroke-width: 2; stroke-linecap: round"/>
   </g>
   <g id="line2d_9">
    <path d="M 154.776 112.68 
L 154.776 127.08 
L 145.776 127.08 
L 163.776 127.08 
M 148.476 131.4 
L 161.076 131.4 
M 152.976 135.72 
L 156.576 135.72 
" clip-path="url(#pe94b63e648)" style="fill: none; stroke: #000000; stroke-width: 2; stroke-linecap: round"/>
   </g>
   <g id="line2d_10">
    <path d="M 46.776 112.68 
L 46.776 127.08 
L 37.776 127.08 
L 55.776 127.08 
M 40.476 131.4 
L 53.076 131.4 
M 44.976 135.72 
L 48.576 135.72 
" clip-path="url(#pe94b63e648)" style="fill: none; stroke: #000000; stroke-width: 2; stroke-linecap: round"/>
   </g>
   <g id="text_1">
    <!-- Vin -->
    <g transform="translate(3.15225 62.543125) scale(0.14 -0.14)">
     <defs>
      <path id="DejaVuSans-56" d="M 1831 0 
L 50 4666 
L 709 4666 
L 2188 738 
L 3669 4666 
L 4325 4666 
L 2547 0 
L 1831 0 
z
" transform="scale(0.015625)"/>
      <path id="DejaVuSans-69" d="M 603 3500 
L 1178 3500 
L 1178 0 
L 603 0 
L 603 3500 
z
M 603 4863 
L 1178 4863 
L 1178 4134 
L 603 4134 
L 603 4863 
z
" transform="scale(0.015625)"/>
      <path id="DejaVuSans-6e" d="M 3513 2113 
L 3513 0 
L 2938 0 
L 2938 2094 
Q 2938 2591 2744 2837 
Q 2550 3084 2163 3084 
Q 1697 3084 1428 2787 
Q 1159 2491 1159 1978 
L 1159 0 
L 581 0 
L 581 3500 
L 1159 3500 
L 1159 2956 
Q 1366 3272 1645 3428 
Q 1925 3584 2291 3584 
Q 2894 3584 3203 3211 
Q 3513 2838 3513 2113 
z
" transform="scale(0.015625)"/>
     </defs>
     <use xlink:href="#DejaVuSans-56"/>
     <use xlink:href="#DejaVuSans-69" transform="translate(66.158203 0)"/>
     <use xlink:href="#DejaVuSans-6e" transform="translate(93.941406 0)"/>
    </g>
   </g>
   <g id="text_2">
    <!-- TVS -->
    <g transform="translate(115.160375 62.543125) scale(0.14 -0.14)">
     <defs>
      <path id="DejaVuSans-54" d="M -19 4666 
L 3928 4666 
L 3928 4134 
L 2272 4134 
L 2272 0 
L 1638 0 
L 1638 4134 
L -19 4134 
L -19 4666 
z
" transform="scale(0.015625)"/>
      <path id="DejaVuSans-53" d="M 3425 4513 
L 3425 3897 
Q 3066 4069 2747 4153 
Q 2428 4238 2131 4238 
Q 1616 4238 1336 4038 
Q 1056 3838 1056 3469 
Q 1056 3159 1242 3001 
Q 1428 2844 1947 2747 
L 2328 2669 
Q 3034 2534 3370 2195 
Q 3706 1856 3706 1288 
Q 3706 609 3251 259 
Q 2797 -91 1919 -91 
Q 1588 -91 1214 -16 
Q 841 59 441 206 
L 441 856 
Q 825 641 1194 531 
Q 1563 422 1919 422 
Q 2459 422 2753 634 
Q 3047 847 3047 1241 
Q 3047 1584 2836 1778 
Q 2625 1972 2144 2069 
L 1759 2144 
Q 1053 2284 737 2584 
Q 422 2884 422 3419 
Q 422 4038 858 4394 
Q 1294 4750 2059 4750 
Q 2388 4750 2728 4690 
Q 3069 4631 3425 4513 
z
" transform="scale(0.015625)"/>
     </defs>
     <use xlink:href="#DejaVuSans-54"/>
     <use xlink:href="#DejaVuSans-56" transform="translate(61.083984 0)"/>
     <use xlink:href="#DejaVuSans-53" transform="translate(129.492188 0)"/>
    </g>
   </g>
  </g>
 </g>
 <defs>
  <clipPath id="pe94b63e648">
   <rect x="0" y="0" width="168.456" height="140.4"/>
  </clipPath>
 </defs>
</svg>
