<?xml version="1.0" encoding="utf-8" standalone="no"?>
<!DOCTYPE svg PUBLIC "-//W3C//DTD SVG 1.1//EN"
  "http://www.w3.org/Graphics/SVG/1.1/DTD/svg11.dtd">
<svg xmlns:xlink="http://www.w3.org/1999/xlink" width="246.96pt" height="28.480646pt" viewBox="0 0 246.96 28.480646" xmlns="http://www.w3.org/2000/svg" version="1.1">
 <metadata>
  <rdf:RDF xmlns:dc="http://purl.org/dc/elements/1.1/" xmlns:cc="http://creativecommons.org/ns#" xmlns:rdf="http://www.w3.org/1999/02/22-rdf-syntax-ns#">
   <cc:Work>
    <dc:type rdf:resource="http://purl.org/dc/dcmitype/StillImage"/>
    <dc:date>2025-04-13T09:42:51.968087</dc:date>
    <dc:format>image/svg+xml</dc:format>
    <dc:creator>
     <cc:Agent>
      <dc:title>Matplotlib v3.10.1, https://matplotlib.org/</dc:title>
     </cc:Agent>
    </dc:creator>
   </cc:Work>
  </rdf:RDF>
 </metadata>
 <defs>
  <style type="text/css">*{stroke-linejoin: round; stroke-linecap: butt}</style>
 </defs>
 <g id="figure_1">
  <g id="patch_1">
   <path d="M 0 28.480646 
L 246.96 28.480646 
L 246.96 0 
L 0 0 
z
" style="fill: #ffffff"/>
  </g>
  <g id="axes_1">
   <g id="patch_2">
    <path d="M 192.198319 4.68 
C 191.495492 5.689099 190.915436 7.096981 190.513274 8.769854 
C 190.111112 10.442727 189.9 12.325868 189.9 14.240323 
C 189.9 16.154777 190.111112 18.037919 190.513274 19.710792 
C 190.915436 21.383665 191.495492 22.791547 192.198319 23.800646 
" clip-path="url(#pc955cacdf6)" style="fill: none; stroke: #000000; stroke-width: 2; stroke-linejoin: miter"/>
   </g>
   <g id="line2d_1">
    <path d="M 4.68 14.240323 
L 55.44 14.240323 
M 55.44 5.240323 
L 55.44 23.240323 
M 61.92 5.240323 
L 61.92 23.240323 
M 61.92 14.240323 
L 112.68 14.240323 
" clip-path="url(#pc955cacdf6)" style="fill: none; stroke: #000000; stroke-width: 2; stroke-linecap: round"/>
   </g>
   <g id="line2d_2">
    <path d="M 134.28 14.240323 
L 185.04 14.240323 
M 185.04 5.240323 
L 185.04 23.240323 
M 191.52 14.240323 
L 242.28 14.240323 
" clip-path="url(#pc955cacdf6)" style="fill: none; stroke: #000000; stroke-width: 2; stroke-linecap: round"/>
   </g>
  </g>
 </g>
 <defs>
  <clipPath id="pc955cacdf6">
   <rect x="0" y="0" width="246.96" height="28.480646"/>
  </clipPath>
 </defs>
</svg>
