<?xml version="1.0" encoding="utf-8" standalone="no"?>
<!DOCTYPE svg PUBLIC "-//W3C//DTD SVG 1.1//EN"
  "http://www.w3.org/Graphics/SVG/1.1/DTD/svg11.dtd">
<svg xmlns:xlink="http://www.w3.org/1999/xlink" width="270.156pt" height="259.2pt" viewBox="0 0 270.156 259.2" xmlns="http://www.w3.org/2000/svg" version="1.1">
 <metadata>
  <rdf:RDF xmlns:dc="http://purl.org/dc/elements/1.1/" xmlns:cc="http://creativecommons.org/ns#" xmlns:rdf="http://www.w3.org/1999/02/22-rdf-syntax-ns#">
   <cc:Work>
    <dc:type rdf:resource="http://purl.org/dc/dcmitype/StillImage"/>
    <dc:date>2025-04-13T09:42:53.025679</dc:date>
    <dc:format>image/svg+xml</dc:format>
    <dc:creator>
     <cc:Agent>
      <dc:title>Matplotlib v3.10.1, https://matplotlib.org/</dc:title>
     </cc:Agent>
    </dc:creator>
   </cc:Work>
  </rdf:RDF>
 </metadata>
 <defs>
  <style type="text/css">*{stroke-linejoin: round; stroke-linecap: butt}</style>
 </defs>
 <g id="figure_1">
  <g id="patch_1">
   <path d="M 0 259.2 
L 270.156 259.2 
L 270.156 0 
L 0 0 
z
" style="fill: #ffffff"/>
  </g>
  <g id="axes_1">
   <g id="patch_2">
    <path d="M 22.68 141.48 
C 27.453656 141.48 32.032438 139.583406 35.407922 136.207922 
C 38.783406 132.832438 40.68 128.253656 40.68 123.48 
C 40.68 118.706344 38.783406 114.127562 35.407922 110.752078 
C 32.032438 107.376594 27.453656 105.48 22.68 105.48 
C 17.906344 105.48 13.327562 107.376594 9.952078 110.752078 
C 6.576594 114.127562 4.68 118.706344 4.68 123.48 
C 4.68 128.253656 6.576594 132.832438 9.952078 136.207922 
C 13.327562 139.583406 17.906344 141.48 22.68 141.48 
L 22.68 141.48 
z
" clip-path="url(#p8e87cb63db)" style="fill: none; stroke: #000000; stroke-width: 2; stroke-linejoin: miter"/>
   </g>
   <g id="line2d_1">
    <path d="M 22.68 177.48 
L 22.68 141.48 
L 22.68 141.48 
M 22.68 105.48 
L 22.68 105.48 
L 22.68 69.48 
" clip-path="url(#p8e87cb63db)" style="fill: none; stroke: #000000; stroke-width: 2; stroke-linecap: round"/>
   </g>
   <g id="line2d_2">
    <path d="M 26.28 132.48 
L 19.08 132.48 
" clip-path="url(#p8e87cb63db)" style="fill: none; stroke: #000000; stroke-width: 2; stroke-linecap: round"/>
   </g>
   <g id="line2d_3">
    <path d="M 22.68 118.08 
L 22.68 110.88 
" clip-path="url(#p8e87cb63db)" style="fill: none; stroke: #000000; stroke-width: 2; stroke-linecap: round"/>
   </g>
   <g id="line2d_4">
    <path d="M 26.28 114.48 
L 19.08 114.48 
" clip-path="url(#p8e87cb63db)" style="fill: none; stroke: #000000; stroke-width: 2; stroke-linecap: round"/>
   </g>
   <g id="line2d_5">
    <path d="M 22.68 69.48 
L 22.68 42.48 
L 22.68 15.48 
" clip-path="url(#p8e87cb63db)" style="fill: none; stroke: #000000; stroke-width: 2; stroke-linecap: round"/>
   </g>
   <g id="line2d_6">
    <path d="M 22.68 15.48 
L 76.68 15.48 
L 130.68 15.48 
" clip-path="url(#p8e87cb63db)" style="fill: none; stroke: #000000; stroke-width: 2; stroke-linecap: round"/>
   </g>
   <g id="line2d_7">
    <path d="M 130.68 15.48 
L 130.68 51.48 
L 139.68 51.48 
L 139.68 87.48 
L 121.68 87.48 
L 121.68 51.48 
L 130.68 51.48 
M 130.68 87.48 
L 130.68 123.48 
" clip-path="url(#p8e87cb63db)" style="fill: none; stroke: #000000; stroke-width: 2; stroke-linecap: round"/>
   </g>
   <g id="line2d_8">
    <path d="M 130.68 123.48 
L 130.68 159.48 
L 139.68 159.48 
L 139.68 195.48 
L 121.68 195.48 
L 121.68 159.48 
L 130.68 159.48 
M 130.68 195.48 
L 130.68 231.48 
" clip-path="url(#p8e87cb63db)" style="fill: none; stroke: #000000; stroke-width: 2; stroke-linecap: round"/>
   </g>
   <g id="line2d_9">
    <path d="M 130.68 15.48 
L 184.68 15.48 
L 238.68 15.48 
" clip-path="url(#p8e87cb63db)" style="fill: none; stroke: #000000; stroke-width: 2; stroke-linecap: round"/>
   </g>
   <g id="line2d_10">
    <path d="M 238.68 15.48 
L 238.68 51.48 
L 247.68 51.48 
L 247.68 87.48 
L 229.68 87.48 
L 229.68 51.48 
L 238.68 51.48 
M 238.68 87.48 
L 238.68 123.48 
" clip-path="url(#p8e87cb63db)" style="fill: none; stroke: #000000; stroke-width: 2; stroke-linecap: round"/>
   </g>
   <g id="line2d_11">
    <path d="M 238.68 123.48 
L 238.68 159.48 
L 247.68 159.48 
L 247.68 195.48 
L 229.68 195.48 
L 229.68 159.48 
L 238.68 159.48 
M 238.68 195.48 
L 238.68 231.48 
" clip-path="url(#p8e87cb63db)" style="fill: none; stroke: #000000; stroke-width: 2; stroke-linecap: round"/>
   </g>
   <g id="line2d_12">
    <path d="M 238.68 231.48 
L 130.68 231.48 
L 22.68 231.48 
" clip-path="url(#p8e87cb63db)" style="fill: none; stroke: #00ffff; stroke-width: 2; stroke-linecap: round"/>
   </g>
   <g id="line2d_13">
    <path d="M 22.68 231.48 
L 22.68 204.48 
L 22.68 177.48 
" clip-path="url(#p8e87cb63db)" style="fill: none; stroke: #000000; stroke-width: 2; stroke-linecap: round"/>
   </g>
   <g id="line2d_14">
    <path d="M 130.68 123.48 
L 166.68 123.48 
L 166.68 114.48 
L 202.68 114.48 
L 202.68 132.48 
L 166.68 132.48 
L 166.68 123.48 
M 202.68 123.48 
L 238.68 123.48 
" clip-path="url(#p8e87cb63db)" style="fill: none; stroke: #000000; stroke-width: 2; stroke-linecap: round"/>
   </g>
   <g id="line2d_15">
    <path d="M 130.68 231.48 
L 130.68 245.88 
L 121.68 245.88 
L 139.68 245.88 
M 124.38 250.2 
L 136.98 250.2 
M 128.88 254.52 
L 132.48 254.52 
" clip-path="url(#p8e87cb63db)" style="fill: none; stroke: #00ffff; stroke-width: 2; stroke-linecap: round"/>
   </g>
   <g id="text_1">
    <!-- $U_0$ -->
    <g transform="translate(44.28 127.343125) scale(0.14 -0.14)">
     <defs>
      <path id="DejaVuSans-Oblique-55" d="M 991 4666 
L 1625 4666 
L 1075 1831 
Q 1041 1641 1027 1517 
Q 1013 1394 1013 1300 
Q 1013 869 1253 645 
Q 1494 422 1959 422 
Q 2563 422 2898 753 
Q 3234 1084 3378 1831 
L 3928 4666 
L 4563 4666 
L 4000 1753 
Q 3816 809 3300 359 
Q 2784 -91 1888 -91 
Q 1188 -91 780 261 
Q 372 613 372 1216 
Q 372 1325 387 1461 
Q 403 1597 434 1753 
L 991 4666 
z
" transform="scale(0.015625)"/>
      <path id="DejaVuSans-30" d="M 2034 4250 
Q 1547 4250 1301 3770 
Q 1056 3291 1056 2328 
Q 1056 1369 1301 889 
Q 1547 409 2034 409 
Q 2525 409 2770 889 
Q 3016 1369 3016 2328 
Q 3016 3291 2770 3770 
Q 2525 4250 2034 4250 
z
M 2034 4750 
Q 2819 4750 3233 4129 
Q 3647 3509 3647 2328 
Q 3647 1150 3233 529 
Q 2819 -91 2034 -91 
Q 1250 -91 836 529 
Q 422 1150 422 2328 
Q 422 3509 836 4129 
Q 1250 4750 2034 4750 
z
" transform="scale(0.015625)"/>
     </defs>
     <use xlink:href="#DejaVuSans-Oblique-55" transform="translate(0 0.09375)"/>
     <use xlink:href="#DejaVuSans-30" transform="translate(73.193359 -16.3125) scale(0.7)"/>
    </g>
   </g>
   <g id="text_2">
    <!-- $R_1$ -->
    <g transform="translate(101.7 73.343125) scale(0.14 -0.14)">
     <defs>
      <path id="DejaVuSans-Oblique-52" d="M 1613 4147 
L 1294 2491 
L 2106 2491 
Q 2584 2491 2879 2755 
Q 3175 3019 3175 3444 
Q 3175 3784 2976 3965 
Q 2778 4147 2406 4147 
L 1613 4147 
z
M 2772 2241 
Q 2972 2194 3105 2009 
Q 3238 1825 3413 1275 
L 3809 0 
L 3144 0 
L 2778 1197 
Q 2638 1659 2453 1815 
Q 2269 1972 1888 1972 
L 1191 1972 
L 806 0 
L 172 0 
L 1081 4666 
L 2503 4666 
Q 3150 4666 3495 4373 
Q 3841 4081 3841 3531 
Q 3841 3044 3547 2687 
Q 3253 2331 2772 2241 
z
" transform="scale(0.015625)"/>
      <path id="DejaVuSans-31" d="M 794 531 
L 1825 531 
L 1825 4091 
L 703 3866 
L 703 4441 
L 1819 4666 
L 2450 4666 
L 2450 531 
L 3481 531 
L 3481 0 
L 794 0 
L 794 531 
z
" transform="scale(0.015625)"/>
     </defs>
     <use xlink:href="#DejaVuSans-Oblique-52" transform="translate(0 0.09375)"/>
     <use xlink:href="#DejaVuSans-31" transform="translate(69.482422 -16.3125) scale(0.7)"/>
    </g>
   </g>
   <g id="text_3">
    <!-- $R_2$ -->
    <g transform="translate(101.7 181.343125) scale(0.14 -0.14)">
     <defs>
      <path id="DejaVuSans-32" d="M 1228 531 
L 3431 531 
L 3431 0 
L 469 0 
L 469 531 
Q 828 903 1448 1529 
Q 2069 2156 2228 2338 
Q 2531 2678 2651 2914 
Q 2772 3150 2772 3378 
Q 2772 3750 2511 3984 
Q 2250 4219 1831 4219 
Q 1534 4219 1204 4116 
Q 875 4013 500 3803 
L 500 4441 
Q 881 4594 1212 4672 
Q 1544 4750 1819 4750 
Q 2544 4750 2975 4387 
Q 3406 4025 3406 3419 
Q 3406 3131 3298 2873 
Q 3191 2616 2906 2266 
Q 2828 2175 2409 1742 
Q 1991 1309 1228 531 
z
" transform="scale(0.015625)"/>
     </defs>
     <use xlink:href="#DejaVuSans-Oblique-52" transform="translate(0 0.09375)"/>
     <use xlink:href="#DejaVuSans-32" transform="translate(69.482422 -16.3125) scale(0.7)"/>
    </g>
   </g>
   <g id="text_4">
    <!-- $R_4$ -->
    <g transform="translate(209.7 73.343125) scale(0.14 -0.14)">
     <defs>
      <path id="DejaVuSans-34" d="M 2419 4116 
L 825 1625 
L 2419 1625 
L 2419 4116 
z
M 2253 4666 
L 3047 4666 
L 3047 1625 
L 3713 1625 
L 3713 1100 
L 3047 1100 
L 3047 0 
L 2419 0 
L 2419 1100 
L 313 1100 
L 313 1709 
L 2253 4666 
z
" transform="scale(0.015625)"/>
     </defs>
     <use xlink:href="#DejaVuSans-Oblique-52" transform="translate(0 0.09375)"/>
     <use xlink:href="#DejaVuSans-34" transform="translate(69.482422 -16.3125) scale(0.7)"/>
    </g>
   </g>
   <g id="text_5">
    <!-- $R_5$ -->
    <g transform="translate(209.7 181.343125) scale(0.14 -0.14)">
     <defs>
      <path id="DejaVuSans-35" d="M 691 4666 
L 3169 4666 
L 3169 4134 
L 1269 4134 
L 1269 2991 
Q 1406 3038 1543 3061 
Q 1681 3084 1819 3084 
Q 2600 3084 3056 2656 
Q 3513 2228 3513 1497 
Q 3513 744 3044 326 
Q 2575 -91 1722 -91 
Q 1428 -91 1123 -41 
Q 819 9 494 109 
L 494 744 
Q 775 591 1075 516 
Q 1375 441 1709 441 
Q 2250 441 2565 725 
Q 2881 1009 2881 1497 
Q 2881 1984 2565 2268 
Q 2250 2553 1709 2553 
Q 1456 2553 1204 2497 
Q 953 2441 691 2322 
L 691 4666 
z
" transform="scale(0.015625)"/>
     </defs>
     <use xlink:href="#DejaVuSans-Oblique-52" transform="translate(0 0.09375)"/>
     <use xlink:href="#DejaVuSans-35" transform="translate(69.482422 -16.3125) scale(0.7)"/>
    </g>
   </g>
   <g id="text_6">
    <!-- $R_3$ -->
    <g transform="translate(176.49 107.968437) scale(0.14 -0.14)">
     <defs>
      <path id="DejaVuSans-33" d="M 2597 2516 
Q 3050 2419 3304 2112 
Q 3559 1806 3559 1356 
Q 3559 666 3084 287 
Q 2609 -91 1734 -91 
Q 1441 -91 1130 -33 
Q 819 25 488 141 
L 488 750 
Q 750 597 1062 519 
Q 1375 441 1716 441 
Q 2309 441 2620 675 
Q 2931 909 2931 1356 
Q 2931 1769 2642 2001 
Q 2353 2234 1838 2234 
L 1294 2234 
L 1294 2753 
L 1863 2753 
Q 2328 2753 2575 2939 
Q 2822 3125 2822 3475 
Q 2822 3834 2567 4026 
Q 2313 4219 1838 4219 
Q 1578 4219 1281 4162 
Q 984 4106 628 3988 
L 628 4550 
Q 988 4650 1302 4700 
Q 1616 4750 1894 4750 
Q 2613 4750 3031 4423 
Q 3450 4097 3450 3541 
Q 3450 3153 3228 2886 
Q 3006 2619 2597 2516 
z
" transform="scale(0.015625)"/>
     </defs>
     <use xlink:href="#DejaVuSans-Oblique-52" transform="translate(0 0.09375)"/>
     <use xlink:href="#DejaVuSans-33" transform="translate(69.482422 -16.3125) scale(0.7)"/>
    </g>
   </g>
   <g id="line2d_16">
    <path d="M 91.08 15.48 
L 91.08 15.48 
" clip-path="url(#p8e87cb63db)" style="fill: none; stroke: #000000; stroke-width: 2; stroke-linecap: round"/>
   </g>
   <g id="patch_3">
    <path d="M 91.08 10.08 
L 101.88 15.48 
L 91.08 20.88 
z
" clip-path="url(#p8e87cb63db)"/>
   </g>
   <g id="text_7">
    <!-- $I_0$ -->
    <g transform="translate(91.09 36.917812) scale(0.14 -0.14)">
     <defs>
      <path id="DejaVuSans-Oblique-49" d="M 1081 4666 
L 1716 4666 
L 806 0 
L 172 0 
L 1081 4666 
z
" transform="scale(0.015625)"/>
     </defs>
     <use xlink:href="#DejaVuSans-Oblique-49" transform="translate(0 0.09375)"/>
     <use xlink:href="#DejaVuSans-30" transform="translate(29.492188 -16.3125) scale(0.7)"/>
    </g>
   </g>
   <g id="patch_4">
    <path d="M 130.68 18.18 
C 131.396048 18.18 132.082866 17.895511 132.589188 17.389188 
C 133.095511 16.882866 133.38 16.196048 133.38 15.48 
C 133.38 14.763952 133.095511 14.077134 132.589188 13.570812 
C 132.082866 13.064489 131.396048 12.78 130.68 12.78 
C 129.963952 12.78 129.277134 13.064489 128.770812 13.570812 
C 128.264489 14.077134 127.98 14.763952 127.98 15.48 
C 127.98 16.196048 128.264489 16.882866 128.770812 17.389188 
C 129.277134 17.895511 129.963952 18.18 130.68 18.18 
z
" clip-path="url(#p8e87cb63db)" style="fill: #ff0000; stroke: #ff0000; stroke-width: 2; stroke-linejoin: miter"/>
   </g>
   <g id="text_8">
    <!-- $V_a=U_0$ -->
    <g style="fill: #ff0000" transform="translate(138.02 35.068437) scale(0.14 -0.14)">
     <defs>
      <path id="DejaVuSans-Oblique-56" d="M 1319 0 
L 500 4666 
L 1119 4666 
L 1797 653 
L 4063 4666 
L 4750 4666 
L 2053 0 
L 1319 0 
z
" transform="scale(0.015625)"/>
      <path id="DejaVuSans-Oblique-61" d="M 3438 1997 
L 3047 0 
L 2472 0 
L 2578 531 
Q 2325 219 2001 64 
Q 1678 -91 1281 -91 
Q 834 -91 548 182 
Q 263 456 263 884 
Q 263 1497 752 1853 
Q 1241 2209 2100 2209 
L 2900 2209 
L 2931 2363 
Q 2938 2388 2941 2417 
Q 2944 2447 2944 2509 
Q 2944 2788 2717 2942 
Q 2491 3097 2081 3097 
Q 1800 3097 1504 3025 
Q 1209 2953 897 2809 
L 997 3341 
Q 1322 3463 1633 3523 
Q 1944 3584 2234 3584 
Q 2853 3584 3176 3315 
Q 3500 3047 3500 2534 
Q 3500 2431 3484 2292 
Q 3469 2153 3438 1997 
z
M 2816 1759 
L 2241 1759 
Q 1534 1759 1195 1570 
Q 856 1381 856 984 
Q 856 709 1029 553 
Q 1203 397 1509 397 
Q 1978 397 2328 733 
Q 2678 1069 2791 1631 
L 2816 1759 
z
" transform="scale(0.015625)"/>
      <path id="DejaVuSans-3d" d="M 678 2906 
L 4684 2906 
L 4684 2381 
L 678 2381 
L 678 2906 
z
M 678 1631 
L 4684 1631 
L 4684 1100 
L 678 1100 
L 678 1631 
z
" transform="scale(0.015625)"/>
     </defs>
     <use xlink:href="#DejaVuSans-Oblique-56" transform="translate(0 0.09375)"/>
     <use xlink:href="#DejaVuSans-Oblique-61" transform="translate(68.408203 -16.3125) scale(0.7)"/>
     <use xlink:href="#DejaVuSans-3d" transform="translate(133.520508 0.09375)"/>
     <use xlink:href="#DejaVuSans-Oblique-55" transform="translate(236.791992 0.09375)"/>
     <use xlink:href="#DejaVuSans-30" transform="translate(309.985352 -16.3125) scale(0.7)"/>
    </g>
   </g>
   <g id="patch_5">
    <path d="M 130.68 126.18 
C 131.396048 126.18 132.082866 125.895511 132.589188 125.389188 
C 133.095511 124.882866 133.38 124.196048 133.38 123.48 
C 133.38 122.763952 133.095511 122.077134 132.589188 121.570812 
C 132.082866 121.064489 131.396048 120.78 130.68 120.78 
C 129.963952 120.78 129.277134 121.064489 128.770812 121.570812 
C 128.264489 122.077134 127.98 122.763952 127.98 123.48 
C 127.98 124.196048 128.264489 124.882866 128.770812 125.389188 
C 129.277134 125.895511 129.963952 126.18 130.68 126.18 
z
" clip-path="url(#p8e87cb63db)" style="fill: #ff0000; stroke: #ff0000; stroke-width: 2; stroke-linejoin: miter"/>
   </g>
   <g id="text_9">
    <!-- $V_b$ -->
    <g style="fill: #ff0000" transform="translate(108.14 127.343125) scale(0.14 -0.14)">
     <defs>
      <path id="DejaVuSans-Oblique-62" d="M 3169 2138 
Q 3169 2591 2961 2847 
Q 2753 3103 2388 3103 
Q 2122 3103 1889 2973 
Q 1656 2844 1484 2597 
Q 1303 2338 1198 1995 
Q 1094 1653 1094 1313 
Q 1094 881 1298 636 
Q 1503 391 1863 391 
Q 2134 391 2365 517 
Q 2597 644 2772 891 
Q 2950 1147 3059 1487 
Q 3169 1828 3169 2138 
z
M 1381 2969 
Q 1594 3256 1914 3420 
Q 2234 3584 2584 3584 
Q 3122 3584 3439 3221 
Q 3756 2859 3756 2241 
Q 3756 1734 3570 1259 
Q 3384 784 3041 416 
Q 2816 172 2522 40 
Q 2228 -91 1906 -91 
Q 1566 -91 1316 65 
Q 1066 222 909 531 
L 806 0 
L 231 0 
L 1178 4863 
L 1753 4863 
L 1381 2969 
z
" transform="scale(0.015625)"/>
     </defs>
     <use xlink:href="#DejaVuSans-Oblique-56" transform="translate(0 0.09375)"/>
     <use xlink:href="#DejaVuSans-Oblique-62" transform="translate(68.408203 -16.3125) scale(0.7)"/>
    </g>
   </g>
   <g id="patch_6">
    <path d="M 130.68 234.18 
C 131.396048 234.18 132.082866 233.895511 132.589188 233.389188 
C 133.095511 232.882866 133.38 232.196048 133.38 231.48 
C 133.38 230.763952 133.095511 230.077134 132.589188 229.570812 
C 132.082866 229.064489 131.396048 228.78 130.68 228.78 
C 129.963952 228.78 129.277134 229.064489 128.770812 229.570812 
C 128.264489 230.077134 127.98 230.763952 127.98 231.48 
C 127.98 232.196048 128.264489 232.882866 128.770812 233.389188 
C 129.277134 233.895511 129.963952 234.18 130.68 234.18 
z
" clip-path="url(#p8e87cb63db)" style="fill: #ff0000; stroke: #ff0000; stroke-width: 2; stroke-linejoin: miter"/>
   </g>
   <g id="text_10">
    <!-- $V_c=0$ -->
    <g style="fill: #ff0000" transform="translate(135.09 225.868437) scale(0.14 -0.14)">
     <defs>
      <path id="DejaVuSans-Oblique-63" d="M 3431 3366 
L 3316 2797 
Q 3109 2947 2876 3022 
Q 2644 3097 2394 3097 
Q 2119 3097 1870 3000 
Q 1622 2903 1453 2725 
Q 1184 2453 1037 2087 
Q 891 1722 891 1331 
Q 891 859 1127 628 
Q 1363 397 1844 397 
Q 2081 397 2348 469 
Q 2616 541 2906 684 
L 2797 116 
Q 2547 13 2283 -39 
Q 2019 -91 1741 -91 
Q 1044 -91 669 257 
Q 294 606 294 1253 
Q 294 1797 489 2255 
Q 684 2713 1069 3078 
Q 1331 3328 1684 3456 
Q 2038 3584 2456 3584 
Q 2700 3584 2940 3529 
Q 3181 3475 3431 3366 
z
" transform="scale(0.015625)"/>
     </defs>
     <use xlink:href="#DejaVuSans-Oblique-56" transform="translate(0 0.78125)"/>
     <use xlink:href="#DejaVuSans-Oblique-63" transform="translate(68.408203 -15.625) scale(0.7)"/>
     <use xlink:href="#DejaVuSans-3d" transform="translate(129.111328 0.78125)"/>
     <use xlink:href="#DejaVuSans-30" transform="translate(232.382812 0.78125)"/>
    </g>
   </g>
   <g id="patch_7">
    <path d="M 238.68 126.18 
C 239.396048 126.18 240.082866 125.895511 240.589188 125.389188 
C 241.095511 124.882866 241.38 124.196048 241.38 123.48 
C 241.38 122.763952 241.095511 122.077134 240.589188 121.570812 
C 240.082866 121.064489 239.396048 120.78 238.68 120.78 
C 237.963952 120.78 237.277134 121.064489 236.770812 121.570812 
C 236.264489 122.077134 235.98 122.763952 235.98 123.48 
C 235.98 124.196048 236.264489 124.882866 236.770812 125.389188 
C 237.277134 125.895511 237.963952 126.18 238.68 126.18 
z
" clip-path="url(#p8e87cb63db)" style="fill: #ff0000; stroke: #ff0000; stroke-width: 2; stroke-linejoin: miter"/>
   </g>
   <g id="text_11">
    <!-- $V_d$ -->
    <g style="fill: #ff0000" transform="translate(244.98 127.343125) scale(0.14 -0.14)">
     <defs>
      <path id="DejaVuSans-Oblique-64" d="M 2675 525 
Q 2444 222 2128 65 
Q 1813 -91 1428 -91 
Q 903 -91 598 267 
Q 294 625 294 1247 
Q 294 1766 478 2236 
Q 663 2706 1013 3078 
Q 1244 3325 1534 3454 
Q 1825 3584 2144 3584 
Q 2481 3584 2739 3421 
Q 2997 3259 3138 2956 
L 3513 4863 
L 4091 4863 
L 3144 0 
L 2566 0 
L 2675 525 
z
M 891 1350 
Q 891 897 1095 644 
Q 1300 391 1663 391 
Q 1931 391 2161 520 
Q 2391 650 2566 903 
Q 2750 1166 2856 1509 
Q 2963 1853 2963 2188 
Q 2963 2622 2758 2865 
Q 2553 3109 2194 3109 
Q 1922 3109 1687 2981 
Q 1453 2853 1288 2613 
Q 1106 2353 998 2009 
Q 891 1666 891 1350 
z
" transform="scale(0.015625)"/>
     </defs>
     <use xlink:href="#DejaVuSans-Oblique-56" transform="translate(0 0.09375)"/>
     <use xlink:href="#DejaVuSans-Oblique-64" transform="translate(68.408203 -16.3125) scale(0.7)"/>
    </g>
   </g>
  </g>
 </g>
 <defs>
  <clipPath id="p8e87cb63db">
   <rect x="0" y="0" width="270.156" height="259.2"/>
  </clipPath>
 </defs>
</svg>
