<?xml version="1.0" encoding="utf-8" standalone="no"?>
<!DOCTYPE svg PUBLIC "-//W3C//DTD SVG 1.1//EN"
  "http://www.w3.org/Graphics/SVG/1.1/DTD/svg11.dtd">
<svg xmlns:xlink="http://www.w3.org/1999/xlink" width="258.768pt" height="164.2pt" viewBox="0 0 258.768 164.2" xmlns="http://www.w3.org/2000/svg" version="1.1">
 <metadata>
  <rdf:RDF xmlns:dc="http://purl.org/dc/elements/1.1/" xmlns:cc="http://creativecommons.org/ns#" xmlns:rdf="http://www.w3.org/1999/02/22-rdf-syntax-ns#">
   <cc:Work>
    <dc:type rdf:resource="http://purl.org/dc/dcmitype/StillImage"/>
    <dc:date>2025-04-13T09:42:54.693666</dc:date>
    <dc:format>image/svg+xml</dc:format>
    <dc:creator>
     <cc:Agent>
      <dc:title>Matplotlib v3.10.1, https://matplotlib.org/</dc:title>
     </cc:Agent>
    </dc:creator>
   </cc:Work>
  </rdf:RDF>
 </metadata>
 <defs>
  <style type="text/css">*{stroke-linejoin: round; stroke-linecap: butt}</style>
 </defs>
 <g id="figure_1">
  <g id="patch_1">
   <path d="M 0 164.2 
L 258.768 164.2 
L 258.768 0 
L 0 0 
z
" style="fill: #ffffff"/>
  </g>
  <g id="axes_1">
   <g id="patch_2">
    <path d="M 41.988 100.48 
C 46.761656 100.48 51.340438 98.583406 54.715922 95.207922 
C 58.091406 91.832438 59.988 87.253656 59.988 82.48 
C 59.988 77.706344 58.091406 73.127562 54.715922 69.752078 
C 51.340438 66.376594 46.761656 64.48 41.988 64.48 
C 37.214344 64.48 32.635562 66.376594 29.260078 69.752078 
C 25.884594 73.127562 23.988 77.706344 23.988 82.48 
C 23.988 87.253656 25.884594 91.832438 29.260078 95.207922 
C 32.635562 98.583406 37.214344 100.48 41.988 100.48 
L 41.988 100.48 
z
" clip-path="url(#p371a840ad9)" style="fill: none; stroke: #000000; stroke-width: 2; stroke-linejoin: miter"/>
   </g>
   <g id="patch_3">
    <path d="M 221.988 100.48 
C 226.761656 100.48 231.340438 98.583406 234.715922 95.207922 
C 238.091406 91.832438 239.988 87.253656 239.988 82.48 
C 239.988 77.706344 238.091406 73.127562 234.715922 69.752078 
C 231.340438 66.376594 226.761656 64.48 221.988 64.48 
C 217.214344 64.48 212.635562 66.376594 209.260078 69.752078 
C 205.884594 73.127562 203.988 77.706344 203.988 82.48 
C 203.988 87.253656 205.884594 91.832438 209.260078 95.207922 
C 212.635562 98.583406 217.214344 100.48 221.988 100.48 
L 221.988 100.48 
z
" clip-path="url(#p371a840ad9)" style="fill: none; stroke: #000000; stroke-width: 2; stroke-linejoin: miter"/>
   </g>
   <g id="line2d_1">
    <path d="M 41.988 136.48 
L 41.988 100.48 
L 41.988 100.48 
M 41.988 64.48 
L 41.988 64.48 
L 41.988 28.48 
" clip-path="url(#p371a840ad9)" style="fill: none; stroke: #000000; stroke-width: 2; stroke-linecap: round"/>
   </g>
   <g id="line2d_2">
    <path d="M 45.588 91.48 
L 38.388 91.48 
" clip-path="url(#p371a840ad9)" style="fill: none; stroke: #000000; stroke-width: 2; stroke-linecap: round"/>
   </g>
   <g id="line2d_3">
    <path d="M 41.988 77.08 
L 41.988 69.88 
" clip-path="url(#p371a840ad9)" style="fill: none; stroke: #000000; stroke-width: 2; stroke-linecap: round"/>
   </g>
   <g id="line2d_4">
    <path d="M 45.588 73.48 
L 38.388 73.48 
" clip-path="url(#p371a840ad9)" style="fill: none; stroke: #000000; stroke-width: 2; stroke-linecap: round"/>
   </g>
   <g id="line2d_5">
    <path d="M 41.988 28.48 
L 77.988 28.48 
L 77.988 19.48 
L 113.988 19.48 
L 113.988 37.48 
L 77.988 37.48 
L 77.988 28.48 
M 113.988 28.48 
L 149.988 28.48 
" clip-path="url(#p371a840ad9)" style="fill: none; stroke: #000000; stroke-width: 2; stroke-linecap: round"/>
   </g>
   <g id="line2d_6">
    <path d="M 149.988 28.48 
L 149.988 64.48 
L 158.988 64.48 
L 158.988 100.48 
L 140.988 100.48 
L 140.988 64.48 
L 149.988 64.48 
M 149.988 100.48 
L 149.988 136.48 
" clip-path="url(#p371a840ad9)" style="fill: none; stroke: #000000; stroke-width: 2; stroke-linecap: round"/>
   </g>
   <g id="line2d_7">
    <path d="M 149.988 136.48 
L 149.988 150.88 
L 140.988 150.88 
L 158.988 150.88 
M 143.688 155.2 
L 156.288 155.2 
M 148.188 159.52 
L 151.788 159.52 
" clip-path="url(#p371a840ad9)" style="fill: none; stroke: #000000; stroke-width: 2; stroke-linecap: round"/>
   </g>
   <g id="line2d_8">
    <path d="M 149.988 136.48 
L 95.988 136.48 
L 41.988 136.48 
" clip-path="url(#p371a840ad9)" style="fill: none; stroke: #000000; stroke-width: 2; stroke-linecap: round"/>
   </g>
   <g id="line2d_9">
    <path d="M 149.988 136.48 
L 185.988 136.48 
L 221.988 136.48 
" clip-path="url(#p371a840ad9)" style="fill: none; stroke: #000000; stroke-width: 2; stroke-linecap: round"/>
   </g>
   <g id="line2d_10">
    <path d="M 221.988 136.48 
L 221.988 100.48 
L 221.988 100.48 
M 221.988 64.48 
L 221.988 64.48 
L 221.988 28.48 
" clip-path="url(#p371a840ad9)" style="fill: none; stroke: #000000; stroke-width: 2; stroke-linecap: round"/>
   </g>
   <g id="line2d_11">
    <path d="M 221.988 91.48 
L 221.988 82.48 
" clip-path="url(#p371a840ad9)" style="fill: none; stroke: #000000; stroke-width: 2; stroke-linecap: round"/>
   </g>
   <g id="patch_4">
    <path d="M 219.288 82.48 
L 221.988 73.48 
L 224.688 82.48 
z
" clip-path="url(#p371a840ad9)"/>
   </g>
   <g id="line2d_12">
    <path d="M 221.988 28.48 
L 185.988 28.48 
L 149.988 28.48 
" clip-path="url(#p371a840ad9)" style="fill: none; stroke: #000000; stroke-width: 2; stroke-linecap: round"/>
   </g>
   <g id="text_1">
    <!-- $U_0$ -->
    <g transform="translate(3.448 86.343125) scale(0.14 -0.14)">
     <defs>
      <path id="DejaVuSans-Oblique-55" d="M 991 4666 
L 1625 4666 
L 1075 1831 
Q 1041 1641 1027 1517 
Q 1013 1394 1013 1300 
Q 1013 869 1253 645 
Q 1494 422 1959 422 
Q 2563 422 2898 753 
Q 3234 1084 3378 1831 
L 3928 4666 
L 4563 4666 
L 4000 1753 
Q 3816 809 3300 359 
Q 2784 -91 1888 -91 
Q 1188 -91 780 261 
Q 372 613 372 1216 
Q 372 1325 387 1461 
Q 403 1597 434 1753 
L 991 4666 
z
" transform="scale(0.015625)"/>
      <path id="DejaVuSans-30" d="M 2034 4250 
Q 1547 4250 1301 3770 
Q 1056 3291 1056 2328 
Q 1056 1369 1301 889 
Q 1547 409 2034 409 
Q 2525 409 2770 889 
Q 3016 1369 3016 2328 
Q 3016 3291 2770 3770 
Q 2525 4250 2034 4250 
z
M 2034 4750 
Q 2819 4750 3233 4129 
Q 3647 3509 3647 2328 
Q 3647 1150 3233 529 
Q 2819 -91 2034 -91 
Q 1250 -91 836 529 
Q 422 1150 422 2328 
Q 422 3509 836 4129 
Q 1250 4750 2034 4750 
z
" transform="scale(0.015625)"/>
     </defs>
     <use xlink:href="#DejaVuSans-Oblique-55" transform="translate(0 0.09375)"/>
     <use xlink:href="#DejaVuSans-30" transform="translate(73.193359 -16.3125) scale(0.7)"/>
    </g>
   </g>
   <g id="text_2">
    <!-- $R_1$ -->
    <g transform="translate(87.798 12.968438) scale(0.14 -0.14)">
     <defs>
      <path id="DejaVuSans-Oblique-52" d="M 1613 4147 
L 1294 2491 
L 2106 2491 
Q 2584 2491 2879 2755 
Q 3175 3019 3175 3444 
Q 3175 3784 2976 3965 
Q 2778 4147 2406 4147 
L 1613 4147 
z
M 2772 2241 
Q 2972 2194 3105 2009 
Q 3238 1825 3413 1275 
L 3809 0 
L 3144 0 
L 2778 1197 
Q 2638 1659 2453 1815 
Q 2269 1972 1888 1972 
L 1191 1972 
L 806 0 
L 172 0 
L 1081 4666 
L 2503 4666 
Q 3150 4666 3495 4373 
Q 3841 4081 3841 3531 
Q 3841 3044 3547 2687 
Q 3253 2331 2772 2241 
z
" transform="scale(0.015625)"/>
      <path id="DejaVuSans-31" d="M 794 531 
L 1825 531 
L 1825 4091 
L 703 3866 
L 703 4441 
L 1819 4666 
L 2450 4666 
L 2450 531 
L 3481 531 
L 3481 0 
L 794 0 
L 794 531 
z
" transform="scale(0.015625)"/>
     </defs>
     <use xlink:href="#DejaVuSans-Oblique-52" transform="translate(0 0.09375)"/>
     <use xlink:href="#DejaVuSans-31" transform="translate(69.482422 -16.3125) scale(0.7)"/>
    </g>
   </g>
   <g id="text_3">
    <!-- $R_2$ -->
    <g transform="translate(121.008 86.343125) scale(0.14 -0.14)">
     <defs>
      <path id="DejaVuSans-32" d="M 1228 531 
L 3431 531 
L 3431 0 
L 469 0 
L 469 531 
Q 828 903 1448 1529 
Q 2069 2156 2228 2338 
Q 2531 2678 2651 2914 
Q 2772 3150 2772 3378 
Q 2772 3750 2511 3984 
Q 2250 4219 1831 4219 
Q 1534 4219 1204 4116 
Q 875 4013 500 3803 
L 500 4441 
Q 881 4594 1212 4672 
Q 1544 4750 1819 4750 
Q 2544 4750 2975 4387 
Q 3406 4025 3406 3419 
Q 3406 3131 3298 2873 
Q 3191 2616 2906 2266 
Q 2828 2175 2409 1742 
Q 1991 1309 1228 531 
z
" transform="scale(0.015625)"/>
     </defs>
     <use xlink:href="#DejaVuSans-Oblique-52" transform="translate(0 0.09375)"/>
     <use xlink:href="#DejaVuSans-32" transform="translate(69.482422 -16.3125) scale(0.7)"/>
    </g>
   </g>
   <g id="text_4">
    <!-- $I_0$ -->
    <g transform="translate(243.588 86.343125) scale(0.14 -0.14)">
     <defs>
      <path id="DejaVuSans-Oblique-49" d="M 1081 4666 
L 1716 4666 
L 806 0 
L 172 0 
L 1081 4666 
z
" transform="scale(0.015625)"/>
     </defs>
     <use xlink:href="#DejaVuSans-Oblique-49" transform="translate(0 0.09375)"/>
     <use xlink:href="#DejaVuSans-30" transform="translate(29.492188 -16.3125) scale(0.7)"/>
    </g>
   </g>
   <g id="patch_5">
    <path d="M 149.988 31.18 
C 150.704048 31.18 151.390866 30.895511 151.897188 30.389188 
C 152.403511 29.882866 152.688 29.196048 152.688 28.48 
C 152.688 27.763952 152.403511 27.077134 151.897188 26.570812 
C 151.390866 26.064489 150.704048 25.78 149.988 25.78 
C 149.271952 25.78 148.585134 26.064489 148.078812 26.570812 
C 147.572489 27.077134 147.288 27.763952 147.288 28.48 
C 147.288 29.196048 147.572489 29.882866 148.078812 30.389188 
C 148.585134 30.895511 149.271952 31.18 149.988 31.18 
z
" clip-path="url(#p371a840ad9)" style="stroke: #000000; stroke-width: 2; stroke-linejoin: miter"/>
   </g>
   <g id="text_5">
    <!-- $V_1$ -->
    <g transform="translate(141.868 19.268438) scale(0.14 -0.14)">
     <defs>
      <path id="DejaVuSans-Oblique-56" d="M 1319 0 
L 500 4666 
L 1119 4666 
L 1797 653 
L 4063 4666 
L 4750 4666 
L 2053 0 
L 1319 0 
z
" transform="scale(0.015625)"/>
     </defs>
     <use xlink:href="#DejaVuSans-Oblique-56" transform="translate(0 0.09375)"/>
     <use xlink:href="#DejaVuSans-31" transform="translate(68.408203 -16.3125) scale(0.7)"/>
    </g>
   </g>
   <g id="patch_6">
    <path d="M 149.988 139.18 
C 150.704048 139.18 151.390866 138.895511 151.897188 138.389188 
C 152.403511 137.882866 152.688 137.196048 152.688 136.48 
C 152.688 135.763952 152.403511 135.077134 151.897188 134.570812 
C 151.390866 134.064489 150.704048 133.78 149.988 133.78 
C 149.271952 133.78 148.585134 134.064489 148.078812 134.570812 
C 147.572489 135.077134 147.288 135.763952 147.288 136.48 
C 147.288 137.196048 147.572489 137.882866 148.078812 138.389188 
C 148.585134 138.895511 149.271952 139.18 149.988 139.18 
z
" clip-path="url(#p371a840ad9)" style="stroke: #000000; stroke-width: 2; stroke-linejoin: miter"/>
   </g>
  </g>
 </g>
 <defs>
  <clipPath id="p371a840ad9">
   <rect x="0" y="0" width="258.768" height="164.2"/>
  </clipPath>
 </defs>
</svg>
