<?xml version="1.0" encoding="utf-8" standalone="no"?>
<!DOCTYPE svg PUBLIC "-//W3C//DTD SVG 1.1//EN"
  "http://www.w3.org/Graphics/SVG/1.1/DTD/svg11.dtd">
<svg xmlns:xlink="http://www.w3.org/1999/xlink" width="246.96pt" height="30.150355pt" viewBox="0 0 246.96 30.150355" xmlns="http://www.w3.org/2000/svg" version="1.1">
 <metadata>
  <rdf:RDF xmlns:dc="http://purl.org/dc/elements/1.1/" xmlns:cc="http://creativecommons.org/ns#" xmlns:rdf="http://www.w3.org/1999/02/22-rdf-syntax-ns#">
   <cc:Work>
    <dc:type rdf:resource="http://purl.org/dc/dcmitype/StillImage"/>
    <dc:date>2025-04-13T09:42:52.043812</dc:date>
    <dc:format>image/svg+xml</dc:format>
    <dc:creator>
     <cc:Agent>
      <dc:title>Matplotlib v3.10.1, https://matplotlib.org/</dc:title>
     </cc:Agent>
    </dc:creator>
   </cc:Work>
  </rdf:RDF>
 </metadata>
 <defs>
  <style type="text/css">*{stroke-linejoin: round; stroke-linecap: butt}</style>
 </defs>
 <g id="figure_1">
  <g id="patch_1">
   <path d="M 0 30.150355 
L 246.96 30.150355 
L 246.96 0 
L 0 0 
z
" style="fill: #ffffff"/>
  </g>
  <g id="axes_1">
   <g id="patch_2">
    <path d="M 49.68 18.358884 
C 49.68 17.165868 49.205571 16.020494 48.361981 15.176904 
C 47.51839 14.333314 46.373016 13.858884 45.18 13.858884 
C 43.986984 13.858884 42.84161 14.333314 41.998019 15.176904 
C 41.154429 16.020494 40.68 17.165868 40.68 18.358884 
" clip-path="url(#pf4da686bdf)" style="fill: none; stroke: #000000; stroke-width: 2; stroke-linejoin: miter"/>
   </g>
   <g id="patch_3">
    <path d="M 58.68 18.358884 
C 58.68 17.165868 58.205571 16.020494 57.361981 15.176904 
C 56.51839 14.333314 55.373016 13.858884 54.18 13.858884 
C 52.986984 13.858884 51.84161 14.333314 50.998019 15.176904 
C 50.154429 16.020494 49.68 17.165868 49.68 18.358884 
" clip-path="url(#pf4da686bdf)" style="fill: none; stroke: #000000; stroke-width: 2; stroke-linejoin: miter"/>
   </g>
   <g id="patch_4">
    <path d="M 67.68 18.358884 
C 67.68 17.165868 67.205571 16.020494 66.361981 15.176904 
C 65.51839 14.333314 64.373016 13.858884 63.18 13.858884 
C 61.986984 13.858884 60.84161 14.333314 59.998019 15.176904 
C 59.154429 16.020494 58.68 17.165868 58.68 18.358884 
" clip-path="url(#pf4da686bdf)" style="fill: none; stroke: #000000; stroke-width: 2; stroke-linejoin: miter"/>
   </g>
   <g id="patch_5">
    <path d="M 76.68 18.358884 
C 76.68 17.165868 76.205571 16.020494 75.361981 15.176904 
C 74.51839 14.333314 73.373016 13.858884 72.18 13.858884 
C 70.986984 13.858884 69.84161 14.333314 68.998019 15.176904 
C 68.154429 16.020494 67.68 17.165868 67.68 18.358884 
" clip-path="url(#pf4da686bdf)" style="fill: none; stroke: #000000; stroke-width: 2; stroke-linejoin: miter"/>
   </g>
   <g id="line2d_1">
    <path d="M 4.68 18.358884 
L 40.68 18.358884 
M 76.68 18.358884 
L 112.68 18.358884 
" clip-path="url(#pf4da686bdf)" style="fill: none; stroke: #000000; stroke-width: 2; stroke-linecap: round"/>
   </g>
   <g id="line2d_2">
    <path d="M 134.28 18.358884 
L 170.28 18.358884 
L 170.41407 15.394698 
L 170.82176 12.403778 
L 171.494001 9.636968 
L 172.399538 7.326316 
L 172.924567 6.404576 
L 173.487547 5.665613 
L 174.079767 5.125003 
L 174.691902 4.794141 
L 175.314207 4.68 
L 175.93672 4.784987 
L 176.549478 5.106888 
L 177.142723 5.63892 
L 177.707106 6.369866 
L 178.233888 7.284321 
L 179.143825 9.583193 
L 179.821342 12.342734 
L 180.23474 15.331505 
L 180.374472 18.298842 
L 180.253942 20.995879 
L 179.908382 23.19642 
L 179.391898 24.715908 
L 179.090537 25.177873 
L 178.772928 25.426908 
L 178.448923 25.457763 
L 178.128509 25.269788 
L 177.821597 24.866945 
L 177.286292 23.45497 
L 176.913029 21.340259 
L 176.758236 18.700169 
L 176.860019 15.75612 
L 177.234963 12.755026 
L 177.876748 9.948584 
L 178.756671 7.572165 
L 179.271402 6.609391 
L 179.826057 5.825076 
L 180.412102 5.235753 
L 181.020342 4.853843 
L 181.641113 4.687397 
L 182.264487 4.739922 
L 182.880482 5.010312 
L 183.479271 5.492867 
L 184.05139 6.177416 
L 184.587935 7.04953 
L 185.522621 9.279355 
L 186.23006 11.995331 
L 186.676046 14.969673 
L 186.848297 17.952928 
L 186.75749 20.694894 
L 186.436365 22.965607 
L 185.936977 24.574626 
L 185.640936 25.086316 
L 185.326332 25.387005 
L 185.002952 25.470355 
L 184.680768 25.33461 
L 184.369731 24.982631 
L 184.079551 24.421836 
L 183.598228 22.725237 
L 183.302289 20.387103 
L 183.241678 17.603529 
L 183.446602 14.607971 
L 183.924998 11.651661 
L 184.661866 8.982539 
L 185.620531 6.824462 
L 186.166371 5.995746 
L 186.745713 5.358424 
L 187.349502 4.92593 
L 187.968169 4.707379 
L 188.591831 4.707379 
L 189.210498 4.92593 
L 189.814287 5.358424 
L 190.393629 5.995746 
L 190.939469 6.824462 
L 191.44346 7.827105 
L 192.297065 10.266412 
L 192.907979 13.109087 
L 193.250087 16.116719 
L 193.319821 19.037063 
L 193.136457 21.625193 
L 192.740496 23.664048 
L 192.190269 24.982631 
L 191.879232 25.33461 
L 191.557048 25.470355 
L 191.233668 25.387005 
L 190.919064 25.086316 
L 190.623023 24.574626 
L 190.123635 22.965607 
L 189.80251 20.694894 
L 189.711703 17.952928 
L 189.883954 14.969673 
L 190.32994 11.995331 
L 191.037379 9.279355 
L 191.972065 7.04953 
L 192.50861 6.177416 
L 193.080729 5.492867 
L 193.679518 5.010312 
L 194.295513 4.739922 
L 194.918887 4.687397 
L 195.539658 4.853843 
L 196.147898 5.235753 
L 196.733943 5.825076 
L 197.288598 6.609391 
L 197.803329 7.572165 
L 198.683252 9.948584 
L 199.325037 12.755026 
L 199.699981 15.75612 
L 199.801764 18.700169 
L 199.646971 21.340259 
L 199.273708 23.45497 
L 198.738403 24.866945 
L 198.431491 25.269788 
L 198.111077 25.457763 
L 197.787072 25.426908 
L 197.469463 25.177873 
L 197.168102 24.715908 
L 196.651618 23.19642 
L 196.306058 20.995879 
L 196.185528 18.298842 
L 196.32526 15.331505 
L 196.738658 12.342734 
L 197.416175 9.583193 
L 198.326112 7.284321 
L 198.852894 6.369866 
L 199.417277 5.63892 
L 200.010522 5.106888 
L 200.62328 4.784987 
L 201.245793 4.68 
L 201.868098 4.794141 
L 202.480233 5.125003 
L 203.072453 5.665613 
L 203.635433 6.404576 
L 204.160462 7.326316 
L 205.065999 9.636968 
L 205.73824 12.403778 
L 206.14593 15.394698 
L 206.28 18.358884 
L 242.28 18.358884 
L 242.28 18.358884 
" clip-path="url(#pf4da686bdf)" style="fill: none; stroke: #000000; stroke-width: 2; stroke-linecap: round"/>
   </g>
  </g>
 </g>
 <defs>
  <clipPath id="pf4da686bdf">
   <rect x="0" y="0" width="246.96" height="30.150355"/>
  </clipPath>
 </defs>
</svg>
