<?xml version="1.0" encoding="utf-8" standalone="no"?>
<!DOCTYPE svg PUBLIC "-//W3C//DTD SVG 1.1//EN"
  "http://www.w3.org/Graphics/SVG/1.1/DTD/svg11.dtd">
<svg xmlns:xlink="http://www.w3.org/1999/xlink" width="211.02pt" height="277.6pt" viewBox="0 0 211.02 277.6" xmlns="http://www.w3.org/2000/svg" version="1.1">
 <metadata>
  <rdf:RDF xmlns:dc="http://purl.org/dc/elements/1.1/" xmlns:cc="http://creativecommons.org/ns#" xmlns:rdf="http://www.w3.org/1999/02/22-rdf-syntax-ns#">
   <cc:Work>
    <dc:type rdf:resource="http://purl.org/dc/dcmitype/StillImage"/>
    <dc:date>2025-05-19T18:55:51.268337</dc:date>
    <dc:format>image/svg+xml</dc:format>
    <dc:creator>
     <cc:Agent>
      <dc:title>Matplotlib v3.10.3, https://matplotlib.org/</dc:title>
     </cc:Agent>
    </dc:creator>
   </cc:Work>
  </rdf:RDF>
 </metadata>
 <defs>
  <style type="text/css">*{stroke-linejoin: round; stroke-linecap: butt}</style>
 </defs>
 <g id="figure_1">
  <g id="patch_1">
   <path d="M 0 277.6 
L 211.02 277.6 
L 211.02 0 
L 0 0 
z
" style="fill: #ffffff"/>
  </g>
  <g id="axes_1">
   <g id="patch_2">
    <path d="M 138.78 161.68 
C 144.031021 161.68 149.067681 159.593747 152.780714 155.880714 
C 156.493747 152.167681 158.58 147.131021 158.58 141.88 
C 158.58 136.628979 156.493747 131.592319 152.780714 127.879286 
C 149.067681 124.166253 144.031021 122.08 138.78 122.08 
C 133.528979 122.08 128.492319 124.166253 124.779286 127.879286 
C 121.066253 131.592319 118.98 136.628979 118.98 141.88 
C 118.98 147.131021 121.066253 152.167681 124.779286 155.880714 
C 128.492319 159.593747 133.528979 161.68 138.78 161.68 
L 138.78 161.68 
z
" clip-path="url(#p8829d95f8d)" style="fill: none; stroke: #000000; stroke-width: 2; stroke-linejoin: miter"/>
   </g>
   <g id="line2d_1">
    <path d="M 7.38 141.88 
L 32.94 141.88 
M 32.94 132.88 
L 32.94 150.88 
M 39.42 132.88 
L 39.42 150.88 
M 39.42 141.88 
L 64.98 141.88 
" clip-path="url(#p8829d95f8d)" style="fill: none; stroke: #000000; stroke-width: 2; stroke-linecap: round"/>
   </g>
   <g id="line2d_2">
    <path d="M 64.98 141.88 
L 64.98 105.88 
L 55.98 105.88 
L 55.98 69.88 
L 73.98 69.88 
L 73.98 105.88 
L 64.98 105.88 
M 64.98 69.88 
L 64.98 33.88 
" clip-path="url(#p8829d95f8d)" style="fill: none; stroke: #000000; stroke-width: 2; stroke-linecap: round"/>
   </g>
   <g id="line2d_3">
    <path d="M 64.98 141.88 
L 64.98 177.88 
L 73.98 177.88 
L 73.98 213.88 
L 55.98 213.88 
L 55.98 177.88 
L 64.98 177.88 
M 64.98 213.88 
L 64.98 249.88 
" clip-path="url(#p8829d95f8d)" style="fill: none; stroke: #000000; stroke-width: 2; stroke-linecap: round"/>
   </g>
   <g id="line2d_4">
    <path d="M 64.98 141.88 
L 91.98 141.88 
L 118.98 141.88 
" clip-path="url(#p8829d95f8d)" style="fill: none; stroke: #000000; stroke-width: 2; stroke-linecap: round"/>
   </g>
   <g id="line2d_5">
    <path d="M 118.98 141.88 
L 132.18 141.88 
" clip-path="url(#p8829d95f8d)" style="fill: none; stroke: #000000; stroke-width: 2; stroke-linecap: round"/>
   </g>
   <g id="line2d_6">
    <path d="M 132.18 128.68 
L 132.18 155.08 
" clip-path="url(#p8829d95f8d)" style="fill: none; stroke: #000000; stroke-width: 2; stroke-linecap: round"/>
   </g>
   <g id="line2d_7">
    <path d="M 132.18 135.28 
L 146.04 123.4 
L 146.04 116.8 
" clip-path="url(#p8829d95f8d)" style="fill: none; stroke: #000000; stroke-width: 2; stroke-linecap: round"/>
   </g>
   <g id="line2d_8">
    <path d="M 132.18 148.48 
L 146.04 160.36 
L 146.04 166.96 
" clip-path="url(#p8829d95f8d)" style="fill: none; stroke: #000000; stroke-width: 2; stroke-linecap: round"/>
   </g>
   <g id="line2d_9">
    <path d="M 132.18 148.48 
L 139.206691 154.502878 
" clip-path="url(#p8829d95f8d)" style="fill: none; stroke: #000000; stroke-width: 2; stroke-linecap: round"/>
   </g>
   <g id="patch_3">
    <path d="M 141.54954 151.769554 
L 146.04 160.36 
L 136.863842 157.236201 
z
" clip-path="url(#p8829d95f8d)"/>
   </g>
   <g id="line2d_10">
    <path d="M 146.04 116.8 
L 146.04 93.34 
L 137.04 93.34 
L 137.04 57.34 
L 155.04 57.34 
L 155.04 93.34 
L 146.04 93.34 
M 146.04 57.34 
L 146.04 33.88 
" clip-path="url(#p8829d95f8d)" style="fill: none; stroke: #000000; stroke-width: 2; stroke-linecap: round"/>
   </g>
   <g id="line2d_11">
    <path d="M 146.04 33.88 
L 105.51 33.88 
L 64.98 33.88 
" clip-path="url(#p8829d95f8d)" style="fill: none; stroke: #000000; stroke-width: 2; stroke-linecap: round"/>
   </g>
   <g id="line2d_12">
    <path d="M 146.04 166.96 
L 146.04 190.42 
L 155.04 190.42 
L 155.04 226.42 
L 137.04 226.42 
L 137.04 190.42 
L 146.04 190.42 
M 146.04 226.42 
L 146.04 249.88 
" clip-path="url(#p8829d95f8d)" style="fill: none; stroke: #000000; stroke-width: 2; stroke-linecap: round"/>
   </g>
   <g id="line2d_13">
    <path d="M 146.04 249.88 
L 146.04 264.28 
L 137.04 264.28 
L 155.04 264.28 
M 139.74 268.6 
L 152.34 268.6 
M 144.24 272.92 
L 147.84 272.92 
" clip-path="url(#p8829d95f8d)" style="fill: none; stroke: #000000; stroke-width: 2; stroke-linecap: round"/>
   </g>
   <g id="line2d_14">
    <path d="M 146.04 249.88 
L 105.51 249.88 
L 64.98 249.88 
" clip-path="url(#p8829d95f8d)" style="fill: none; stroke: #000000; stroke-width: 2; stroke-linecap: round"/>
   </g>
   <g id="line2d_15">
    <path d="M 146.04 33.88 
L 146.04 19.48 
" clip-path="url(#p8829d95f8d)" style="fill: none; stroke: #000000; stroke-width: 2; stroke-linecap: round"/>
   </g>
   <g id="line2d_16">
    <path d="M 146.04 19.48 
L 139.29 19.48 
" clip-path="url(#p8829d95f8d)" style="fill: none; stroke: #000000; stroke-width: 2; stroke-linecap: round"/>
   </g>
   <g id="line2d_17">
    <path d="M 146.04 19.48 
L 152.79 19.48 
" clip-path="url(#p8829d95f8d)" style="fill: none; stroke: #000000; stroke-width: 2; stroke-linecap: round"/>
   </g>
   <g id="line2d_18">
    <path d="M 146.04 116.8 
L 171.6 116.8 
M 171.6 107.8 
L 171.6 125.8 
M 178.08 107.8 
L 178.08 125.8 
M 178.08 116.8 
L 203.64 116.8 
" clip-path="url(#p8829d95f8d)" style="fill: none; stroke: #000000; stroke-width: 2; stroke-linecap: round"/>
   </g>
   <g id="line2d_19">
    <path d="M 146.04 166.96 
L 159.54 166.96 
L 173.04 166.96 
" clip-path="url(#p8829d95f8d)" style="fill: none; stroke: #000000; stroke-width: 2; stroke-linecap: round"/>
   </g>
   <g id="line2d_20">
    <path d="M 173.04 166.96 
L 173.04 205.18 
M 182.04 205.18 
L 164.04 205.18 
M 182.04 211.66 
L 164.04 211.66 
M 173.04 211.66 
L 173.04 249.88 
" clip-path="url(#p8829d95f8d)" style="fill: none; stroke: #000000; stroke-width: 2; stroke-linecap: round"/>
   </g>
   <g id="line2d_21">
    <path d="M 173.04 249.88 
L 159.54 249.88 
L 146.04 249.88 
" clip-path="url(#p8829d95f8d)" style="fill: none; stroke: #000000; stroke-width: 2; stroke-linecap: round"/>
   </g>
   <g id="patch_4">
    <path d="M 7.38 144.58 
C 8.096048 144.58 8.782866 144.295511 9.289188 143.789188 
C 9.795511 143.282866 10.08 142.596048 10.08 141.88 
C 10.08 141.163952 9.795511 140.477134 9.289188 139.970812 
C 8.782866 139.464489 8.096048 139.18 7.38 139.18 
C 6.663952 139.18 5.977134 139.464489 5.470812 139.970812 
C 4.964489 140.477134 4.68 141.163952 4.68 141.88 
C 4.68 142.596048 4.964489 143.282866 5.470812 143.789188 
C 5.977134 144.295511 6.663952 144.58 7.38 144.58 
z
" clip-path="url(#p8829d95f8d)" style="fill: #ffffff; stroke: #000000; stroke-width: 2; stroke-linejoin: miter"/>
   </g>
   <g id="text_1">
    <!-- $C_1$ -->
    <g transform="translate(26.57 126.368437) scale(0.14 -0.14)">
     <defs>
      <path id="DejaVuSans-Oblique-43" d="M 4447 4306 
L 4319 3641 
Q 4019 3944 3683 4091 
Q 3347 4238 2956 4238 
Q 2422 4238 2017 3981 
Q 1613 3725 1319 3200 
Q 1131 2863 1032 2486 
Q 934 2109 934 1728 
Q 934 1091 1264 756 
Q 1594 422 2222 422 
Q 2656 422 3056 561 
Q 3456 700 3834 978 
L 3688 231 
Q 3316 72 2936 -9 
Q 2556 -91 2175 -91 
Q 1278 -91 773 396 
Q 269 884 269 1753 
Q 269 2309 461 2846 
Q 653 3384 1013 3828 
Q 1394 4300 1883 4525 
Q 2372 4750 3022 4750 
Q 3422 4750 3780 4639 
Q 4138 4528 4447 4306 
z
" transform="scale(0.015625)"/>
      <path id="DejaVuSans-31" d="M 794 531 
L 1825 531 
L 1825 4091 
L 703 3866 
L 703 4441 
L 1819 4666 
L 2450 4666 
L 2450 531 
L 3481 531 
L 3481 0 
L 794 0 
L 794 531 
z
" transform="scale(0.015625)"/>
     </defs>
     <use xlink:href="#DejaVuSans-Oblique-43" transform="translate(0 0.78125)"/>
     <use xlink:href="#DejaVuSans-31" transform="translate(69.824219 -15.625) scale(0.7)"/>
    </g>
   </g>
   <g id="patch_5">
    <path d="M 64.98 144.58 
C 65.696048 144.58 66.382866 144.295511 66.889188 143.789188 
C 67.395511 143.282866 67.68 142.596048 67.68 141.88 
C 67.68 141.163952 67.395511 140.477134 66.889188 139.970812 
C 66.382866 139.464489 65.696048 139.18 64.98 139.18 
C 64.263952 139.18 63.577134 139.464489 63.070812 139.970812 
C 62.564489 140.477134 62.28 141.163952 62.28 141.88 
C 62.28 142.596048 62.564489 143.282866 63.070812 143.789188 
C 63.577134 144.295511 64.263952 144.58 64.98 144.58 
z
" clip-path="url(#p8829d95f8d)" style="stroke: #000000; stroke-width: 2; stroke-linejoin: miter"/>
   </g>
   <g id="text_2">
    <!-- $R_1$ -->
    <g transform="translate(36 93.093125) scale(0.14 -0.14)">
     <defs>
      <path id="DejaVuSans-Oblique-52" d="M 1613 4147 
L 1294 2491 
L 2106 2491 
Q 2584 2491 2879 2755 
Q 3175 3019 3175 3444 
Q 3175 3784 2976 3965 
Q 2778 4147 2406 4147 
L 1613 4147 
z
M 2772 2241 
Q 2972 2194 3105 2009 
Q 3238 1825 3413 1275 
L 3809 0 
L 3144 0 
L 2778 1197 
Q 2638 1659 2453 1815 
Q 2269 1972 1888 1972 
L 1191 1972 
L 806 0 
L 172 0 
L 1081 4666 
L 2503 4666 
Q 3150 4666 3495 4373 
Q 3841 4081 3841 3531 
Q 3841 3044 3547 2687 
Q 3253 2331 2772 2241 
z
" transform="scale(0.015625)"/>
     </defs>
     <use xlink:href="#DejaVuSans-Oblique-52" transform="translate(0 0.09375)"/>
     <use xlink:href="#DejaVuSans-31" transform="translate(69.482422 -16.3125) scale(0.7)"/>
    </g>
   </g>
   <g id="text_3">
    <!-- $R_2$ -->
    <g transform="translate(36 199.743125) scale(0.14 -0.14)">
     <defs>
      <path id="DejaVuSans-32" d="M 1228 531 
L 3431 531 
L 3431 0 
L 469 0 
L 469 531 
Q 828 903 1448 1529 
Q 2069 2156 2228 2338 
Q 2531 2678 2651 2914 
Q 2772 3150 2772 3378 
Q 2772 3750 2511 3984 
Q 2250 4219 1831 4219 
Q 1534 4219 1204 4116 
Q 875 4013 500 3803 
L 500 4441 
Q 881 4594 1212 4672 
Q 1544 4750 1819 4750 
Q 2544 4750 2975 4387 
Q 3406 4025 3406 3419 
Q 3406 3131 3298 2873 
Q 3191 2616 2906 2266 
Q 2828 2175 2409 1742 
Q 1991 1309 1228 531 
z
" transform="scale(0.015625)"/>
     </defs>
     <use xlink:href="#DejaVuSans-Oblique-52" transform="translate(0 0.09375)"/>
     <use xlink:href="#DejaVuSans-32" transform="translate(69.482422 -16.3125) scale(0.7)"/>
    </g>
   </g>
   <g id="patch_6">
    <path d="M 146.04 36.58 
C 146.756048 36.58 147.442866 36.295511 147.949188 35.789188 
C 148.455511 35.282866 148.74 34.596048 148.74 33.88 
C 148.74 33.163952 148.455511 32.477134 147.949188 31.970812 
C 147.442866 31.464489 146.756048 31.18 146.04 31.18 
C 145.323952 31.18 144.637134 31.464489 144.130812 31.970812 
C 143.624489 32.477134 143.34 33.163952 143.34 33.88 
C 143.34 34.596048 143.624489 35.282866 144.130812 35.789188 
C 144.637134 36.295511 145.323952 36.58 146.04 36.58 
z
" clip-path="url(#p8829d95f8d)" style="stroke: #000000; stroke-width: 2; stroke-linejoin: miter"/>
   </g>
   <g id="text_4">
    <!-- $R_c$ -->
    <g transform="translate(158.64 77.853125) scale(0.14 -0.14)">
     <defs>
      <path id="DejaVuSans-Oblique-63" d="M 3431 3366 
L 3316 2797 
Q 3109 2947 2876 3022 
Q 2644 3097 2394 3097 
Q 2119 3097 1870 3000 
Q 1622 2903 1453 2725 
Q 1184 2453 1037 2087 
Q 891 1722 891 1331 
Q 891 859 1127 628 
Q 1363 397 1844 397 
Q 2081 397 2348 469 
Q 2616 541 2906 684 
L 2797 116 
Q 2547 13 2283 -39 
Q 2019 -91 1741 -91 
Q 1044 -91 669 257 
Q 294 606 294 1253 
Q 294 1797 489 2255 
Q 684 2713 1069 3078 
Q 1331 3328 1684 3456 
Q 2038 3584 2456 3584 
Q 2700 3584 2940 3529 
Q 3181 3475 3431 3366 
z
" transform="scale(0.015625)"/>
     </defs>
     <use xlink:href="#DejaVuSans-Oblique-52" transform="translate(0 0.09375)"/>
     <use xlink:href="#DejaVuSans-Oblique-63" transform="translate(69.482422 -16.3125) scale(0.7)"/>
    </g>
   </g>
   <g id="text_5">
    <!-- $R_e$ -->
    <g transform="translate(117.2 212.283125) scale(0.14 -0.14)">
     <defs>
      <path id="DejaVuSans-Oblique-65" d="M 3078 2063 
Q 3088 2113 3092 2166 
Q 3097 2219 3097 2272 
Q 3097 2653 2873 2875 
Q 2650 3097 2266 3097 
Q 1838 3097 1509 2826 
Q 1181 2556 1013 2059 
L 3078 2063 
z
M 3578 1613 
L 903 1613 
Q 884 1494 878 1425 
Q 872 1356 872 1306 
Q 872 872 1139 634 
Q 1406 397 1894 397 
Q 2269 397 2603 481 
Q 2938 566 3225 728 
L 3116 159 
Q 2806 34 2476 -28 
Q 2147 -91 1806 -91 
Q 1078 -91 686 257 
Q 294 606 294 1247 
Q 294 1794 489 2264 
Q 684 2734 1063 3103 
Q 1306 3334 1642 3459 
Q 1978 3584 2356 3584 
Q 2950 3584 3301 3228 
Q 3653 2872 3653 2272 
Q 3653 2128 3634 1964 
Q 3616 1800 3578 1613 
z
" transform="scale(0.015625)"/>
     </defs>
     <use xlink:href="#DejaVuSans-Oblique-52" transform="translate(0 0.09375)"/>
     <use xlink:href="#DejaVuSans-Oblique-65" transform="translate(69.482422 -16.3125) scale(0.7)"/>
    </g>
   </g>
   <g id="text_6">
    <!-- Vcc -->
    <g transform="translate(133.55375 12.968438) scale(0.14 -0.14)">
     <defs>
      <path id="DejaVuSans-56" d="M 1831 0 
L 50 4666 
L 709 4666 
L 2188 738 
L 3669 4666 
L 4325 4666 
L 2547 0 
L 1831 0 
z
" transform="scale(0.015625)"/>
      <path id="DejaVuSans-63" d="M 3122 3366 
L 3122 2828 
Q 2878 2963 2633 3030 
Q 2388 3097 2138 3097 
Q 1578 3097 1268 2742 
Q 959 2388 959 1747 
Q 959 1106 1268 751 
Q 1578 397 2138 397 
Q 2388 397 2633 464 
Q 2878 531 3122 666 
L 3122 134 
Q 2881 22 2623 -34 
Q 2366 -91 2075 -91 
Q 1284 -91 818 406 
Q 353 903 353 1747 
Q 353 2603 823 3093 
Q 1294 3584 2113 3584 
Q 2378 3584 2631 3529 
Q 2884 3475 3122 3366 
z
" transform="scale(0.015625)"/>
     </defs>
     <use xlink:href="#DejaVuSans-56"/>
     <use xlink:href="#DejaVuSans-63" transform="translate(68.408203 0)"/>
     <use xlink:href="#DejaVuSans-63" transform="translate(123.388672 0)"/>
    </g>
   </g>
   <g id="patch_7">
    <path d="M 203.64 119.5 
C 204.356048 119.5 205.042866 119.215511 205.549188 118.709188 
C 206.055511 118.202866 206.34 117.516048 206.34 116.8 
C 206.34 116.083952 206.055511 115.397134 205.549188 114.890812 
C 205.042866 114.384489 204.356048 114.1 203.64 114.1 
C 202.923952 114.1 202.237134 114.384489 201.730812 114.890812 
C 201.224489 115.397134 200.94 116.083952 200.94 116.8 
C 200.94 117.516048 201.224489 118.202866 201.730812 118.709188 
C 202.237134 119.215511 202.923952 119.5 203.64 119.5 
z
" clip-path="url(#p8829d95f8d)" style="fill: #ffffff; stroke: #000000; stroke-width: 2; stroke-linejoin: miter"/>
   </g>
   <g id="patch_8">
    <path d="M 146.04 119.5 
C 146.756048 119.5 147.442866 119.215511 147.949188 118.709188 
C 148.455511 118.202866 148.74 117.516048 148.74 116.8 
C 148.74 116.083952 148.455511 115.397134 147.949188 114.890812 
C 147.442866 114.384489 146.756048 114.1 146.04 114.1 
C 145.323952 114.1 144.637134 114.384489 144.130812 114.890812 
C 143.624489 115.397134 143.34 116.083952 143.34 116.8 
C 143.34 117.516048 143.624489 118.202866 144.130812 118.709188 
C 144.637134 119.215511 145.323952 119.5 146.04 119.5 
z
" clip-path="url(#p8829d95f8d)" style="stroke: #000000; stroke-width: 2; stroke-linejoin: miter"/>
   </g>
   <g id="text_7">
    <!-- $C_2$ -->
    <g transform="translate(166.58 101.288437) scale(0.14 -0.14)">
     <use xlink:href="#DejaVuSans-Oblique-43" transform="translate(0 0.78125)"/>
     <use xlink:href="#DejaVuSans-32" transform="translate(69.824219 -15.625) scale(0.7)"/>
    </g>
   </g>
   <g id="patch_9">
    <path d="M 146.04 169.66 
C 146.756048 169.66 147.442866 169.375511 147.949188 168.869188 
C 148.455511 168.362866 148.74 167.676048 148.74 166.96 
C 148.74 166.243952 148.455511 165.557134 147.949188 165.050812 
C 147.442866 164.544489 146.756048 164.26 146.04 164.26 
C 145.323952 164.26 144.637134 164.544489 144.130812 165.050812 
C 143.624489 165.557134 143.34 166.243952 143.34 166.96 
C 143.34 167.676048 143.624489 168.362866 144.130812 168.869188 
C 144.637134 169.375511 145.323952 169.66 146.04 169.66 
z
" clip-path="url(#p8829d95f8d)" style="stroke: #000000; stroke-width: 2; stroke-linejoin: miter"/>
   </g>
   <g id="text_8">
    <!-- $C_e$ -->
    <g transform="translate(185.64 212.283125) scale(0.14 -0.14)">
     <use xlink:href="#DejaVuSans-Oblique-43" transform="translate(0 0.78125)"/>
     <use xlink:href="#DejaVuSans-Oblique-65" transform="translate(69.824219 -15.625) scale(0.7)"/>
    </g>
   </g>
   <g id="patch_10">
    <path d="M 146.04 252.58 
C 146.756048 252.58 147.442866 252.295511 147.949188 251.789188 
C 148.455511 251.282866 148.74 250.596048 148.74 249.88 
C 148.74 249.163952 148.455511 248.477134 147.949188 247.970812 
C 147.442866 247.464489 146.756048 247.18 146.04 247.18 
C 145.323952 247.18 144.637134 247.464489 144.130812 247.970812 
C 143.624489 248.477134 143.34 249.163952 143.34 249.88 
C 143.34 250.596048 143.624489 251.282866 144.130812 251.789188 
C 144.637134 252.295511 145.323952 252.58 146.04 252.58 
z
" clip-path="url(#p8829d95f8d)" style="stroke: #000000; stroke-width: 2; stroke-linejoin: miter"/>
   </g>
  </g>
 </g>
 <defs>
  <clipPath id="p8829d95f8d">
   <rect x="0" y="0" width="211.02" height="277.6"/>
  </clipPath>
 </defs>
</svg>
