<?xml version="1.0" encoding="UTF-8" standalone="no"?>
<!-- Created with Inkscape (http://www.inkscape.org/) -->

<svg
   width="210mm"
   height="180mm"
   viewBox="0 0 210 180"
   version="1.1"
   id="svg944"
   xml:space="preserve"
   xmlns="http://www.w3.org/2000/svg"
   xmlns:svg="http://www.w3.org/2000/svg"><defs
     id="defs941"><rect
       x="523.68975"
       y="230.14314"
       width="153.08554"
       height="147.16568"
       id="rect9149" /><rect
       x="352.95706"
       y="-25.316896"
       width="241.68816"
       height="142.30157"
       id="rect8606" /><rect
       x="352.95706"
       y="-25.316896"
       width="241.68816"
       height="142.30157"
       id="rect8606-3" /><rect
       x="352.95706"
       y="-25.316896"
       width="241.68816"
       height="142.30157"
       id="rect8606-6" /><rect
       x="523.68976"
       y="230.14314"
       width="153.08554"
       height="147.16568"
       id="rect9149-3" /><rect
       x="523.68976"
       y="230.14314"
       width="316.65383"
       height="146.82187"
       id="rect9149-3-0" /></defs><g
     id="layer1"><g
       id="g9659"
       transform="translate(0.24471052,0.88900602)"><path
         id="rect9153-9"
         style="fill:#ffff00;stroke:#000000;stroke-linecap:square"
         d="m 120.55152,84.343719 h 13.82386 v 7.664096 h -13.82386 z" /><path
         id="rect1129"
         style="display:inline;fill:#afc6e9;stroke:#000000;stroke-width:1;stroke-linecap:square;stroke-dasharray:none"
         d="M 49.758863,30.514444 H 111.73445 V 149.64679 H 49.758863 Z" /><path
         id="rect1129-6"
         style="display:inline;fill:#ffff00;stroke:#000000;stroke-width:1;stroke-linecap:square;stroke-dasharray:none"
         d="m 49.758863,53.072539 h 35.34239 v 74.016151 h -35.34239 z" /><rect
         style="display:inline;fill:#ff7f2a;fill-opacity:1;stroke:#000000;stroke-width:1;stroke-linecap:square;stroke-dasharray:none;stroke-opacity:1"
         id="rect4079"
         width="39.326828"
         height="39.326828"
         x="29.808176"
         y="70.417198" /><path
         id="path1512-6-3"
         style="fill:#ffdd55;stroke:#000000;stroke-linecap:square"
         d="m 75.48825,16.891904 c -3e-6,-2.90414 2.354263,-5.25841 5.2584,-5.25841 2.904141,0 5.258413,2.35427 5.25841,5.25841 -5e-6,2.90413 -2.354275,5.2584 -5.25841,5.2584 -2.904131,-10e-6 -5.258395,-2.35427 -5.2584,-5.2584 z m 5.25841,12.62254 v -7.23386" /><path
         id="path1512-6-3-7"
         style="fill:#ffdd55;stroke:#000000;stroke-linecap:square"
         d="m 75.48825,163.26933 c -3e-6,2.90414 2.354263,5.25841 5.2584,5.25841 2.904141,0 5.258413,-2.35427 5.25841,-5.25841 -5e-6,-2.90413 -2.354275,-5.2584 -5.25841,-5.2584 -2.904131,1e-5 -5.258395,2.35427 -5.2584,5.2584 z m 5.25841,-12.62254 v 7.23386" /><path
         id="path1512-6-3-7-5"
         style="fill:#ffdd55;stroke:#000000;stroke-linecap:square"
         d="m 16.185635,84.822211 c -2.90414,0 -5.25841,2.35426 -5.25841,5.2584 0,2.90414 2.35427,5.25841 5.25841,5.25841 2.90413,0 5.2584,-2.35427 5.2584,-5.25841 -10e-6,-2.90413 -2.35427,-5.25839 -5.2584,-5.2584 z m 12.62254,5.25841 h -7.23386" /><text
         xml:space="preserve"
         transform="matrix(0.26458333,0,0,0.26458333,-28.449449,174.41828)"
         id="text8604"
         style="font-style:normal;font-variant:normal;font-weight:normal;font-stretch:normal;font-size:34.6667px;font-family:sans-serif;-inkscape-font-specification:'sans-serif, Normal';font-variant-ligatures:normal;font-variant-caps:normal;font-variant-numeric:normal;font-variant-east-asian:normal;white-space:pre;shape-inside:url(#rect8606);display:inline;fill:#ffff00;fill-opacity:1;stroke:#000000;stroke-width:3.77953;stroke-linecap:square;stroke-dasharray:none;stroke-opacity:1"
         x="57.467499"
         y="0"><tspan
           x="352.95703"
           y="5.3554969"
           id="tspan10132"><tspan
             style="text-align:justify;fill:#000000;stroke:none"
             id="tspan10130">Source</tspan></tspan></text><text
         xml:space="preserve"
         transform="matrix(0,-0.26458333,0.26458333,0,7.1023542,194.46443)"
         id="text8604-2"
         style="font-style:normal;font-variant:normal;font-weight:normal;font-stretch:normal;font-size:34.6667px;font-family:sans-serif;-inkscape-font-specification:'sans-serif, Normal';font-variant-ligatures:normal;font-variant-caps:normal;font-variant-numeric:normal;font-variant-east-asian:normal;white-space:pre;shape-inside:url(#rect8606-6);display:inline;fill:#ffff00;fill-opacity:1;stroke:#000000;stroke-width:3.77953;stroke-linecap:square;stroke-dasharray:none;stroke-opacity:1"
         x="39.617874"
         y="0"><tspan
           x="352.95703"
           y="5.3554969"
           id="tspan10136"><tspan
             style="text-align:justify;fill:#000000;stroke:none"
             id="tspan10134">Gate</tspan></tspan></text><text
         xml:space="preserve"
         transform="matrix(0.26458333,0,0,0.26458333,-25.108391,7.8086228)"
         id="text8604-5"
         style="font-style:normal;font-variant:normal;font-weight:normal;font-stretch:normal;font-size:34.6667px;font-family:sans-serif;-inkscape-font-specification:'sans-serif, Normal';font-variant-ligatures:normal;font-variant-caps:normal;font-variant-numeric:normal;font-variant-east-asian:normal;white-space:pre;shape-inside:url(#rect8606-3);display:inline;fill:#ffff00;fill-opacity:1;stroke:#000000;stroke-width:3.77953;stroke-linecap:square;stroke-dasharray:none;stroke-opacity:1"
         x="43.722694"
         y="0"><tspan
           x="352.95703"
           y="5.3554969"
           id="tspan10140"><tspan
             style="text-align:justify;fill:#000000;stroke:none"
             id="tspan10138">Drain</tspan></tspan></text><path
         id="rect9008-1-7"
         style="stroke:none;stroke-width:0.357735;stroke-linecap:square"
         d="m 96.217865,89.185023 h 2.439732 v 6.098963 h -2.439732 z m 1.21986,-4.30778 2.989865,5.1786 h -5.979725 z" /><path
         id="rect9008-1"
         style="stroke:none;stroke-width:0.357735;stroke-linecap:square"
         d="m 96.217866,121.48973 h 2.439729 v 6.09896 h -2.439729 z m 1.219859,-4.30778 2.989865,5.1786 h -5.979724 z" /><path
         id="rect9008-1-2"
         style="stroke:none;stroke-width:0.357735;stroke-linecap:square"
         d="m 96.217862,56.880319 h 2.43973 v 6.09896 h -2.43973 z m 1.21986,-4.30778 2.989868,5.1786 h -5.979728 z" /><text
         xml:space="preserve"
         transform="matrix(0.26458333,0,0,0.26458333,-0.11229317,5.6823477)"
         id="text9147"
         style="font-style:normal;font-variant:normal;font-weight:normal;font-stretch:normal;font-size:34.6667px;font-family:sans-serif;-inkscape-font-specification:sans-serif;white-space:pre;shape-inside:url(#rect9149);display:inline;fill:#000000;fill-opacity:1;stroke:none;stroke-width:3.77953;stroke-linecap:square;stroke-dasharray:none;stroke-opacity:1"><tspan
           x="523.68945"
           y="260.81448"
           id="tspan10144"><tspan
             style="font-style:italic;-inkscape-font-specification:'sans-serif Italic'"
             id="tspan10142">n-type</tspan></tspan></text><text
         xml:space="preserve"
         transform="matrix(0.26458333,0,0,0.26458333,0.23703983,37.18723)"
         id="text9147-6"
         style="font-style:normal;font-variant:normal;font-weight:normal;font-stretch:normal;font-size:34.6667px;font-family:sans-serif;-inkscape-font-specification:sans-serif;white-space:pre;shape-inside:url(#rect9149-3);display:inline;fill:#000000;fill-opacity:1;stroke:none;stroke-width:3.77953;stroke-linecap:square;stroke-dasharray:none;stroke-opacity:1"><tspan
           x="523.68945"
           y="260.81448"
           id="tspan10148"><tspan
             style="font-style:italic;-inkscape-font-specification:'sans-serif Italic'"
             id="tspan10146">p-type</tspan></tspan></text><text
         xml:space="preserve"
         transform="matrix(0.26458333,0,0,0.26458333,-0.21082299,21.699028)"
         id="text9147-6-6"
         style="font-style:normal;font-variant:normal;font-weight:normal;font-stretch:normal;font-size:34.6667px;font-family:sans-serif;-inkscape-font-specification:sans-serif;white-space:pre;shape-inside:url(#rect9149-3-0);display:inline;fill:#000000;fill-opacity:1;stroke:none;stroke-width:3.77953;stroke-linecap:square;stroke-dasharray:none;stroke-opacity:1"><tspan
           x="523.68945"
           y="260.81448"
           id="tspan10152"><tspan
             style="font-style:italic;-inkscape-font-specification:'sans-serif Italic'"
             id="tspan10150">depletion layer</tspan></tspan></text><path
         id="rect9153"
         style="fill:#ff7f2a;stroke:#000000;stroke-linecap:square"
         d="m 120.55152,68.591278 h 13.82386 v 7.664095 h -13.82386 z" /><path
         id="rect9153-0"
         style="fill:#afc6e9;stroke:#000000;stroke-linecap:square"
         d="m 120.55152,100.09616 h 13.82386 v 7.6641 h -13.82386 z" /></g></g></svg>
