<?xml version="1.0" encoding="UTF-8" standalone="no"?>
<!-- Created with Inkscape (http://www.inkscape.org/) -->
<svg
   xmlns:svg="http://www.w3.org/2000/svg"
   xmlns="http://www.w3.org/2000/svg"
   version="1.0"
   width="300"
   height="299.99899"
   viewBox="-10.573 -12.478 300 299.999"
   id="Layer_1"
   xml:space="preserve"><defs
   id="defs4693" />
<g
   id="g4502">
	
		<rect
   width="226.202"
   height="226.20399"
   x="52.841"
   y="49.029999"
   style="fill:none;stroke:#1b1718;stroke-width:1.62150002;stroke-linecap:square"
   id="rect4504" />
	
		<line
   fill="none"
   stroke="#1B1718"
   stroke-width="1.6215"
   stroke-linecap="square"
   x1="52.841"
   y1="218.68201"
   x2="279.043"
   y2="218.68201"
   id="line4506"
   style="fill:none;stroke:#1b1718;stroke-width:1.62150002;stroke-linecap:square" />
	
		<line
   fill="none"
   stroke="#1B1718"
   stroke-width="1.6215"
   stroke-linecap="square"
   x1="52.841"
   y1="162.131"
   x2="279.043"
   y2="162.131"
   id="line4508"
   style="fill:none;stroke:#1b1718;stroke-width:1.62150002;stroke-linecap:square" />
	
		<line
   fill="none"
   stroke="#1B1718"
   stroke-width="1.6215"
   stroke-linecap="square"
   x1="52.841"
   y1="105.581"
   x2="279.043"
   y2="105.581"
   id="line4510"
   style="fill:none;stroke:#1b1718;stroke-width:1.62150002;stroke-linecap:square" />
	
		<line
   fill="none"
   stroke="#1B1718"
   stroke-width="1.6215"
   stroke-linecap="square"
   x1="222.493"
   y1="49.029999"
   x2="222.493"
   y2="275.23401"
   id="line4512"
   style="fill:none;stroke:#1b1718;stroke-width:1.62150002;stroke-linecap:square" />
	
		<line
   fill="none"
   stroke="#1B1718"
   stroke-width="1.6215"
   stroke-linecap="square"
   x1="165.942"
   y1="49.029999"
   x2="165.942"
   y2="275.23401"
   id="line4514"
   style="fill:none;stroke:#1b1718;stroke-width:1.62150002;stroke-linecap:square" />
	
		<line
   fill="none"
   stroke="#1B1718"
   stroke-width="1.6215"
   stroke-linecap="square"
   x1="109.391"
   y1="49.029999"
   x2="109.391"
   y2="275.23401"
   id="line4516"
   style="fill:none;stroke:#1b1718;stroke-width:1.62150002;stroke-linecap:square" />
</g>
<g
   id="g4518">
	<g
   id="g4520">
		<path
   d="M 120.131,227.398 C 120.131,230.269 120.131,262.631 120.131,265.504 C 123.211,265.504 209.475,265.504 212.555,265.504 C 212.555,262.631 212.555,230.269 212.555,227.398 C 209.475,227.398 123.211,227.398 120.131,227.398 z "
   style="opacity:0.4;fill:#0000ff"
   id="path4522" />
		<path
   d="M 214.176,225.777 L 118.508,225.777 L 118.508,267.126 L 214.176,267.126 L 214.176,263.884 L 214.176,225.777 z M 121.751,229.02 L 210.933,229.02 L 210.933,263.881 L 121.751,263.881 L 121.751,229.02 z "
   style="opacity:0.8;fill:#0000ff"
   id="path4524" />
	</g>
	<g
   id="g4526">
		<path
   d="M 175.267,57.948 C 175.267,61.031 175.267,148.912 175.267,151.996 C 178.349,151.996 266.233,151.996 269.315,151.996 C 269.315,148.912 269.315,61.029 269.315,57.948 C 266.233,57.948 178.349,57.948 175.267,57.948 z "
   style="opacity:0.4;fill:#ff0000"
   id="path4528" />
		<path
   d="M 270.936,56.327 L 173.644,56.327 L 173.644,153.619 L 270.936,153.619 L 270.936,150.375 L 270.936,56.327 z M 176.887,59.57 L 267.693,59.57 L 267.693,150.376 L 176.887,150.376 L 176.887,59.57 L 176.887,59.57 z "
   style="opacity:0.8;fill:#ff0000"
   id="path4530" />
	</g>
	<g
   id="g4532">
		<path
   d="M 232.829,57.948 C 232.829,61.116 232.829,262.334 232.829,265.504 C 235.684,265.504 266.455,265.504 269.311,265.504 C 269.311,262.334 269.311,61.116 269.311,57.948 C 266.455,57.948 235.685,57.948 232.829,57.948 z "
   style="opacity:0.4;fill:#00ff00"
   id="path4534" />
		<path
   d="M 270.933,56.327 L 231.205,56.327 L 231.205,267.125 L 270.933,267.125 L 270.933,263.883 L 270.933,56.327 z M 234.449,59.57 L 267.689,59.57 L 267.689,263.882 L 234.449,263.882 L 234.449,59.57 L 234.449,59.57 z "
   style="opacity:0.8;fill:#00ff00"
   id="path4536" />
	</g>
</g>
<g
   id="g4538">
	<g
   id="g4540">
		<g
   id="g4542">
			<path
   d="M 80.101,83.298 C 76.832,83.298 75.392,80.36 75.373,76.779 C 75.373,73.101 76.91,70.221 80.179,70.221 C 83.545,70.221 84.888,73.237 84.888,76.701 C 84.888,80.593 83.312,83.297 80.12,83.297 L 80.101,83.298 L 80.101,83.298 z M 80.14,81.06 C 81.288,81.06 81.911,79.62 81.911,76.74 C 81.911,73.938 81.307,72.459 80.121,72.459 C 79.012,72.459 78.31,73.879 78.31,76.74 C 78.29,79.659 78.992,81.06 80.121,81.06 L 80.14,81.06 z "
   style="fill:#1b1718"
   id="path4544" />
		</g>
		<g
   id="g4546">
			<path
   d="M 136.853,83.298 C 133.584,83.298 132.144,80.36 132.125,76.779 C 132.125,73.101 133.662,70.221 136.931,70.221 C 140.297,70.221 141.64,73.237 141.64,76.701 C 141.64,80.593 140.064,83.297 136.872,83.297 L 136.853,83.298 L 136.853,83.298 z M 136.892,81.06 C 138.04,81.06 138.663,79.62 138.663,76.74 C 138.663,73.938 138.059,72.459 136.873,72.459 C 135.764,72.459 135.062,73.879 135.062,76.74 C 135.042,79.659 135.744,81.06 136.873,81.06 L 136.892,81.06 z "
   style="fill:#1b1718"
   id="path4548" />
		</g>
		<g
   id="g4550">
			<path
   d="M 192.83,73.062 L 192.791,73.062 L 190.378,74.21 L 189.892,71.992 L 193.258,70.435 L 195.691,70.435 L 195.691,83.083 L 192.832,83.083 L 192.83,73.062 L 192.83,73.062 z "
   style="fill:#1b1718"
   id="path4552" />
		</g>
		<g
   id="g4554">
			<path
   d="M 249.582,73.062 L 249.543,73.062 L 247.13,74.21 L 246.644,71.992 L 250.01,70.435 L 252.443,70.435 L 252.443,83.083 L 249.584,83.083 L 249.582,73.062 L 249.582,73.062 z "
   style="fill:#1b1718"
   id="path4556" />
		</g>
	</g>
	<g
   id="g4558">
		<g
   id="g4560">
			<path
   d="M 80.101,139.78 C 76.832,139.78 75.392,136.842 75.373,133.262 C 75.373,129.584 76.91,126.704 80.179,126.704 C 83.545,126.704 84.888,129.72 84.888,133.184 C 84.888,137.076 83.312,139.78 80.12,139.78 L 80.101,139.78 L 80.101,139.78 z M 80.14,137.542 C 81.288,137.542 81.911,136.102 81.911,133.222 C 81.911,130.42 81.307,128.941 80.121,128.941 C 79.012,128.941 78.31,130.361 78.31,133.222 C 78.29,136.141 78.992,137.542 80.121,137.542 L 80.14,137.542 z "
   style="fill:#1b1718"
   id="path4562" />
		</g>
		<g
   id="g4564">
			<path
   d="M 136.853,139.78 C 133.584,139.78 132.144,136.842 132.125,133.262 C 132.125,129.584 133.662,126.704 136.931,126.704 C 140.297,126.704 141.64,129.72 141.64,133.184 C 141.64,137.076 140.064,139.78 136.872,139.78 L 136.853,139.78 L 136.853,139.78 z M 136.892,137.542 C 138.04,137.542 138.663,136.102 138.663,133.222 C 138.663,130.42 138.059,128.941 136.873,128.941 C 135.764,128.941 135.062,130.361 135.062,133.222 C 135.042,136.141 135.744,137.542 136.873,137.542 L 136.892,137.542 z "
   style="fill:#1b1718"
   id="path4566" />
		</g>
		<g
   id="g4568">
			<path
   d="M 192.83,129.545 L 192.791,129.545 L 190.378,130.693 L 189.892,128.475 L 193.258,126.918 L 195.691,126.918 L 195.691,139.566 L 192.832,139.566 L 192.83,129.545 L 192.83,129.545 z "
   style="fill:#1b1718"
   id="path4570" />
		</g>
		<g
   id="g4572">
			<path
   d="M 249.582,129.545 L 249.543,129.545 L 247.13,130.693 L 246.644,128.475 L 250.01,126.918 L 252.443,126.918 L 252.443,139.566 L 249.584,139.566 L 249.582,129.545 L 249.582,129.545 z "
   style="fill:#1b1718"
   id="path4574" />
		</g>
	</g>
	<g
   id="g4576">
		<g
   id="g4578">
			<path
   d="M 80.101,197.883 C 76.832,197.883 75.392,194.945 75.373,191.365 C 75.373,187.686 76.91,184.806 80.179,184.806 C 83.545,184.806 84.888,187.822 84.888,191.285 C 84.888,195.178 83.312,197.883 80.12,197.883 L 80.101,197.883 L 80.101,197.883 z M 80.14,195.646 C 81.288,195.646 81.911,194.208 81.911,191.327 C 81.911,188.525 81.307,187.046 80.121,187.046 C 79.012,187.046 78.31,188.468 78.31,191.327 C 78.29,194.247 78.992,195.646 80.121,195.646 L 80.14,195.646 z "
   style="fill:#1b1718"
   id="path4580" />
		</g>
		<g
   id="g4582">
			<path
   d="M 136.853,197.883 C 133.584,197.883 132.144,194.945 132.125,191.365 C 132.125,187.686 133.662,184.806 136.931,184.806 C 140.297,184.806 141.64,187.822 141.64,191.285 C 141.64,195.178 140.064,197.883 136.872,197.883 L 136.853,197.883 L 136.853,197.883 z M 136.892,195.646 C 138.04,195.646 138.663,194.208 138.663,191.327 C 138.663,188.525 138.059,187.046 136.873,187.046 C 135.764,187.046 135.062,188.468 135.062,191.327 C 135.042,194.247 135.744,195.646 136.873,195.646 L 136.892,195.646 z "
   style="fill:#1b1718"
   id="path4584" />
		</g>
		<g
   id="g4586">
			<path
   d="M 193.608,197.883 C 190.338,197.883 188.899,194.945 188.879,191.365 C 188.879,187.686 190.416,184.806 193.686,184.806 C 197.052,184.806 198.395,187.822 198.395,191.285 C 198.395,195.178 196.819,197.883 193.627,197.883 L 193.608,197.883 L 193.608,197.883 z M 193.647,195.646 C 194.794,195.646 195.418,194.208 195.418,191.327 C 195.418,188.525 194.814,187.046 193.628,187.046 C 192.519,187.046 191.817,188.468 191.817,191.327 C 191.797,194.247 192.499,195.646 193.628,195.646 L 193.647,195.646 z "
   style="fill:#1b1718"
   id="path4588" />
		</g>
		<g
   id="g4590">
			<path
   d="M 249.582,187.649 L 249.543,187.649 L 247.13,188.797 L 246.644,186.578 L 250.01,185.02 L 252.443,185.02 L 252.443,197.667 L 249.584,197.667 L 249.582,187.649 L 249.582,187.649 z "
   style="fill:#1b1718"
   id="path4592" />
		</g>
	</g>
	<g
   id="g4594">
		<g
   id="g4596">
			<path
   d="M 80.101,252.747 C 76.832,252.747 75.392,249.809 75.373,246.227 C 75.373,242.549 76.91,239.668 80.179,239.668 C 83.545,239.668 84.888,242.685 84.888,246.147 C 84.888,250.039 83.312,252.744 80.12,252.744 L 80.1,252.744 L 80.1,252.747 L 80.101,252.747 z M 80.14,250.506 C 81.288,250.506 81.911,249.068 81.911,246.188 C 81.911,243.385 81.307,241.907 80.121,241.907 C 79.012,241.907 78.31,243.329 78.31,246.188 C 78.29,249.107 78.992,250.506 80.121,250.506 L 80.14,250.506 z "
   style="fill:#1b1718"
   id="path4598" />
		</g>
		<g
   id="g4600">
			<path
   d="M 136.075,242.51 L 136.036,242.51 L 133.623,243.658 L 133.137,241.438 L 136.503,239.88 L 138.935,239.88 L 138.935,252.528 L 136.076,252.528 L 136.076,242.51 L 136.075,242.51 z "
   style="fill:#1b1718"
   id="path4602" />
		</g>
		<g
   id="g4604">
			<path
   d="M 192.83,242.51 L 192.791,242.51 L 190.378,243.658 L 189.892,241.438 L 193.258,239.88 L 195.691,239.88 L 195.691,252.528 L 192.832,252.528 L 192.83,242.51 L 192.83,242.51 z "
   style="fill:#1b1718"
   id="path4606" />
		</g>
		<g
   id="g4608">
			<path
   d="M 249.582,242.51 L 249.543,242.51 L 247.13,243.658 L 246.644,241.438 L 250.01,239.88 L 252.443,239.88 L 252.443,252.528 L 249.584,252.528 L 249.582,242.51 L 249.582,242.51 z "
   style="fill:#1b1718"
   id="path4610" />
		</g>
	</g>
</g>
<g
   id="g4612">
	<g
   id="g4614">
		<rect
   width="39.728001"
   height="15.404"
   x="60.542"
   y="30.382"
   style="fill:none"
   id="rect4616" />
		<path
   d="M 76.173,42.073 C 74.113,42.073 72.703,40.143 72.671,36.657 C 72.671,33.106 74.212,31.176 76.352,31.176 C 78.558,31.176 79.838,33.155 79.838,36.511 C 79.838,40.094 78.492,42.073 76.19,42.073 L 76.173,42.073 L 76.173,42.073 z M 76.238,40.97 C 77.681,40.97 78.38,39.267 78.38,36.575 C 78.38,33.981 77.731,32.278 76.238,32.278 C 74.941,32.278 74.097,33.932 74.097,36.575 C 74.065,39.315 74.909,40.97 76.222,40.97 L 76.238,40.97 z "
   id="path4618" />
		<path
   d="M 84.491,42.073 C 82.431,42.073 81.02,40.143 80.988,36.657 C 80.988,33.106 82.529,31.176 84.67,31.176 C 86.876,31.176 88.155,33.155 88.155,36.511 C 88.155,40.094 86.809,42.073 84.508,42.073 L 84.491,42.073 L 84.491,42.073 z M 84.556,40.97 C 85.999,40.97 86.697,39.267 86.697,36.575 C 86.697,33.981 86.049,32.278 84.556,32.278 C 83.259,32.278 82.415,33.932 82.415,36.575 C 82.383,39.315 83.226,40.97 84.54,40.97 L 84.556,40.97 z "
   id="path4620" />
	</g>
	<g
   id="g4622">
		<rect
   width="39.729"
   height="15.404"
   x="116.485"
   y="30.382"
   style="fill:none"
   id="rect4624" />
		<path
   d="M 132.116,42.073 C 130.056,42.073 128.645,40.143 128.613,36.657 C 128.613,33.106 130.154,31.176 132.295,31.176 C 134.501,31.176 135.781,33.155 135.781,36.511 C 135.781,40.094 134.434,42.073 132.133,42.073 L 132.116,42.073 L 132.116,42.073 z M 132.181,40.97 C 133.624,40.97 134.322,39.267 134.322,36.575 C 134.322,33.981 133.674,32.278 132.181,32.278 C 130.884,32.278 130.04,33.932 130.04,36.575 C 130.008,39.315 130.851,40.97 132.165,40.97 L 132.181,40.97 z "
   id="path4626" />
		<path
   d="M 140.174,32.684 L 140.141,32.684 L 138.309,33.673 L 138.034,32.587 L 140.337,31.355 L 141.553,31.355 L 141.553,41.895 L 140.175,41.895 L 140.175,32.684 L 140.174,32.684 z "
   id="path4628" />
	</g>
	<g
   id="g4630">
		<rect
   width="39.728001"
   height="15.404"
   x="172.42799"
   y="30.382"
   style="fill:none"
   id="rect4632" />
		<path
   d="M 187.798,32.684 L 187.766,32.684 L 185.934,33.673 L 185.659,32.587 L 187.962,31.355 L 189.179,31.355 L 189.179,41.895 L 187.8,41.895 L 187.798,32.684 L 187.798,32.684 z "
   id="path4634" />
		<path
   d="M 196.116,32.684 L 196.084,32.684 L 194.252,33.673 L 193.976,32.587 L 196.279,31.355 L 197.497,31.355 L 197.497,41.895 L 196.118,41.895 L 196.116,32.684 L 196.116,32.684 z "
   id="path4636" />
	</g>
	<g
   id="g4638">
		<rect
   width="39.729"
   height="15.404"
   x="230.80299"
   y="30.382"
   style="fill:none"
   id="rect4640" />
		<path
   d="M 246.173,32.684 L 246.141,32.684 L 244.309,33.673 L 244.034,32.587 L 246.337,31.355 L 247.554,31.355 L 247.554,41.895 L 246.175,41.895 L 246.173,32.684 L 246.173,32.684 z "
   id="path4642" />
		<path
   d="M 254.75,42.073 C 252.689,42.073 251.278,40.143 251.247,36.657 C 251.247,33.106 252.788,31.176 254.928,31.176 C 257.134,31.176 258.414,33.155 258.414,36.511 C 258.414,40.094 257.067,42.073 254.766,42.073 L 254.75,42.073 L 254.75,42.073 z M 254.815,40.97 C 256.258,40.97 256.957,39.267 256.957,36.575 C 256.957,33.981 256.309,32.278 254.815,32.278 C 253.518,32.278 252.674,33.932 252.674,36.575 C 252.642,39.315 253.486,40.97 254.799,40.97 L 254.815,40.97 z "
   id="path4644" />
	</g>
	<g
   id="g4646">
		<path
   d="M 153.905,13.415 L 152.66,18.002 L 148.472,18.002 L 153.933,0.133 L 159.209,0.133 L 164.775,18.002 L 160.427,18.002 L 159.048,13.415 L 153.905,13.415 L 153.905,13.415 z M 158.439,10.393 L 157.326,6.601 C 157.035,5.54 156.717,4.188 156.452,3.155 L 156.372,3.155 C 156.134,4.216 155.842,5.568 155.577,6.601 L 154.489,10.393 L 158.439,10.393 z "
   id="path4648" />
		<path
   d="M 167.16,0.397 C 168.22,0.186 170.341,0 172.382,0 C 174.848,0 176.36,0.238 177.658,1.007 C 178.903,1.67 179.778,2.889 179.778,4.533 C 179.778,6.097 178.85,7.555 176.861,8.324 L 176.861,8.377 C 178.903,8.907 180.415,10.471 180.415,12.778 C 180.415,14.422 179.673,15.695 178.56,16.57 C 177.261,17.604 175.087,18.187 171.536,18.187 C 169.548,18.187 168.061,18.054 167.161,17.922 L 167.161,0.397 L 167.16,0.397 z M 171.164,7.211 L 172.488,7.211 C 174.635,7.211 175.75,6.336 175.75,5.011 C 175.75,3.658 174.716,2.943 172.887,2.943 C 171.986,2.943 171.482,2.996 171.164,3.076 L 171.164,7.211 L 171.164,7.211 z M 171.164,15.138 C 171.56,15.217 172.038,15.217 172.726,15.217 C 174.556,15.217 176.173,14.501 176.173,12.619 C 176.173,10.816 174.556,10.1 172.54,10.1 L 171.162,10.1 L 171.164,15.138 L 171.164,15.138 z "
   id="path4650" />
	</g>
</g>
<g
   id="g4652">
	<g
   id="g4654">
		<rect
   width="15.403"
   height="39.729"
   x="30.542"
   y="227.397"
   style="fill:none"
   id="rect4656" />
		<path
   d="M 42.23,251.493 C 42.23,253.554 40.3,254.964 36.814,254.997 C 33.263,254.997 31.334,253.456 31.334,251.315 C 31.334,249.109 33.313,247.829 36.669,247.829 C 40.252,247.829 42.231,249.175 42.231,251.477 L 42.231,251.493 L 42.23,251.493 z M 41.127,251.428 C 41.127,249.985 39.424,249.287 36.731,249.287 C 34.137,249.287 32.434,249.934 32.434,251.428 C 32.434,252.725 34.088,253.569 36.731,253.569 C 39.471,253.601 41.127,252.757 41.127,251.444 L 41.127,251.428 z "
   id="path4658" />
		<path
   d="M 42.23,243.174 C 42.23,245.235 40.3,246.646 36.814,246.678 C 33.263,246.678 31.334,245.137 31.334,242.996 C 31.334,240.791 33.313,239.511 36.669,239.511 C 40.252,239.511 42.231,240.857 42.231,243.158 L 42.231,243.174 L 42.23,243.174 z M 41.127,243.111 C 41.127,241.669 39.424,240.969 36.731,240.969 C 34.137,240.969 32.434,241.617 32.434,243.111 C 32.434,244.409 34.088,245.253 36.731,245.253 C 39.471,245.284 41.127,244.441 41.127,243.128 L 41.127,243.111 z "
   id="path4660" />
	</g>
	<g
   id="g4662">
		<rect
   width="15.403"
   height="39.729"
   x="30.542"
   y="171.45399"
   style="fill:none"
   id="rect4664" />
		<path
   d="M 42.229,195.549 C 42.229,197.61 40.299,199.021 36.813,199.053 C 33.262,199.053 31.333,197.512 31.333,195.371 C 31.333,193.166 33.312,191.886 36.668,191.886 C 40.251,191.886 42.23,193.232 42.23,195.533 L 42.23,195.549 L 42.229,195.549 z M 41.127,195.486 C 41.127,194.044 39.424,193.344 36.731,193.344 C 34.137,193.344 32.434,193.992 32.434,195.486 C 32.434,196.784 34.088,197.628 36.731,197.628 C 39.471,197.659 41.127,196.816 41.127,195.503 L 41.127,195.486 z "
   id="path4666" />
		<path
   d="M 32.841,187.493 L 32.841,187.525 L 33.83,189.357 L 32.744,189.633 L 31.512,187.33 L 31.512,186.112 L 42.052,186.112 L 42.052,187.492 L 32.841,187.492 L 32.841,187.493 z "
   id="path4668" />
	</g>
	<g
   id="g4670">
		<rect
   width="15.403"
   height="39.728001"
   x="30.542"
   y="115.511"
   style="fill:none"
   id="rect4672" />
		<path
   d="M 32.841,139.866 L 32.841,139.898 L 33.83,141.73 L 32.744,142.006 L 31.512,139.703 L 31.512,138.486 L 42.052,138.486 L 42.052,139.865 L 32.841,139.865 L 32.841,139.866 z "
   id="path4674" />
		<path
   d="M 32.841,131.548 L 32.841,131.581 L 33.83,133.413 L 32.744,133.689 L 31.512,131.386 L 31.512,130.17 L 42.052,130.17 L 42.052,131.548 L 32.841,131.548 L 32.841,131.548 z "
   id="path4676" />
	</g>
	<g
   id="g4678">
		<rect
   width="15.403"
   height="39.728001"
   x="30.542"
   y="57.134998"
   style="fill:none"
   id="rect4680" />
		<path
   d="M 32.841,81.491 L 32.841,81.524 L 33.83,83.356 L 32.744,83.632 L 31.512,81.329 L 31.512,80.113 L 42.052,80.113 L 42.052,81.491 L 32.841,81.491 z "
   id="path4682" />
		<path
   d="M 42.229,72.914 C 42.229,74.973 40.299,76.384 36.813,76.416 C 33.262,76.416 31.333,74.875 31.333,72.735 C 31.333,70.529 33.312,69.249 36.668,69.249 C 40.251,69.249 42.23,70.595 42.23,72.897 L 42.23,72.914 L 42.229,72.914 z M 41.127,72.849 C 41.127,71.406 39.424,70.708 36.731,70.708 C 34.137,70.708 32.434,71.357 32.434,72.849 C 32.434,74.146 34.088,74.99 36.731,74.99 C 39.471,75.022 41.127,74.179 41.127,72.865 L 41.127,72.849 z "
   id="path4684" />
	</g>
	<g
   id="g4686">
		<path
   d="M 17.683,163.588 C 18.028,164.304 18.453,166 18.453,168.148 C 18.453,174.327 14.582,177.506 9.465,177.506 C 3.367,177.506 0.001,173.158 0.001,167.75 C 0.001,165.654 0.425,164.063 0.796,163.349 L 3.977,164.198 C 3.632,164.993 3.314,166.134 3.314,167.593 C 3.314,170.775 5.25,173.267 9.252,173.267 C 12.831,173.267 15.085,171.146 15.085,167.567 C 15.085,166.321 14.847,164.996 14.502,164.173 L 17.683,163.588 z "
   id="path4688" />
		<path
   d="M 0.557,160.913 C 0.292,159.427 0.161,157.493 0.161,155.476 C 0.161,152.056 0.718,149.83 2.015,148.131 C 3.394,146.277 5.621,145.11 8.802,145.11 C 12.222,145.11 14.582,146.357 16.04,148.053 C 17.603,149.935 18.347,152.824 18.347,156.324 C 18.347,158.418 18.214,159.928 18.082,160.91 L 0.557,160.91 L 0.557,160.913 z M 15.111,156.881 C 15.191,156.535 15.191,155.953 15.191,155.476 C 15.218,151.791 13.204,149.377 8.935,149.377 C 5.091,149.377 3.261,151.553 3.261,155.051 C 3.261,155.926 3.341,156.535 3.42,156.881 L 15.111,156.881 L 15.111,156.881 z "
   id="path4690" />
	</g>
</g>
</svg>