<?xml version="1.0" encoding="UTF-8" standalone="no" ?>
<svg xmlns="http://www.w3.org/2000/svg" version="1.1" viewBox="0 0 725 730" width="725" height="730">
<g style="fill:none;stroke:#000;stroke-width:10px">
<path d="M 74.2,610.3 c 28.4,-35.3 58.4,-70.2 105.7,-99.6 c 14.1,37.1 30.3,71.2 51.9,99.2 c 28.4,-35.3 58.4,-70.2 105,-99.6 c 14.1,37.1 30.3,71.2 51.9,99.2 c 28.4,-35.3 58.4,-70.2 105,-99.6 c 14.1,37.1 30.3,71.2 51.9,99.2 c 28.4,-35.3 58.4,-70.2 105.7,-99.6 q 14.1,37.1 23,56" style="stroke-width:3px;" />
<g transform="translate(65,-44)"><path d="M 10.6,154.5 H 114.7 V 454.7 H 167.0 V 154.9 H 271.5 V 454.3 H 323.8 V 154.5 h 104.6 V 454.7 h 52.3 V 154.7 h 105.1 v299.4 h 24.4" style="stroke-width:3px;" /></g>
<path d="M75,51 H675 V651 H75 V51" style="stroke-width:1px;"/>
<path d="M70,50.5 V653" style="stroke-dasharray:1px,58.95px"/>
<path d="M74,655 H677" style="stroke-dasharray:1px,74px"/>
<path d="M71,80.5 V653" style="stroke-width:6px;stroke-dasharray:1px,58.95px"/>
<path d="M112 655 H677" style="stroke-width:6px;stroke-dasharray:1px,74px"/>
<path d="M149,51 V653 m 75,0 V51 m75,0 V653 m 75,0 V51 m75,0 V653 m 75,0 V51 m75,0 V653 M75,111.5 H676 m0,59.95 H75 m0,59.95 H676 m0,59.95 H75 m0,59.95 H676 m0,59.95 H75 m0,59.95 H676 m0,59.95 H75 m0,59.95 H676" style="stroke-width:1px;stroke-dasharray:4px"/>
</g><g fill="#000" font-size="20px" font-family="DejaVu Sans">
<switch><text systemLanguage="cs">
<tspan x="375" y="445" text-anchor="middle">Průběhy napětí na výstupu...</tspan>
<tspan x="375" y="635" text-anchor="middle">a na uzlu R2-C</tspan>
<tspan x="375" y="697" text-anchor="middle"><tspan font-style="italic">t</tspan> / s</tspan>
</text><text systemLanguage="en">
<tspan x="375" y="445" text-anchor="middle">Output voltage</tspan>
<tspan x="375" y="635" text-anchor="middle">Voltage across capacitor C</tspan>
<tspan x="375" y="697" text-anchor="middle">Time / s</tspan>
</text><text systemLanguage="fr">
<tspan x="375" y="445" text-anchor="middle">Tension de sortie</tspan>
<tspan x="375" y="635" text-anchor="middle">Tension du condensature C</tspan>
<tspan x="375" y="697" text-anchor="middle">Temps (seconde)</tspan>
</text><text>
<tspan x="375" y="445" text-anchor="middle">Output voltage</tspan>
<tspan x="375" y="635" text-anchor="middle">Voltage across capacitor C</tspan>
<tspan x="375" y="697" text-anchor="middle"><tspan font-style="italic">t</tspan> / s</tspan>
</text></switch></g>
<g fill="#000" font-size="20px" font-family="DejaVu Sans" transform="translate(45, 360) rotate(-90)">
<switch>
<text systemLanguage="cs">
<tspan x="0" y="0" text-anchor="middle">Napětí / V</tspan>
</text>
<text systemLanguage="en">
<tspan x="0" y="0" text-anchor="middle">Voltage / V</tspan>
</text>
<text systemLanguage="fr">
<tspan x="0" y="0" text-anchor="middle">Tension (volt)</tspan>
</text>
<text>
<tspan x="0" y="0" text-anchor="middle"><tspan font-style="italic">V</tspan> / V</tspan>
</text>
</switch></g></svg>
